<svg width="145" height="115" viewBox="0 0 145 115" fill="none" xmlns="http://www.w3.org/2000/svg">
<path d="M139.652 115H4.5307C3.32908 115 2.17668 114.523 1.32701 113.673C0.477339 112.823 0 111.671 0 110.469C48.9816 104.777 97.0426 104.777 144.183 110.469C144.183 111.671 143.706 112.823 142.856 113.673C142.006 114.523 140.854 115 139.652 115Z" fill="#2F2E41"/>
<path d="M144.183 110.736L0 110.469L16.7103 82.3522L16.7903 82.219V20.2522C16.7902 19.5001 16.9383 18.7553 17.2261 18.0604C17.5139 17.3655 17.9358 16.7341 18.4676 16.2023C18.9995 15.6704 19.6309 15.2485 20.3258 14.9607C21.0207 14.6729 21.7655 14.5248 22.5176 14.5249H120.866C121.618 14.5248 122.363 14.6729 123.058 14.9607C123.753 15.2485 124.384 15.6704 124.916 16.2023C125.448 16.7341 125.87 17.3655 126.157 18.0604C126.445 18.7553 126.593 19.5001 126.593 20.2522V82.6454L144.183 110.736Z" fill="#3F3D56"/>
<path d="M22.387 18.5226C21.8924 18.5231 21.4182 18.7199 21.0685 19.0696C20.7187 19.4194 20.522 19.8936 20.5215 20.3882V76.8887C20.522 77.3834 20.7188 77.8575 21.0685 78.2073C21.4182 78.557 21.8924 78.7538 22.387 78.7543H121.796C122.291 78.7537 122.765 78.557 123.115 78.2073C123.464 77.8575 123.661 77.3834 123.662 76.8887V20.3882C123.661 19.8936 123.464 19.4194 123.115 19.0696C122.765 18.7199 122.291 18.5232 121.796 18.5226H22.387Z" fill="white"/>
<path d="M22.8036 86.2167C22.6507 86.2169 22.5012 86.2609 22.3725 86.3433C22.2438 86.4258 22.1413 86.5433 22.0772 86.682L16.9282 97.8756C16.8722 97.9974 16.8477 98.1313 16.8569 98.2651C16.8662 98.3988 16.909 98.5281 16.9813 98.641C17.0536 98.7539 17.1532 98.8468 17.2708 98.9112C17.3885 98.9755 17.5204 99.0093 17.6545 99.0093H125.935C126.071 99.0093 126.205 98.9744 126.324 98.908C126.443 98.8417 126.543 98.746 126.615 98.63C126.686 98.5141 126.727 98.3818 126.733 98.2456C126.739 98.1095 126.71 97.974 126.649 97.8521L121.053 86.6586C120.987 86.5255 120.885 86.4136 120.758 86.3355C120.632 86.2574 120.486 86.2162 120.338 86.2167H22.8036Z" fill="#2F2E41"/>
<path d="M71.6918 17.5898C72.3541 17.5898 72.8911 17.0528 72.8911 16.3905C72.8911 15.7281 72.3541 15.1912 71.6918 15.1912C71.0294 15.1912 70.4925 15.7281 70.4925 16.3905C70.4925 17.0528 71.0294 17.5898 71.6918 17.5898Z" fill="white"/>
<path d="M61.0487 101.141C60.873 101.142 60.7022 101.2 60.5627 101.307C60.4232 101.413 60.3227 101.563 60.2768 101.733L58.9852 106.53C58.9533 106.649 58.9491 106.773 58.9729 106.893C58.9967 107.014 59.0479 107.127 59.1225 107.224C59.1972 107.322 59.2932 107.401 59.4033 107.455C59.5134 107.509 59.6344 107.538 59.7572 107.538H84.3199C84.4473 107.538 84.573 107.507 84.6862 107.449C84.7995 107.39 84.8972 107.306 84.9711 107.202C85.045 107.098 85.093 106.978 85.1111 106.852C85.1292 106.726 85.1169 106.597 85.0752 106.477L83.4147 101.679C83.3602 101.522 83.2582 101.386 83.1228 101.29C82.9874 101.193 82.8254 101.141 82.6591 101.141H61.0487Z" fill="#2F2E41"/>
<path d="M126.593 81.2863V82.3522H16.7103L16.793 82.2191V81.2863H126.593Z" fill="#2F2E41"/>
<path d="M123.528 37.3117C133.832 37.3117 142.184 28.9592 142.184 18.6559C142.184 8.35251 133.832 0 123.528 0C113.225 0 104.873 8.35251 104.873 18.6559C104.873 28.9592 113.225 37.3117 123.528 37.3117Z" fill="#FF635F"/>
<path d="M131.257 26.7845H115.8C115.517 26.7842 115.246 26.6718 115.046 26.4719C114.846 26.2721 114.734 26.0011 114.733 25.7184V16.3905C114.734 16.1079 114.846 15.8369 115.046 15.637C115.246 15.4372 115.517 15.3248 115.8 15.3245H131.257C131.54 15.3248 131.811 15.4372 132.011 15.637C132.211 15.8369 132.323 16.1079 132.323 16.3905V25.7184C132.323 26.0011 132.211 26.2721 132.011 26.4719C131.811 26.6718 131.54 26.7842 131.257 26.7845ZM115.8 16.3905V25.7184H131.258L131.257 16.3905L115.8 16.3905Z" fill="white"/>
<path d="M128.326 16.3905H118.731V12.1263C118.731 9.03769 120.749 6.79602 123.528 6.79602C126.308 6.79602 128.326 9.03769 128.326 12.1263L128.326 16.3905ZM119.797 15.3244H127.26V12.1263C127.26 9.6156 125.725 7.86207 123.528 7.86207C121.331 7.86207 119.797 9.61561 119.797 12.1263L119.797 15.3244Z" fill="white"/>
<path d="M123.528 21.854C124.117 21.854 124.594 21.3767 124.594 20.788C124.594 20.1992 124.117 19.7219 123.528 19.7219C122.94 19.7219 122.462 20.1992 122.462 20.788C122.462 21.3767 122.94 21.854 123.528 21.854Z" fill="white"/>
<path d="M110.505 59.5899H33.6781C33.3009 59.5895 32.9393 59.4394 32.6726 59.1727C32.4058 58.906 32.2558 58.5444 32.2554 58.1672V39.1097C32.2558 38.7325 32.4058 38.3709 32.6726 38.1042C32.9393 37.8375 33.3009 37.6875 33.6781 37.687H110.505C110.882 37.6875 111.244 37.8375 111.51 38.1042C111.777 38.3709 111.927 38.7325 111.928 39.1097V58.1672C111.927 58.5444 111.777 58.906 111.51 59.1727C111.244 59.4394 110.882 59.5895 110.505 59.5899ZM33.6781 38.2561C33.4518 38.2564 33.2348 38.3464 33.0747 38.5064C32.9147 38.6664 32.8247 38.8834 32.8245 39.1097V58.1672C32.8247 58.3935 32.9147 58.6105 33.0747 58.7705C33.2348 58.9306 33.4518 59.0206 33.6781 59.0208H110.505C110.731 59.0206 110.948 58.9306 111.108 58.7705C111.268 58.6105 111.358 58.3935 111.359 58.1672V39.1097C111.358 38.8834 111.268 38.6664 111.108 38.5064C110.948 38.3464 110.731 38.2563 110.505 38.2561L33.6781 38.2561Z" fill="#E6E6E6"/>
<path d="M45.6154 53.7026C48.8162 53.7026 51.4108 51.1079 51.4108 47.9072C51.4108 44.7065 48.8162 42.1118 45.6154 42.1118C42.4147 42.1118 39.82 44.7065 39.82 47.9072C39.82 51.1079 42.4147 53.7026 45.6154 53.7026Z" fill="#E6E6E6"/>
<path d="M59 44.0436C58.8731 44.0434 58.7473 44.0682 58.6299 44.1167C58.5126 44.1651 58.4059 44.2362 58.3161 44.3259C58.2262 44.4157 58.1549 44.5222 58.1063 44.6395C58.0577 44.7568 58.0326 44.8825 58.0326 45.0095C58.0326 45.1365 58.0577 45.2622 58.1063 45.3795C58.1549 45.4968 58.2262 45.6033 58.3161 45.693C58.4059 45.7827 58.5126 45.8538 58.6299 45.9023C58.7473 45.9507 58.8731 45.9756 59 45.9754H104.535C104.791 45.9754 105.037 45.8736 105.218 45.6925C105.399 45.5113 105.501 45.2657 105.501 45.0095C105.501 44.7533 105.399 44.5076 105.218 44.3265C105.037 44.1453 104.791 44.0436 104.535 44.0436H59Z" fill="#E6E6E6"/>
<path d="M59 49.839C58.7439 49.839 58.4982 49.9408 58.3171 50.1219C58.1359 50.303 58.0341 50.5487 58.0341 50.8049C58.0341 51.0611 58.1359 51.3067 58.3171 51.4879C58.4982 51.669 58.7439 51.7708 59 51.7708H78.594C78.8502 51.7708 79.0958 51.669 79.277 51.4879C79.4581 51.3067 79.5599 51.0611 79.5599 50.8049C79.5599 50.5487 79.4581 50.303 79.277 50.1219C79.0958 49.9408 78.8502 49.839 78.594 49.839H59Z" fill="#E6E6E6"/>
</svg>
