<svg width="136" height="115" viewBox="0 0 136 115" fill="none" xmlns="http://www.w3.org/2000/svg">
<path d="M99.8111 16.4432H115.697V7.94289C115.697 5.8363 114.86 3.81599 113.37 2.32641C111.881 0.836834 109.861 0 107.754 0C105.647 0 103.627 0.836834 102.138 2.32641C100.648 3.81599 99.8111 5.8363 99.8111 7.94289V16.4432Z" fill="#2F2E41"/>
<path d="M92.7197 111.018H89.3031L87.6775 97.8374H92.7202L92.7197 111.018Z" fill="#FFB6B6"/>
<path d="M93.5912 109.902H86.862C85.7248 109.902 84.6342 110.354 83.8301 111.158C83.0259 111.962 82.5741 113.052 82.574 114.19V114.329H93.5912V109.902Z" fill="#2F2E41"/>
<path d="M133.564 106.458L130.589 108.137L122.694 97.4602L127.085 94.9812L133.564 106.458Z" fill="#FFB6B6"/>
<path d="M133.774 105.058L127.915 108.365C126.924 108.924 126.197 109.854 125.892 110.949C125.587 112.045 125.73 113.217 126.289 114.207L126.357 114.328L135.951 108.913L133.774 105.058Z" fill="#2F2E41"/>
<path d="M111.727 51.7467L111.991 53.0649C111.991 53.0649 112.781 53.8559 112.386 54.2513C111.991 54.6468 112.122 56.4926 112.122 56.4926C112.344 59.8582 116.741 78.7706 117.528 82.4642C117.528 82.4642 123.592 86.4192 128.338 94.1974C133.084 101.976 133.215 103.953 133.215 103.953L127.943 106.195L114.76 90.2426C114.76 90.2426 111.069 88.0014 109.751 86.024C108.432 84.0466 100.257 63.6117 100.257 63.6117L95.6418 84.9691C95.6418 84.9691 95.9055 92.7473 94.7191 97.7572C93.9896 100.919 93.5483 104.14 93.4008 107.381L87.2045 106.722C87.2045 106.722 87.6 88.0014 88.2591 86.0237C88.2591 86.0237 85.4905 63.2162 91.0277 54.1195L95.4902 42.2228L99.8608 40.5405L111.727 51.7467Z" fill="#2F2E41"/>
<path d="M107.836 2.07788C99.5177 2.22002 99.519 14.5934 107.836 14.7341C116.154 14.592 116.153 2.21863 107.836 2.07788Z" fill="#FFB8B8"/>
<path d="M101.434 8.07785H102.848L103.233 7.11522L103.04 8.07785H110.773L110.522 6.06369L112.401 8.07785H114.276V6.98646C114.277 6.14329 114.111 5.30826 113.789 4.52904C113.467 3.74983 112.995 3.04168 112.399 2.44505C111.803 1.84842 111.095 1.37498 110.317 1.05176C109.538 0.728539 108.703 0.561877 107.86 0.561281C107.017 0.560685 106.182 0.726171 105.403 1.04829C104.623 1.3704 103.915 1.84284 103.319 2.43863C102.722 3.03442 102.248 3.7419 101.925 4.52066C101.602 5.29942 101.435 6.13421 101.435 6.97738V6.98646L101.434 8.07785Z" fill="#2F2E41"/>
<path d="M99.2582 18.4292L114.977 18.5566L111.656 52.2559C111.656 52.2559 93.2731 51.2857 93.2617 45.6747L94.9838 40.6885L99.2582 18.4292Z" fill="#3F3D56"/>
<path d="M115.652 55.5136C115.411 55.2176 115.237 54.8723 115.143 54.502C115.049 54.1316 115.038 53.7452 115.11 53.37C115.182 52.9948 115.335 52.6398 115.558 52.3302C115.782 52.0205 116.071 51.7637 116.405 51.5778L115.722 45.6451L119.226 44.3506L120.073 52.7425C120.346 53.3237 120.397 53.9849 120.216 54.6012C120.035 55.2175 119.635 55.7461 119.091 56.0873C118.547 56.4284 117.896 56.5584 117.263 56.4527C116.629 56.347 116.056 56.0129 115.652 55.5136Z" fill="#FFB6B6"/>
<path d="M112.91 21.4596L114.978 18.5687C114.978 18.5687 116.394 18.2546 118.066 20.2055C119.738 22.1564 120.713 46.5424 120.713 46.5424L114.582 47.9359L110.959 30.6566L112.91 21.4596Z" fill="#3F3D56"/>
<path d="M78.2636 47.9049L78.7196 69.57L92.745 76.982L118.287 72.4208L118.914 49.9003L102.722 44.1987L78.2636 47.9049Z" fill="white"/>
<path d="M92.7085 77.2158L78.4984 69.7064L78.0354 47.7128L102.744 43.969L102.797 43.9875L119.143 49.7432L118.506 72.6091L92.7085 77.2158ZM78.9407 69.4335L92.7815 76.7478L118.068 72.2322L118.686 50.0572L102.701 44.4285L78.4916 48.0966L78.9407 69.4335Z" fill="#CACACA"/>
<path d="M92.432 53.7788L92.3771 53.7571L78.1808 48.1126L78.3461 47.6965L92.4877 53.319L118.884 49.6784L118.945 50.122L92.432 53.7788Z" fill="#CACACA"/>
<path d="M92.6839 53.5463L92.236 53.5518L92.521 76.9845L92.969 76.9791L92.6839 53.5463Z" fill="#CACACA"/>
<path d="M90.6381 52.6573L85.5206 50.5827L110.156 46.6572L115.274 48.7316L90.6381 52.6573Z" fill="#CACACA"/>
<path d="M78.352 54.1896L78.1749 54.6011L84.1101 57.1565L84.2873 56.7451L78.352 54.1896Z" fill="#CACACA"/>
<path d="M81.0397 61.5805L80.8626 61.9919L86.7978 64.5474L86.975 64.136L81.0397 61.5805Z" fill="#FF635F"/>
<path d="M0.22821 78.0042L0.684156 99.6694L14.7096 107.081L40.2517 102.52L40.8791 79.9997L24.687 74.2981L0.22821 78.0042Z" fill="white"/>
<path d="M14.6731 107.315L0.463039 99.8058L0 77.8121L24.7088 74.0684L24.7614 74.0868L41.1075 79.8425L40.4707 102.708L14.6731 107.315ZM0.905309 99.5328L14.7461 106.847L40.033 102.332L40.6506 80.1566L24.6654 74.5279L0.45615 78.196L0.905309 99.5328Z" fill="#CACACA"/>
<path d="M14.3966 83.8782L14.3417 83.8565L0.145386 78.212L0.31065 77.7959L14.4523 83.4184L40.8484 79.7777L40.9097 80.2214L14.3966 83.8782Z" fill="#CACACA"/>
<path d="M14.6485 83.6457L14.2006 83.6511L14.4856 107.084L14.9336 107.078L14.6485 83.6457Z" fill="#CACACA"/>
<path d="M11.363 82.2467L7.48523 80.682L32.1207 76.7566L35.9982 78.3212L11.363 82.2467Z" fill="#CACACA"/>
<path d="M0.316611 84.289L0.139465 84.7004L6.07471 87.2559L6.25186 86.8444L0.316611 84.289Z" fill="#CACACA"/>
<path d="M3.00435 91.6799L2.82721 92.0913L8.76247 94.6468L8.93961 94.2353L3.00435 91.6799Z" fill="#FF635F"/>
<path d="M24.5942 80.9746L25.1237 106.125L41.405 114.729L71.0554 109.434L71.7833 83.2911L52.9871 76.6726L24.5942 80.9746Z" fill="#FF635F"/>
<path d="M41.3624 115L24.8669 106.283L24.3294 80.7517L53.0123 76.4058L53.0734 76.4272L72.0485 83.1086L71.3093 109.652L41.3624 115ZM25.3803 105.966L41.4472 114.457L70.8013 109.215L71.5181 83.4733L52.9619 76.9392L24.8589 81.1973L25.3803 105.966Z" fill="#3F3D56"/>
<path d="M41.0416 87.7937L40.978 87.7684L24.498 81.2162L24.6901 80.7329L41.1062 87.2597L71.7476 83.0336L71.8187 83.5486L41.0416 87.7937Z" fill="#3F3D56"/>
<path d="M41.334 87.5235L40.814 87.5298L41.1449 114.731L41.6649 114.725L41.334 87.5235Z" fill="#3F3D56"/>
<path d="M37.7836 85.9116L33.0184 84.0836L61.6161 79.5266L66.3816 81.3546L37.7836 85.9116Z" fill="#3F3D56"/>
<path d="M24.697 88.2702L24.4913 88.7478L31.3812 91.7143L31.5868 91.2367L24.697 88.2702Z" fill="#3F3D56"/>
<path d="M27.8169 96.85L27.6113 97.3276L34.5012 100.294L34.7068 99.8165L27.8169 96.85Z" fill="white"/>
<path d="M86.2157 51.4872C86.5615 51.3249 86.8675 51.0887 87.1121 50.7953C87.3568 50.502 87.5342 50.1585 87.6318 49.7892C87.7294 49.4199 87.7448 49.0336 87.677 48.6577C87.6092 48.2818 87.4598 47.9253 87.2393 47.6133L90.4226 42.5605L87.824 39.8772L83.4287 47.0757C82.9293 47.481 82.596 48.0553 82.4917 48.69C82.3875 49.3246 82.5196 49.9754 82.8631 50.5191C83.2066 51.0629 83.7376 51.4618 84.3554 51.6402C84.9733 51.8187 85.6352 51.7643 86.2157 51.4875V51.4872Z" fill="#FFB6B6"/>
<path d="M101.674 19.7574L99.3931 18.2546C99.3931 18.2546 97.6331 18.6493 95.7614 22.2495C93.8897 25.8497 86.3414 41.9456 86.3414 41.9456L89.4442 45.0949L97.7215 32.4674L101.674 19.7574Z" fill="#3F3D56"/>
</svg>
