<svg width="50" height="50" viewBox="0 0 50 50" fill="none" xmlns="http://www.w3.org/2000/svg">
<path d="M7.29169 41.6667C6.45835 41.6667 5.72919 41.3542 5.10419 40.7292C4.47919 40.1042 4.16669 39.375 4.16669 38.5417V11.4583C4.16669 10.625 4.47919 9.89583 5.10419 9.27083C5.72919 8.64583 6.45835 8.33333 7.29169 8.33333H42.7084C43.5417 8.33333 44.2709 8.64583 44.8959 9.27083C45.5209 9.89583 45.8334 10.625 45.8334 11.4583V38.5417C45.8334 39.375 45.5209 40.1042 44.8959 40.7292C44.2709 41.3542 43.5417 41.6667 42.7084 41.6667H7.29169ZM25 25.9375L7.29169 14.3229V38.5417H42.7084V14.3229L25 25.9375ZM25 22.8125L42.5 11.4583H7.5521L25 22.8125ZM7.29169 14.3229V11.4583V38.5417V14.3229Z" fill="#FF635F"/>
</svg>
