<svg width="51" height="50" viewBox="0 0 51 50" fill="none" xmlns="http://www.w3.org/2000/svg">
<path fill-rule="evenodd" clip-rule="evenodd" d="M25.4448 0C11.3745 0 0 11.4583 0 25.6339C0 36.9651 7.28802 46.5568 17.3984 49.9516C18.6625 50.2068 19.1255 49.4 19.1255 48.7214C19.1255 48.1271 19.0839 46.0901 19.0839 43.9677C12.0057 45.4958 10.5318 40.912 10.5318 40.912C9.39427 37.9411 7.70885 37.1776 7.70885 37.1776C5.39219 35.6073 7.8776 35.6073 7.8776 35.6073C10.4474 35.7771 11.7958 38.2385 11.7958 38.2385C14.0703 42.1427 17.7354 41.0396 19.2099 40.3604C19.4203 38.7052 20.0948 37.5594 20.8109 36.9229C15.1656 36.3286 9.22604 34.1219 9.22604 24.2755C9.22604 21.4745 10.2365 19.1828 11.8375 17.4005C11.5849 16.7641 10.7 14.1323 12.0906 10.6099C12.0906 10.6099 14.2391 9.93073 19.0833 13.2411C21.1573 12.68 23.2962 12.3946 25.4448 12.3922C27.5932 12.3922 29.7833 12.6896 31.8057 13.2411C36.6505 9.93073 38.799 10.6099 38.799 10.6099C40.1896 14.1323 39.3042 16.7641 39.0516 17.4005C40.6948 19.1828 41.6635 21.4745 41.6635 24.2755C41.6635 34.1219 35.724 36.2859 30.0365 36.9229C30.9635 37.7292 31.7635 39.2568 31.7635 41.676C31.7635 45.1135 31.7219 47.8724 31.7219 48.7208C31.7219 49.4 32.1854 50.2068 33.449 49.9521C43.5594 46.5562 50.8474 36.9651 50.8474 25.6339C50.8891 11.4583 39.4729 0 25.4448 0Z" fill="#FF635F"/>
</svg>
