<svg width="163" height="115" viewBox="0 0 163 115" fill="none" xmlns="http://www.w3.org/2000/svg">
<g clip-path="url(#clip0_25_603)">
<path opacity="0.1" d="M53.9754 114.935C61.8818 114.935 68.2913 113.906 68.2913 112.636C68.2913 111.366 61.8818 110.337 53.9754 110.337C46.069 110.337 39.6595 111.366 39.6595 112.636C39.6595 113.906 46.069 114.935 53.9754 114.935Z" fill="#FF635F"/>
<path opacity="0.1" d="M131.794 115C141.66 115 149.658 113.971 149.658 112.701C149.658 111.431 141.66 110.401 131.794 110.401C121.928 110.401 113.93 111.431 113.93 112.701C113.93 113.971 121.928 115 131.794 115Z" fill="#FF635F"/>
<path opacity="0.1" d="M2.03338 49.6882H16.9443V70.0116H3.12499C3.08826 70.2203 3.053 70.4304 3.0148 70.6405H16.9443V87.0308C16.9193 87.0235 16.8973 87.0147 16.8737 87.0059C16.48 86.8501 16.0892 86.6856 15.6984 86.5093L15.4486 86.3961C15.0568 86.211 14.6651 86.0151 14.2733 85.8085C14.1366 85.7365 14 85.6615 13.8648 85.5851C11.6898 84.3668 9.71391 82.8229 8.00567 81.0071C7.95571 80.9586 7.9087 80.9072 7.85875 80.8602C7.62074 80.6016 7.38713 80.3401 7.16088 80.0727L6.91111 79.7789C6.64372 79.4512 6.38514 79.1148 6.13391 78.7739C6.09718 78.724 6.06192 78.674 6.02372 78.627C5.00196 77.2103 4.15358 75.6763 3.4967 74.0578C3.47613 74.0093 3.4585 73.9564 3.4394 73.9109C3.23763 73.3918 3.05888 72.8678 2.90314 72.3389C2.83556 72.117 2.77091 71.8981 2.71508 71.6674C2.69452 71.5998 2.67688 71.5337 2.66072 71.4676C1.82622 68.2104 1.72778 64.8268 1.72778 61.4668C1.72778 61.0745 1.72778 60.6808 1.72778 60.2914C1.72778 58.9324 1.74394 57.5646 1.76745 56.1983C1.76745 55.8442 1.78214 55.4916 1.78949 55.136C1.81006 54.2339 1.83944 53.3318 1.87764 52.4298C1.88646 52.1785 1.89821 51.9288 1.91143 51.679C1.91143 51.535 1.91878 51.391 1.93347 51.2471C1.96873 50.724 1.99812 50.2054 2.03338 49.6882Z" fill="#FF635F"/>
<path opacity="0.1" d="M16.9443 27.0597H8.76526C10.0948 24.9787 11.5475 22.979 13.1156 21.0712C14.3306 19.5785 15.6132 18.124 16.9443 16.7224V27.0597Z" fill="#FF635F"/>
<path opacity="0.1" d="M16.9443 27.6885V49.0594H2.08038C2.08038 48.9977 2.09067 48.9345 2.09508 48.8728C2.1083 48.7039 2.12152 48.5349 2.13621 48.3674C2.15237 48.1706 2.17 47.9722 2.1891 47.7798C2.2082 47.5873 2.22877 47.3522 2.25081 47.1392C2.27285 46.9262 2.29342 46.7102 2.31839 46.4971C2.34337 46.2841 2.36541 46.0711 2.39185 45.8595C2.4183 45.648 2.44181 45.4334 2.46972 45.2219C2.49176 45.0456 2.51527 44.8707 2.53877 44.6944C2.57256 44.4461 2.60783 44.1964 2.64602 43.9496C2.64602 43.9128 2.65631 43.8746 2.66219 43.8394C2.93034 42.0325 3.29572 40.2414 3.75674 38.4739C4.23931 36.6197 4.85554 34.8029 5.60058 33.0378C6.39243 31.1913 7.31956 29.4058 8.37443 27.6958L16.9443 27.6885Z" fill="#FF635F"/>
<path opacity="0.1" d="M20.5041 49.6868V70.0116H52.3519V49.6868H20.5041ZM20.5041 70.639V88.0931C20.6863 88.1313 20.867 88.168 21.0463 88.1989C21.2901 88.2459 21.5326 88.2885 21.7809 88.3252C21.8279 88.3326 21.8764 88.3399 21.9278 88.3443C22.0247 88.3605 22.1246 88.3737 22.2216 88.3869C22.467 88.4207 22.7109 88.4486 22.9562 88.4706C23.0723 88.4824 23.1898 88.4927 23.3073 88.5015L23.5909 88.5235C23.7452 88.5353 23.898 88.5441 24.0493 88.5485C24.1433 88.5485 24.2374 88.5573 24.3343 88.5603C24.4078 88.5603 24.4812 88.5603 24.5576 88.5603C24.634 88.5603 24.7428 88.5603 24.8353 88.5603C24.9617 88.5603 25.088 88.5603 25.2129 88.5603H25.3819C25.5082 88.5603 25.6346 88.5603 25.7594 88.5485H25.7683C25.8549 88.5485 25.9431 88.5485 26.0312 88.5368C26.0557 88.5382 26.0802 88.5382 26.1047 88.5368C26.1782 88.5368 26.2516 88.5368 26.3221 88.5265H26.3736L26.8657 88.4883C27.0274 88.4736 27.1904 88.4545 27.355 88.4369L27.69 88.3972C29.0528 88.2062 30.4004 87.9195 31.7229 87.5392C34.6936 86.7106 37.5997 85.5514 40.569 84.7022C44.408 83.6076 48.6495 83.0699 52.3593 84.4083V70.639H20.5041ZM52.3519 27.0596V0.00142614C48.8651 -0.0363504 45.3878 0.37147 42.0044 1.21498C33.9399 3.24101 26.7041 7.63538 20.5041 13.2477V27.0582H22.1026V27.6855H20.5041V49.0594H52.3519V27.687H28.6655V27.0596H52.3519ZM93.2588 17.9198C91.2636 17.8492 89.2802 17.2175 87.4863 16.2419C84.0558 14.3761 81.3157 11.495 78.2539 9.06344C71.8923 3.99911 64.0027 0.943182 55.9089 0.185076V27.0596H101.373L101.486 26.9406L93.2588 17.9198ZM97.4005 17.1852L101.792 22.0041V15.9217C100.321 16.1038 99.0328 16.5373 97.4063 17.1793L97.4005 17.1852ZM101.792 92.4272V70.639H92.4346C92.4096 70.5464 92.3846 70.4524 92.3552 70.3584C92.3832 70.4524 92.4067 70.5464 92.4331 70.639H55.9147V86.3961C56.2615 86.6533 56.6038 86.9236 56.9432 87.1983C57.309 87.4922 57.6704 87.8022 58.0333 88.1063L58.3991 88.4089C58.574 88.5559 58.7503 88.7028 58.9281 88.8409C59.2807 89.1269 59.6367 89.409 59.9962 89.6871C60.1739 89.8341 60.3561 89.9663 60.5368 90.1044C63.4057 92.2979 66.4321 94.2773 69.5915 96.0267C70.2996 96.4185 71.0142 96.801 71.7351 97.1742C72.2155 97.4195 72.6988 97.6634 73.1837 97.9C73.9124 98.2555 74.647 98.5983 75.3875 98.9284C82.2143 101.993 89.4332 104.096 96.8378 105.177C98.4823 105.42 100.133 105.611 101.79 105.75V92.4257H101.937L101.792 92.4272ZM55.9147 27.687V49.0594H101.798V27.687H55.9147ZM55.9147 49.6868V70.0116H101.798V49.6868H55.9147ZM105.359 15.8952V22.68L110.964 16.5299C109.107 16.2302 107.239 16.0162 105.359 15.8879V15.8952ZM105.359 49.6941V70.0116H149.986V49.6868L105.359 49.6941ZM149.823 94.0404L149.98 70.639H105.359V105.983C108.234 106.104 111.113 106.07 113.983 105.881H114.033C115.405 105.794 116.769 105.669 118.128 105.505H118.159C125.406 104.661 132.493 102.77 139.198 99.8907M158.591 53.0336C158.424 52.6384 158.249 52.2461 158.071 51.8582C157.739 51.1236 157.388 50.4096 157.026 49.6956H153.544V70.0116H162.348C162.343 64.2583 160.887 58.3815 158.596 53.0262L158.591 53.0336ZM153.544 70.6463V90.7744C156.024 88.3972 158.119 85.6777 159.628 82.5689C161.443 78.8254 162.273 74.7719 162.34 70.6434L153.544 70.6463ZM153.544 43.7718V49.0609H156.7C155.746 47.2401 154.694 45.4721 153.549 43.7644L153.544 43.7718ZM123.279 19.8826C123.047 19.7945 122.815 19.7048 122.581 19.6182C120.117 18.7083 117.6 17.9517 115.043 17.3527L106.465 26.7658L106.301 26.9406L106.411 27.0611H136.938C132.687 24.1345 128.103 21.7224 123.283 19.8753L123.279 19.8826ZM137.833 27.6943H105.985L105.359 28.2673V49.0594H110.845H110.854H149.992V38.9881C146.451 34.7062 142.365 30.9068 137.837 27.687L137.833 27.6943Z" fill="#FF635F"/>
<path opacity="0.1" d="M16.9443 38.468V49.0595H2.08038C2.08038 48.9978 2.09067 48.9346 2.09508 48.8729C2.1083 48.7039 2.12152 48.535 2.13621 48.3675C2.15237 48.1706 2.17 47.9723 2.1891 47.7798C2.2082 47.5873 2.22877 47.3523 2.25081 47.1392C2.27285 46.9262 2.29342 46.7102 2.31839 46.4972C2.34337 46.2842 2.36541 46.0711 2.39185 45.8596C2.4183 45.648 2.44181 45.4335 2.46972 45.2219C2.49176 45.0456 2.51527 44.8708 2.53877 44.6945C2.57256 44.4462 2.60783 44.1964 2.64602 43.9496C2.64602 43.9129 2.65631 43.8747 2.66219 43.8394C2.93034 42.0325 3.29572 40.2414 3.75674 38.4739L16.9443 38.468Z" fill="#FF635F"/>
<path opacity="0.1" d="M2.03338 49.6882H16.9443V70.0116H3.12499C3.08826 70.2203 3.053 70.4304 3.0148 70.6405H16.9443V87.0308C16.9193 87.0235 16.8973 87.0147 16.8737 87.0059C16.48 86.8501 16.0892 86.6856 15.6984 86.5093L15.4486 86.3961C15.0568 86.211 14.6651 86.0151 14.2733 85.8085C14.1366 85.7365 14 85.6615 13.8648 85.5851C11.6898 84.3668 9.71391 82.8229 8.00567 81.0071C7.95571 80.9586 7.9087 80.9072 7.85875 80.8602C7.62074 80.6016 7.38713 80.3401 7.16088 80.0727L6.91111 79.7789C6.64372 79.4512 6.38514 79.1148 6.13391 78.7739C6.09718 78.724 6.06192 78.674 6.02372 78.627C5.00196 77.2103 4.15358 75.6763 3.4967 74.0578C3.47613 74.0093 3.4585 73.9564 3.4394 73.9109C3.23763 73.3918 3.05888 72.8678 2.90314 72.3389C2.83556 72.117 2.77091 71.8981 2.71508 71.6674C2.69452 71.5998 2.67688 71.5337 2.66072 71.4676C1.82622 68.2104 1.72778 64.8268 1.72778 61.4668C1.72778 61.0745 1.72778 60.6808 1.72778 60.2914C1.72778 58.9324 1.74394 57.5646 1.76745 56.1983C1.76745 55.8442 1.78214 55.4916 1.78949 55.136C1.81006 54.2339 1.83944 53.3318 1.87764 52.4298C1.88646 52.1785 1.89821 51.9288 1.91143 51.679C1.91143 51.535 1.91878 51.391 1.93347 51.2471C1.96873 50.724 1.99812 50.2054 2.03338 49.6882Z" fill="#FF635F"/>
<path opacity="0.1" d="M31.7156 30.7474V49.0595H20.5041V30.7474H22.1026V24.5474H28.664V30.7474H31.7156Z" fill="#FF635F"/>
<path opacity="0.1" d="M31.7156 49.6868H20.5056V70.0102H31.7156V49.6868Z" fill="#FF635F"/>
<path opacity="0.1" d="M20.5041 70.6406H31.7156V87.5364C30.3931 87.9164 29.0454 88.2026 27.6826 88.3929L27.3476 88.4341C27.1831 88.4532 27.02 88.4693 26.8584 88.4855C26.6968 88.5017 26.5293 88.5134 26.3662 88.5237H26.3148C26.2443 88.5237 26.1679 88.5325 26.0988 88.534H26.0239C25.9357 88.534 25.8476 88.5428 25.7594 88.5457C25.6346 88.5531 25.5097 88.5546 25.3819 88.556C25.3275 88.556 25.2761 88.556 25.2217 88.556C25.0954 88.556 24.9705 88.556 24.8441 88.556H24.5665C24.4915 88.556 24.4195 88.556 24.3417 88.556L24.0581 88.5457C23.9112 88.5457 23.7525 88.5296 23.5997 88.5193L23.3176 88.4987L22.9665 88.4664C22.7197 88.4444 22.4743 88.4165 22.2319 88.3827L21.9381 88.3415L21.7911 88.321C21.5458 88.2828 21.3034 88.2416 21.0565 88.1946C20.8758 88.1637 20.6966 88.1256 20.5144 88.0888L20.5041 70.6406Z" fill="#FF635F"/>
<path opacity="0.1" d="M101.798 28.5847H92.5536V49.058H101.798V28.5847Z" fill="#FF635F"/>
<path opacity="0.1" d="M101.799 49.6868V70.0117H55.9147V61.2449H80.3548V66.4165H92.5536V49.6868H101.799Z" fill="#FF635F"/>
<path opacity="0.1" d="M101.945 92.4316H101.798V105.765C100.142 105.625 98.4921 105.434 96.8466 105.193C89.4384 104.108 82.2164 102.001 75.3875 98.9314C73.4158 98.044 71.4843 97.0753 69.593 96.0253C66.4337 94.275 63.4068 92.2956 60.5368 90.1029C59.8159 89.5505 59.1044 88.9854 58.4021 88.4075C57.9158 88.0064 57.4324 87.595 56.9432 87.1954C56.6038 86.9207 56.2615 86.6503 55.9147 86.3918V70.6405H92.4316C92.4067 70.5464 92.3817 70.4524 92.3552 70.3599C92.3832 70.4524 92.4096 70.5464 92.4346 70.6405H101.798V92.4228C101.848 92.4243 101.896 92.4287 101.945 92.4316Z" fill="#FF635F"/>
<path opacity="0.1" d="M125.907 27.0597H119.884V25.1879H122.584V19.6123C122.818 19.6975 123.051 19.7852 123.283 19.8753V25.1879H125.907V27.0597Z" fill="#FF635F"/>
<path opacity="0.1" d="M140.42 49.0594H110.848C110.848 49.0594 110.848 49.0594 110.858 49.0668L110.845 49.0594H105.359V28.5862H106.914V43.7189H114.017V34.7568H119.885V27.6885H125.909V34.7627H131.777V43.7248H140.42V49.0594Z" fill="#FF635F"/>
<path opacity="0.1" d="M105.359 49.6868V70.0116H140.42V49.6868H105.359ZM149.938 93.9361L149.986 77.8484H140.42V70.6493H105.359V105.983C108.234 106.104 111.113 106.07 113.983 105.881H114.033C115.405 105.794 116.769 105.669 118.128 105.505H118.159C125.406 104.661 132.493 102.77 139.198 99.8907" fill="#FF635F"/>
<path opacity="0.1" d="M154.167 70.6406H162.346C162.274 74.7676 161.446 78.8211 159.633 82.5646C158.124 85.6749 156.027 88.3944 153.55 90.7701V77.8412H154.167V70.6406Z" fill="#FF635F"/>
<path opacity="0.1" d="M162.351 70.0118H154.167V53.0264H158.596C160.887 58.3816 162.343 64.2584 162.351 70.0118Z" fill="#FF635F"/>
<path opacity="0.1" d="M101.799 34.2764H96.8466V40.6953H101.799V34.2764Z" fill="#FF635F"/>
<path opacity="0.1" d="M101.799 47.5815H96.8466V49.0596H101.799V47.5815Z" fill="#FF635F"/>
<path opacity="0.1" d="M101.799 49.6868H96.8466V53.9989H101.799V49.6868Z" fill="#FF635F"/>
<path opacity="0.1" d="M101.799 60.8865H96.8466V67.3054H101.799V60.8865Z" fill="#FF635F"/>
<path opacity="0.1" d="M101.799 74.1917H96.8466V80.6106H101.799V74.1917Z" fill="#FF635F"/>
<path opacity="0.1" d="M101.798 92.4228C101.848 92.4228 101.896 92.4228 101.945 92.4316H101.798V93.9229H96.8466V87.4966H101.798V92.4228Z" fill="#FF635F"/>
<path opacity="0.1" d="M101.798 100.799V105.757C100.142 105.617 98.4921 105.427 96.8466 105.186V100.799H101.798Z" fill="#FF635F"/>
<path opacity="0.1" d="M77.1402 69.54H55.9147V70.0117H77.1402V69.54Z" fill="#FF635F"/>
<path opacity="0.1" d="M77.1402 70.6392H55.9147V72.4463H77.1402V70.6392Z" fill="#FF635F"/>
<path opacity="0.1" d="M77.1402 78.3699H55.9147V81.276H77.1402V78.3699Z" fill="#FF635F"/>
<path opacity="0.1" d="M77.1388 87.2V90.106H60.5368C59.816 89.5556 59.1039 88.9904 58.4006 88.4106C57.9143 88.0095 57.4324 87.5981 56.9417 87.2H77.1388Z" fill="#FF635F"/>
<path opacity="0.1" d="M77.1388 96.0283V98.9315H75.386C73.4163 98.0431 71.4853 97.0739 69.593 96.0239L77.1388 96.0283Z" fill="#FF635F"/>
<path opacity="0.1" d="M118.163 51.657H113.985V55.8354H118.163V51.657Z" fill="#FF635F"/>
<path opacity="0.1" d="M27.6929 32.1887H23.5145V36.3671H27.6929V32.1887Z" fill="#FF635F"/>
<path opacity="0.1" d="M27.6929 41.8943H23.5145V46.0727H27.6929V41.8943Z" fill="#FF635F"/>
<path opacity="0.1" d="M27.6929 51.5996H23.5145V55.778H27.6929V51.5996Z" fill="#FF635F"/>
<path opacity="0.1" d="M27.6929 61.3037H23.5145V65.4821H27.6929V61.3037Z" fill="#FF635F"/>
<path opacity="0.1" d="M27.6929 71.0093H23.5145V75.1877H27.6929V71.0093Z" fill="#FF635F"/>
<path opacity="0.1" d="M27.6929 80.7148H23.5145V84.8932H27.6929V80.7148Z" fill="#FF635F"/>
<path opacity="0.1" d="M134.114 51.657H129.936V55.8354H134.114V51.657Z" fill="#FF635F"/>
<path opacity="0.1" d="M118.163 61.9634H113.985V66.1418H118.163V61.9634Z" fill="#FF635F"/>
<path opacity="0.1" d="M134.114 61.9634H129.936V66.1418H134.114V61.9634Z" fill="#FF635F"/>
<path opacity="0.1" d="M118.163 72.2683H113.985V76.4467H118.163V72.2683Z" fill="#FF635F"/>
<path opacity="0.1" d="M134.114 72.2683H129.936V76.4467H134.114V72.2683Z" fill="#FF635F"/>
<path opacity="0.1" d="M118.163 82.5747H113.985V86.7531H118.163V82.5747Z" fill="#FF635F"/>
<path opacity="0.1" d="M134.114 82.5747H129.936V86.7531H134.114V82.5747Z" fill="#FF635F"/>
<path opacity="0.1" d="M118.163 92.8813H113.985V97.0597H118.163V92.8813Z" fill="#FF635F"/>
<path opacity="0.1" d="M134.114 92.8813H129.936V97.0597H134.114V92.8813Z" fill="#FF635F"/>
<path opacity="0.1" d="M113.985 105.881V103.186H118.162V105.497L113.985 105.881Z" fill="#FF635F"/>
<path opacity="0.1" d="M2.64453 43.8364V46.2268H16.9442V43.8364H2.64453ZM4.06965 46.077H2.90311V43.9833H4.07847L4.06965 46.077ZM5.49331 46.077H4.31795V43.9833H5.49331V46.077ZM6.91402 46.077H5.73866V43.9833H6.91402V46.077ZM8.33767 46.077H7.16378V43.9833H8.33914L8.33767 46.077ZM9.75986 46.077H8.5845V43.9833H9.75986V46.077ZM11.1835 46.077H10.0082V43.9833H11.1835V46.077ZM12.6072 46.077H11.4318V43.9833H12.6072V46.077ZM14.0293 46.077H12.854V43.9833H14.0293V46.077ZM15.4515 46.077H14.2762V43.9833H15.4515V46.077ZM16.8737 46.077H15.6984V43.9833H16.8737V46.077Z" fill="#FF635F"/>
<path opacity="0.1" d="M2.64453 50.7917V53.1821H16.9442V50.7917H2.64453ZM4.06965 53.0308H2.90311V50.9431H4.07847L4.06965 53.0308ZM5.49331 53.0308H4.31795V50.9431H5.49331V53.0308ZM6.91402 53.0308H5.73866V50.9431H6.91402V53.0308ZM8.33767 53.0308H7.16378V50.9431H8.33914L8.33767 53.0308ZM9.75986 53.0308H8.5845V50.9431H9.75986V53.0308ZM11.1835 53.0308H10.0082V50.9431H11.1835V53.0308ZM12.6072 53.0308H11.4318V50.9431H12.6072V53.0308ZM14.0293 53.0308H12.854V50.9431H14.0293V53.0308ZM15.4515 53.0308H14.2762V50.9431H15.4515V53.0308ZM16.8737 53.0308H15.6984V50.9431H16.8737V53.0308Z" fill="#FF635F"/>
<path opacity="0.1" d="M2.64453 57.7498V60.1445H16.9442V57.7498H2.64453ZM4.06965 59.9888H2.90311V57.8996H4.07847L4.06965 59.9888ZM5.49331 59.9888H4.31795V57.8996H5.49331V59.9888ZM6.91402 59.9888H5.73866V57.8996H6.91402V59.9888ZM8.33767 59.9888H7.16378V57.8996H8.33914L8.33767 59.9888ZM9.75986 59.9888H8.5845V57.8996H9.75986V59.9888ZM11.1835 59.9888H10.0082V57.8996H11.1835V59.9888ZM12.6072 59.9888H11.4318V57.8996H12.6072V59.9888ZM14.0293 59.9888H12.854V57.8996H14.0293V59.9888ZM15.4515 59.9888H14.2762V57.8996H15.4515V59.9888ZM16.8737 59.9888H15.6984V57.8996H16.8737V59.9888Z" fill="#FF635F"/>
<path opacity="0.1" d="M2.64453 64.708V67.0955H16.9442V64.708H2.64453ZM4.06965 66.9471H2.90311V64.8564H4.07847L4.06965 66.9471ZM5.49331 66.9471H4.31795V64.8564H5.49331V66.9471ZM6.91402 66.9471H5.73866V64.8564H6.91402V66.9471ZM8.33767 66.9471H7.16378V64.8564H8.33914L8.33767 66.9471ZM9.75986 66.9471H8.5845V64.8564H9.75986V66.9471ZM11.1835 66.9471H10.0082V64.8564H11.1835V66.9471ZM12.6072 66.9471H11.4318V64.8564H12.6072V66.9471ZM14.0293 66.9471H12.854V64.8564H14.0293V66.9471ZM15.4515 66.9471H14.2762V64.8564H15.4515V66.9471ZM16.8737 66.9471H15.6984V64.8564H16.8737V66.9471Z" fill="#FF635F"/>
<path opacity="0.1" d="M2.70624 71.6646C2.76354 71.8893 2.82818 72.1141 2.89576 72.336V71.8144H4.07112V73.9036H3.44231C3.4614 73.9521 3.4805 74.005 3.4996 74.0505H16.9442V71.6646H2.70624ZM5.49771 73.9036H4.32236V71.8144H5.49771V73.9036ZM6.91843 73.9036H5.74307V71.8144H6.91843V73.9036ZM8.34208 73.9036H7.16378V71.8144H8.33914L8.34208 73.9036ZM9.76426 73.9036H8.58891V71.8144H9.76426V73.9036ZM11.1879 73.9036H10.0126V71.8144H11.1879V73.9036ZM12.6116 73.9036H11.4362V71.8144H12.6116V73.9036ZM14.0338 73.9036H12.8584V71.8144H14.0338V73.9036ZM15.4559 73.9036H14.2806V71.8144H15.4559V73.9036ZM16.8781 73.9036H15.7028V71.8144H16.8781V73.9036Z" fill="#FF635F"/>
<path opacity="0.1" d="M6.02667 78.6226C6.0634 78.6696 6.09866 78.7225 6.13686 78.7695H6.91407V79.7729C6.99781 79.8728 7.08009 79.9727 7.1653 80.0668V78.7636H8.34066V80.8601H7.86464C7.91165 80.9086 7.9572 80.96 8.01156 81.0071H16.9487V78.6226H6.02667ZM9.7599 80.8601H8.58455V78.7724H9.7599V80.8601ZM11.1836 80.8601H10.0082V78.7724H11.1836V80.8601ZM12.6072 80.8601H11.4319V78.7724H12.6072V80.8601ZM14.0294 80.8601H12.854V78.7724H14.0294V80.8601ZM15.4516 80.8601H14.2762V78.7724H15.4516V80.8601ZM16.8738 80.8601H15.6984V78.7724H16.8738V80.8601Z" fill="#FF635F"/>
<path opacity="0.1" d="M13.8707 85.5793C14.0044 85.6557 14.1411 85.7263 14.2792 85.8027V85.7292H15.4545V86.3903L15.7043 86.5064V85.7292H16.8796V87.0001C16.9022 87.0113 16.9258 87.0201 16.9502 87.0265V85.5793H13.8707Z" fill="#FF635F"/>
<path opacity="0.1" d="M92.3552 70.3583C92.3832 70.4524 92.4067 70.5464 92.4331 70.6389C92.4096 70.5464 92.3846 70.4524 92.3552 70.3583ZM22.1085 27.0552V27.6825H28.6714V27.0552H22.1085ZM92.3552 70.3583C92.3832 70.4524 92.4067 70.5464 92.4331 70.6389C92.4096 70.5464 92.3846 70.4524 92.3552 70.3583ZM92.3552 70.3583C92.3832 70.4524 92.4067 70.5464 92.4331 70.6389C92.4096 70.5464 92.3846 70.4524 92.3552 70.3583Z" fill="#FF635F"/>
<path d="M67.8182 55.7811C67.8182 55.7811 67.2393 55.7003 67.2393 54.857C67.2393 54.0136 66.825 52.4387 66.825 52.4387C66.825 52.4313 66.4665 49.6957 65.9714 49.2608C65.4763 48.8259 64.8401 46.2724 64.8401 46.2724C64.8401 46.2724 64.7314 44.887 64.5096 44.5887C64.2877 44.2905 63.988 43.5603 63.5458 42.5186C63.1035 41.477 61.2597 40.7556 61.2597 40.7556C61.2597 40.7556 57.9261 38.8221 56.9814 38.1918C56.8955 38.14 56.8153 38.0795 56.7419 38.0111C56.5774 37.7952 55.8604 37.7907 55.8604 37.7907C55.7855 37.3177 55.7135 36.7741 55.69 36.2819C55.69 36.229 55.69 36.1761 55.6826 36.1232C56.736 35.5005 57.5295 34.5188 57.9173 33.3582C57.9349 33.3023 57.9496 33.2436 57.9657 33.1877C58.0289 33.167 58.0869 33.1332 58.1363 33.0887C58.1856 33.0442 58.2251 32.9898 58.2522 32.9292C58.3375 32.7396 58.3389 32.5178 58.4447 32.3415C58.5681 32.1329 58.8032 32.0212 58.9883 31.864C59.4555 31.4673 59.576 30.7988 59.5539 30.1906C59.5393 29.6984 59.4599 29.2018 59.4908 28.7126L59.4996 28.5892C59.5084 28.5157 59.5187 28.4422 59.5319 28.3717C59.6039 28.0074 59.7611 27.6636 59.8493 27.3021C59.9374 26.9407 59.9462 26.5338 59.7405 26.2223C59.4393 25.7654 58.812 25.6743 58.2611 25.6273C57.6366 25.5744 57.0783 25.6434 56.6787 25.1248C56.4917 24.8537 56.2813 24.5996 56.0499 24.3652C55.9676 24.2888 55.1684 23.801 55.1684 23.7687C54.3883 23.4074 53.5041 23.3396 52.6781 23.5777C52.2638 23.6982 51.873 23.8951 51.4528 23.9935C50.5463 24.208 49.5032 23.9759 48.7333 24.4945C48.3043 24.7883 48.0472 25.2555 47.8062 25.711C47.6103 26.0861 47.4115 26.4608 47.2097 26.8349C46.8851 27.4505 46.5545 28.0764 46.4178 28.7581C46.3891 28.9065 46.3714 29.0567 46.365 29.2077V29.215C46.365 29.2694 46.365 29.3238 46.365 29.3781V29.4472C46.365 29.4986 46.365 29.5485 46.3738 29.5941C46.3826 29.6396 46.3811 29.6543 46.3855 29.6852C46.3899 29.716 46.3973 29.7851 46.4061 29.8321C46.4149 29.8791 46.4325 29.9614 46.4502 30.026C46.4575 30.0539 46.4678 30.0804 46.4766 30.1068C46.4913 30.1568 46.5089 30.2053 46.528 30.2538C46.5383 30.2787 46.5486 30.3052 46.5604 30.3302C46.5824 30.3816 46.6088 30.4315 46.6353 30.4771C46.647 30.4976 46.6559 30.5167 46.6676 30.5358C46.7086 30.6042 46.7537 30.6699 46.8028 30.7327C47.1172 31.125 47.58 31.3748 47.9223 31.7421C47.9223 31.7567 47.9223 31.7714 47.9223 31.7847C47.9223 31.8258 47.9223 31.8655 47.9223 31.9066C47.9405 32.7258 48.1585 33.5281 48.5574 34.2438C48.9564 34.9594 49.5241 35.5668 50.2113 36.013C50.2113 36.0688 50.2187 36.1261 50.2216 36.182C50.2502 36.6181 50.2448 37.0558 50.2054 37.491C50.1456 37.4206 50.0707 37.3644 49.9863 37.3268C49.9019 37.2892 49.8101 37.271 49.7177 37.2736C49.6545 37.2705 49.5913 37.2759 49.5296 37.2898L49.5164 37.2795V37.2927C49.1932 37.372 48.795 37.7085 48.4145 38.6649C48.4145 38.6649 47.2568 39.9696 46.3752 39.9152C45.4937 39.8608 43.262 41.2727 43.262 41.2727C43.262 41.2727 41.0847 42.6861 40.6175 44.1259C40.3563 44.9424 40.0432 45.7413 39.6801 46.5178L36.9885 52.064L36.4919 56.4643C36.4919 56.4643 36.7667 58.4212 36.7123 58.7195C36.658 59.0177 37.8421 61.7078 37.8421 61.7078C37.8421 61.7078 41.7546 68.5822 43.3531 68.9348L43.4677 68.854C43.5361 68.8897 43.6086 68.9169 43.6837 68.9348L44.0128 68.7027C44.0325 68.9614 44.0242 69.2215 43.9878 69.4784C43.7674 70.1572 44.0701 74.5868 44.455 75.4551C44.8399 76.3234 44.7033 87.7082 44.7033 87.7082L44.6489 88.7132C44.6489 88.7132 44.6489 88.7455 44.6622 88.8013L44.6489 89.0393L44.6886 89.0599C44.7298 89.3786 44.7164 89.7021 44.6489 90.0163C44.5108 90.4571 44.455 91.703 44.455 91.703C44.455 91.703 43.3546 98.7375 43.8761 100.151C44.3977 101.564 44.8414 103.113 44.8414 103.113C44.8414 103.113 45.3923 104.876 44.8678 105.177C44.3433 105.478 42.8521 105.984 43.1592 106.718C43.4383 107.397 44.4976 109.216 44.6548 109.482L44.6416 109.621L44.4256 111.962C44.4606 112.271 44.5444 112.572 44.6739 112.855C44.9104 113.365 45.3703 113.894 46.2445 113.836C46.3914 113.826 46.5618 113.809 46.7264 113.786C48.3263 113.572 50.2965 112.858 50.2965 112.858C50.1942 112.793 50.1005 112.715 50.0174 112.627C49.9387 112.551 49.8764 112.46 49.8342 112.359C49.7921 112.258 49.7709 112.149 49.772 112.04C49.7955 111.614 48.9978 109.583 48.7994 109.084C48.7686 109.012 48.7524 108.97 48.7524 108.97C48.7524 108.97 50.5713 107.069 50.2686 105.384C50.2686 105.384 48.2558 104.209 48.9184 103.564C49.581 102.919 50.7652 101.066 50.7652 101.066C50.7652 101.066 50.8196 94.1389 50.7652 93.1046C50.7085 92.3867 50.7426 91.6645 50.8666 90.9551C50.8886 90.8479 50.9151 90.7436 50.943 90.6407C51.8593 90.7775 52.7844 90.8477 53.7109 90.8508C54.0489 90.8508 54.3927 90.8508 54.7394 90.8303C54.7394 90.9282 54.7438 91.034 54.7526 91.1476C54.829 92.8636 54.9715 95.8725 55.0876 96.9906C55.2521 98.5935 56.1616 102.913 56.1616 102.913C56.1616 102.913 54.4264 104.027 56.4642 106.771C56.4642 106.771 56.4642 107.766 56.3291 107.91C56.1848 108.38 56.0685 108.859 55.9809 109.344C55.8956 109.861 55.8604 110.384 55.9985 110.656C56.3291 111.305 58.3125 111.252 58.3125 111.252L58.361 111.243C58.7354 111.205 59.1138 111.241 59.4742 111.349C59.8346 111.458 60.1698 111.637 60.4604 111.877C61.2141 112.482 64.0747 112.216 65.6232 112.023C66.23 111.947 66.6355 111.877 66.6355 111.877C66.6551 111.808 66.6621 111.736 66.656 111.665C66.6399 111.284 66.3416 110.45 64.32 109.705C64.32 109.705 62.4189 108.427 62.4453 107.313H62.4057H62.1853C62.3454 107.304 62.4483 107.313 62.4483 107.313C62.4483 107.313 61.7034 104.595 62.0075 104.375C62.3116 104.154 61.4007 101.143 61.4007 101.143C61.4007 101.143 60.8792 96.0885 60.8512 95.7344C60.8524 95.4306 60.8985 95.1286 60.9879 94.8382L60.8512 92.0673C60.8512 92.0673 60.8248 91.1461 60.8512 90.8464C60.8468 90.5863 60.8257 90.3267 60.7881 90.0692C60.7748 89.9664 60.7616 89.8591 60.7469 89.7533C61.4595 89.5726 61.9223 89.4051 61.9223 89.4051L61.84 79.7599C62.4453 78.5845 62.557 76.0061 62.554 74.1769C62.554 73.0015 62.5012 72.1318 62.5012 72.1318L63.3283 70.7816C63.3283 70.7816 63.5193 69.1655 63.2167 68.8114C63.083 68.6512 63.1432 68.4852 63.2534 68.3486C63.3106 68.3032 63.371 68.262 63.4341 68.2252C63.4341 68.2252 63.4253 68.212 63.415 68.1929C63.4728 68.1446 63.5342 68.1009 63.5986 68.0621C63.5986 68.0621 63.3048 67.6066 63.5678 67.4142C63.8146 67.5817 64.035 67.708 64.2025 67.8109C64.1907 67.9181 64.179 67.9798 64.179 67.9798L64.2495 67.8329C64.4111 67.924 64.5096 67.9798 64.5096 67.9798C64.5096 67.9798 65.8054 65.3984 65.7775 65.0179C65.7496 64.6374 66.659 63.0345 66.659 63.0345C66.659 63.0345 66.7692 62.1927 67.2658 61.84C67.7624 61.4874 67.6507 58.9325 67.6507 58.9325C67.6507 58.9325 67.7888 57.6014 68.1194 57.0578C68.4499 56.5142 67.8182 55.7811 67.8182 55.7811ZM43.024 54.6483L43.049 55.2639C42.9021 55.0274 42.7963 54.857 42.7963 54.857L43.024 54.6483Z" fill="url(#paint0_linear_25_603)"/>
<path d="M64.5801 66.8647L64.2627 68.2164C64.2627 68.2164 61.721 66.9191 61.2626 65.2707C60.8042 63.6222 62.0296 62.9963 62.0296 62.9963L64.3979 63.9998L64.5801 66.8647Z" fill="white"/>
<path opacity="0.1" d="M64.5801 66.8647L64.2627 68.2164C64.2627 68.2164 61.721 66.9191 61.2626 65.2707C60.8042 63.6222 62.0296 62.9963 62.0296 62.9963L64.3979 63.9998L64.5801 66.8647Z" fill="black"/>
<path d="M50.3156 112.867C50.3156 112.867 47.9649 113.731 46.3488 113.839C45.4908 113.897 45.0397 113.371 44.8076 112.864C44.6808 112.582 44.599 112.282 44.5652 111.975L44.7753 109.646L44.8869 108.406L48.3205 107.514L48.8068 109.001L48.8523 109.114C49.0477 109.611 49.8308 111.631 49.8073 112.053C49.8063 112.161 49.8272 112.268 49.8686 112.368C49.91 112.467 49.9711 112.558 50.0482 112.633C50.1271 112.722 50.2169 112.801 50.3156 112.867Z" fill="white"/>
<path d="M66.3725 111.682C66.3784 111.753 66.3714 111.824 66.3519 111.893C66.3519 111.893 61.3243 112.731 60.2959 111.893C60.0059 111.648 59.6679 111.466 59.3036 111.359C58.9393 111.252 58.5566 111.223 58.1802 111.273C58.1802 111.273 56.235 111.325 55.9103 110.685C55.7752 110.416 55.8104 109.894 55.8942 109.38C55.9796 108.898 56.0934 108.422 56.235 107.954L56.3129 107.892L56.7757 107.52L62.1941 107.36H62.2352C62.2088 108.468 64.0747 109.739 64.0747 109.739C66.0566 110.473 66.349 111.303 66.3725 111.682Z" fill="white"/>
<path opacity="0.1" d="M66.3725 111.683C66.3776 111.753 66.3702 111.825 66.3504 111.893C66.3504 111.893 61.3243 112.732 60.2959 111.893C60.0061 111.648 59.6683 111.466 59.3043 111.359C58.9402 111.253 58.5578 111.223 58.1817 111.273C58.1817 111.273 56.235 111.326 55.9118 110.685C55.7766 110.415 55.8104 109.895 55.8942 109.38C56.6434 109.455 57.8262 109.642 58.2904 110.087C58.9927 110.764 60.1827 111.44 60.9129 111.493C61.4845 111.53 64.9033 111.639 66.3725 111.683Z" fill="black"/>
<path opacity="0.1" d="M50.3156 112.867C50.3156 112.867 47.9649 113.731 46.3488 113.839C45.4908 113.897 45.0397 113.371 44.8091 112.862C45.407 113.064 46.2371 113.275 46.6735 113.081C47.1907 112.852 49.0242 112.704 50.0526 112.64C50.1309 112.726 50.2192 112.802 50.3156 112.867Z" fill="black"/>
<path d="M53.8035 43.2488C51.8642 42.4951 49.3695 40.0048 49.9924 38.8412C50.1308 38.5476 50.213 38.2306 50.2348 37.9068C50.2749 37.4671 50.2808 37.0251 50.2524 36.5845C50.2088 35.863 50.1219 35.1447 49.9924 34.4336C49.9924 34.4336 56.047 34.5702 55.6944 35.462C55.5915 35.7235 55.5754 36.1775 55.6033 36.6859C55.6312 37.1942 55.7046 37.7687 55.781 38.255C55.8868 38.922 55.9926 39.4303 55.9926 39.4303C55.9926 39.4303 55.6224 39.949 55.4049 39.9769C55.1875 40.0048 56.5862 44.3228 53.8035 43.2488Z" fill="#CF6F80"/>
<path opacity="0.1" d="M48.8479 109.114L48.8024 109.164C46.9923 106.975 44.8032 109.704 44.8032 109.704L44.7709 109.646L44.8825 108.406L48.316 107.514L48.8024 109.001L48.8479 109.114Z" fill="black"/>
<path opacity="0.1" d="M62.2367 107.514C62.2367 107.514 60.9144 107.486 60.2092 108.109C59.504 108.732 56.0955 108.245 56.2424 108.109C56.2859 108.042 56.3122 107.966 56.3188 107.886L56.7816 107.514L62.2 107.354C62.2205 107.453 62.2367 107.514 62.2367 107.514Z" fill="black"/>
<path d="M51.1002 90.3233C51.0017 90.5668 50.9269 90.8192 50.8769 91.077C50.7543 91.7831 50.7203 92.5017 50.7755 93.2161C50.8298 94.2446 50.7755 101.137 50.7755 101.137C50.7755 101.137 49.6133 102.975 48.9654 103.622C48.3175 104.27 50.2877 105.434 50.2877 105.434C50.5815 107.109 48.8009 109.001 48.8009 109.001C46.9908 106.812 44.8017 109.542 44.8017 109.542C44.8017 109.542 43.6117 107.485 43.3149 106.75C43.0181 106.016 44.477 105.507 44.9898 105.209C45.5025 104.911 44.9648 103.152 44.9648 103.152C44.9648 103.152 44.5314 101.611 44.0172 100.205C43.5029 98.7991 44.5843 91.7998 44.5843 91.7998C44.5843 91.7998 44.6401 90.5569 44.7738 90.1235C44.8413 89.8107 44.8547 89.4887 44.8135 89.1715C44.8047 89.0642 44.7944 88.9746 44.787 88.9143C44.7797 88.8541 44.7738 88.8262 44.7738 88.8262L44.7944 88.7909L45.529 87.4216C45.529 87.4216 51.4528 89.4609 51.1002 90.3233Z" fill="#FF635F"/>
<path d="M62.2367 107.353C62.2367 107.353 60.9144 107.325 60.2092 107.941C59.504 108.556 56.0954 108.076 56.2424 107.941C56.3893 107.805 56.3775 106.805 56.3775 106.805C54.3779 104.075 56.0837 102.967 56.0837 102.967C56.0837 102.967 55.1904 98.6699 55.0288 97.0759C54.9157 95.9622 54.7761 92.9695 54.7012 91.2608C54.6689 90.5262 54.6497 90.0208 54.6497 90.0208L56.2835 89.6917L56.4936 89.6491L60.434 88.8586C60.434 88.8586 60.5427 89.5932 60.6162 90.1941C60.6528 90.4507 60.6734 90.7093 60.6779 90.9684C60.6514 91.2622 60.6779 92.182 60.6779 92.182L60.8116 94.9397C60.7242 95.2289 60.6792 95.5293 60.6779 95.8315C60.7043 96.1826 61.2171 101.21 61.2171 101.21C61.2171 101.21 62.1089 104.21 61.8047 104.426C61.5006 104.642 62.2367 107.353 62.2367 107.353Z" fill="#FF635F"/>
<path opacity="0.1" d="M55.6944 35.462C55.5915 35.7235 55.5754 36.1775 55.6033 36.6859C54.7923 37.1742 53.86 37.4239 52.9135 37.4062C51.967 37.3886 51.0446 37.1043 50.2524 36.586C50.2088 35.864 50.122 35.1452 49.9924 34.4336C49.9924 34.4336 56.047 34.5673 55.6944 35.462Z" fill="black"/>
<path d="M58.0348 32.2151C58.036 32.7445 57.9527 33.2708 57.788 33.7739C57.4199 34.9013 56.6651 35.8623 55.657 36.487C54.6489 37.1118 53.4524 37.36 52.279 37.1879C51.1056 37.0157 50.0308 36.4343 49.2446 35.5464C48.4583 34.6585 48.0113 33.5212 47.9825 32.3356C47.9825 32.2944 47.9825 32.2562 47.9825 32.2151C47.9711 31.5477 48.0927 30.8848 48.3402 30.2649C48.5877 29.645 48.9562 29.0806 49.4241 28.6046C49.892 28.1286 50.45 27.7506 51.0656 27.4925C51.6812 27.2345 52.3419 27.1016 53.0094 27.1016C53.6769 27.1016 54.3377 27.2345 54.9532 27.4925C55.5688 27.7506 56.1268 28.1286 56.5947 28.6046C57.0626 29.0806 57.4311 29.645 57.6786 30.2649C57.9261 30.8848 58.0477 31.5477 58.0363 32.2151H58.0348Z" fill="#CF6F80"/>
<path opacity="0.1" d="M53.8035 43.2487C51.8642 42.495 49.3695 40.0048 49.9924 38.8411C50.1308 38.5475 50.213 38.2306 50.2348 37.9067L52.8897 40.0885L54.5322 41.4358L55.781 38.2564C55.8868 38.9234 55.9926 39.4318 55.9926 39.4318C55.9926 39.4318 55.6224 39.9504 55.4049 39.9783C55.1875 40.0062 56.5862 44.3227 53.8035 43.2487Z" fill="black"/>
<path d="M60.6691 52.891L58.4521 90.1352L55.5607 90.3247L48.0736 68.729L49.3019 43.09L49.5605 37.6731L52.8897 40.4073L54.5337 41.7545L55.8193 38.4826L58.2096 40.5659L60.6691 52.891Z" fill="#FF635F"/>
<path opacity="0.1" d="M51.1002 90.3233C51.0017 90.5667 50.9269 90.8191 50.8768 91.077C48.7729 90.7521 46.7296 90.1138 44.8149 89.1832L44.7753 89.1626L44.7885 88.9261L44.7958 88.8026L45.5304 87.4333C45.5304 87.4333 51.4528 89.4608 51.1002 90.3233Z" fill="black"/>
<path opacity="0.1" d="M56.3173 91.083C55.7794 91.1744 55.237 91.2362 54.6924 91.2681C54.66 90.5335 54.6409 90.0281 54.6409 90.0281L56.2747 89.699L56.3173 91.083Z" fill="black"/>
<path opacity="0.1" d="M60.6074 90.2015C59.5628 90.4733 57.9496 90.7789 56.5054 90.5879L56.4848 89.6564L60.4252 88.866C60.4252 88.866 60.5339 89.5932 60.6074 90.2015Z" fill="black"/>
<path opacity="0.1" d="M56.4789 90.7581C50.4552 91.7866 44.9384 88.8379 44.9384 88.8379L44.9913 87.8388C44.9913 87.8388 45.1279 76.5128 44.7488 75.6445C44.3698 74.7762 44.0745 70.373 44.289 69.6972C44.5035 69.0213 43.5059 58.8868 43.5059 58.8868L43.3443 54.7731L37.4293 52.3768L40.0738 46.8644C40.431 46.0915 40.7382 45.2965 40.9936 44.4843C41.4534 43.0533 43.5882 41.6472 43.5882 41.6472C43.5882 41.6472 45.7773 40.2427 46.6426 40.2956C47.508 40.3485 48.6422 39.0526 48.6422 39.0526C49.4797 36.9179 50.2378 37.8846 50.2378 37.8846C50.2378 37.986 50.2378 37.8846 50.1966 38.2005C49.9028 40.5439 54.948 47.9486 55.02 48.0794L55.5004 59.783L55.9867 74.594L56.4789 90.7581Z" fill="black"/>
<path d="M56.3173 90.7581C50.2936 91.7866 44.7753 88.8379 44.7753 88.8379L44.8296 87.8388C44.8296 87.8388 44.9663 76.5128 44.5858 75.6445C44.2052 74.7762 43.9114 70.373 44.1274 69.6972C44.3433 69.0214 43.3443 58.8868 43.3443 58.8868L43.1812 54.7731L37.2633 52.368L39.9078 46.8556C40.2642 46.0824 40.5714 45.2874 40.8276 44.4755C41.2859 43.0445 43.4222 41.6384 43.4222 41.6384C43.4222 41.6384 45.6113 40.2339 46.4751 40.2868C47.339 40.3397 48.4747 39.0438 48.4747 39.0438C49.3136 36.9091 50.2378 37.8758 50.2378 37.8758C50.2378 37.9772 50.1496 38.0227 50.1966 38.1917C50.8431 40.4646 54.7864 47.9398 54.8584 48.0706L55.3447 59.7742L55.831 74.5852L56.3173 90.7581Z" fill="white"/>
<path opacity="0.1" d="M54.6938 48.4041C54.0459 48.1338 50.6139 44.2154 50.6139 44.2154V43.3236C50.489 43.0298 49.7471 43.209 49.1447 43.4147L49.4033 37.9978L49.6971 38.2417C50.3406 40.5131 54.6189 48.2734 54.6938 48.4041Z" fill="black"/>
<path d="M54.8569 48.0794C54.2075 47.8091 50.7755 43.8907 50.7755 43.8907V42.9989C50.6506 42.7051 49.9086 42.8843 49.3063 43.09L49.5663 37.6731L49.8602 37.917C50.5051 40.1884 54.7849 47.9501 54.8569 48.0794Z" fill="white"/>
<path opacity="0.1" d="M44.9384 67.6214C45.0192 67.6214 49.127 67.1895 49.127 67.1895C49.127 67.1895 51.6144 72.0804 51.4513 73.2705C51.2882 74.4605 50.9929 75.5139 49.9924 75.3273C48.9919 75.1408 44.6078 75.4743 44.6078 75.4743L44.9384 67.6214Z" fill="black"/>
<path d="M44.7753 67.2967C44.8561 67.2967 48.964 66.8647 48.964 66.8647C48.964 66.8647 51.4498 71.7572 51.2882 72.9458C51.1266 74.1343 50.8284 75.1892 49.8293 75.0026C48.8303 74.816 44.4447 75.1496 44.4447 75.1496L44.7753 67.2967Z" fill="white"/>
<path d="M47.8709 65.0002C47.8709 65.0002 51.6408 67.0263 51.7217 67.6448C51.8025 68.2633 49.8029 67.3745 49.3709 67.2672C49.0866 67.1987 48.7972 67.1535 48.5056 67.1321L45.6245 67.2099L47.8709 65.0002Z" fill="#CF6F80"/>
<path opacity="0.1" d="M53.6419 48.6569C53.861 48.6569 54.0386 48.4793 54.0386 48.2602C54.0386 48.0411 53.861 47.8635 53.6419 47.8635C53.4228 47.8635 53.2452 48.0411 53.2452 48.2602C53.2452 48.4793 53.4228 48.6569 53.6419 48.6569Z" fill="black"/>
<path d="M53.6419 48.4953C53.861 48.4953 54.0386 48.3177 54.0386 48.0986C54.0386 47.8795 53.861 47.7019 53.6419 47.7019C53.4228 47.7019 53.2452 47.8795 53.2452 48.0986C53.2452 48.3177 53.4228 48.4953 53.6419 48.4953Z" fill="#3F3D56"/>
<path opacity="0.1" d="M54.3721 65.8288C54.5912 65.8288 54.7688 65.6512 54.7688 65.4321C54.7688 65.213 54.5912 65.0354 54.3721 65.0354C54.153 65.0354 53.9754 65.213 53.9754 65.4321C53.9754 65.6512 54.153 65.8288 54.3721 65.8288Z" fill="black"/>
<path d="M54.3721 65.6659C54.5912 65.6659 54.7688 65.4883 54.7688 65.2692C54.7688 65.0502 54.5912 64.8726 54.3721 64.8726C54.153 64.8726 53.9754 65.0502 53.9754 65.2692C53.9754 65.4883 54.153 65.6659 54.3721 65.6659Z" fill="#3F3D56"/>
<path opacity="0.1" d="M54.0371 57.2428C54.2562 57.2428 54.4338 57.0652 54.4338 56.8461C54.4338 56.6271 54.2562 56.4495 54.0371 56.4495C53.818 56.4495 53.6404 56.6271 53.6404 56.8461C53.6404 57.0652 53.818 57.2428 54.0371 57.2428Z" fill="black"/>
<path d="M54.0371 57.0812C54.2562 57.0812 54.4338 56.9036 54.4338 56.6845C54.4338 56.4654 54.2562 56.2878 54.0371 56.2878C53.818 56.2878 53.6404 56.4654 53.6404 56.6845C53.6404 56.9036 53.818 57.0812 54.0371 57.0812Z" fill="#3F3D56"/>
<path d="M63.1814 67.0497C63.1814 67.0497 63.4517 67.4552 63.1814 67.6448C62.9111 67.8343 63.2078 68.2927 63.2078 68.2927C63.2078 68.2927 62.5335 68.6879 62.8303 69.0434C63.127 69.399 62.939 71.0048 62.939 71.0048L62.128 72.3477C62.128 72.3477 62.1765 73.213 62.1794 74.3825C62.1794 76.2072 62.0721 78.7725 61.4786 79.9419L61.5609 89.5373C61.5609 89.5373 58.7209 90.5745 56.3437 90.2587L55.9911 74.8615C55.9911 74.8615 56.5054 66.13 56.6949 64.4551C56.8058 63.5856 56.851 62.7089 56.83 61.8326C56.83 61.8326 56.7492 59.2116 56.4774 57.9951C56.4774 57.9951 56.1836 52.7251 56.1542 51.2661C56.141 50.5683 56.1777 48.532 56.2189 46.5956C56.2644 44.4784 56.3158 42.4818 56.3158 42.4818L55.7796 38.2388C55.7796 38.2388 56.3158 38.1844 56.4774 38.4004C56.5498 38.468 56.6286 38.5285 56.7125 38.5811C57.6381 39.207 60.9085 41.1316 60.9085 41.1316C60.9085 41.1316 62.7186 41.8515 63.152 42.8829C63.5854 43.9143 63.8866 44.6459 64.0967 44.9398C64.3068 45.2336 64.4214 46.6147 64.4214 46.6147C64.4214 46.6147 65.0443 49.1564 65.5306 49.5868C66.0169 50.0173 66.3725 52.7559 66.3725 52.7559L62.0751 56.1351C62.0751 56.1351 61.6975 61.7562 61.6167 61.9737C61.5359 62.1911 63.1814 67.0497 63.1814 67.0497Z" fill="white"/>
<path d="M63.3445 67.0499C63.3445 67.0499 63.6133 67.4554 63.3445 67.6449C63.0756 67.8344 63.3695 68.2928 63.3695 68.2928C63.3695 68.2928 62.6995 68.6925 62.9933 69.048C63.2872 69.4035 63.1021 71.0094 63.1021 71.0094L62.2911 72.3522C62.2911 72.3522 62.3395 73.2176 62.3439 74.3871C62.3439 76.2118 62.2367 78.777 61.6431 79.9465L61.7239 89.5419C61.7239 89.5419 58.8796 90.5791 56.5054 90.2632L56.1542 74.866C56.1542 74.866 56.6684 66.1346 56.858 64.4597C56.969 63.5902 57.0137 62.7135 56.9917 61.8372C56.9917 61.8372 56.9109 59.2161 56.6405 57.9996C56.6405 57.9996 56.3467 52.7296 56.3158 51.2707C56.3026 50.5728 56.3408 48.5365 56.3805 46.6001C56.426 44.483 56.4774 42.4864 56.4774 42.4864L55.7693 38.186C55.7693 38.186 56.4774 38.186 56.6405 38.4049C56.7122 38.4734 56.791 38.5339 56.8756 38.5857C57.8012 39.2115 61.0731 41.1362 61.0731 41.1362C61.0731 41.1362 62.8817 41.8561 63.3151 42.8875C63.7485 43.9188 64.0497 44.6505 64.2613 44.9443C64.4728 45.2382 64.5845 46.6192 64.5845 46.6192C64.5845 46.6192 65.2074 49.1609 65.6937 49.5914C66.18 50.0219 66.5312 52.7546 66.5312 52.7546L62.2338 56.1338C62.2338 56.1338 61.8562 61.7549 61.7739 61.9724C61.6916 62.1898 63.3445 67.0499 63.3445 67.0499Z" fill="white"/>
<path opacity="0.1" d="M58.1979 43.7335L58.5857 44.8648L56.5436 46.9217C56.5891 44.806 56.6405 42.8079 56.6405 42.8079L55.9324 38.5076C55.9324 38.5076 56.6405 38.5076 56.8036 38.7265C56.8751 38.7947 56.954 38.8548 57.0387 38.9057L58.7753 43.9157L58.1979 43.7335Z" fill="black"/>
<path d="M58.0348 43.409L58.4241 44.5403L56.3819 46.5972C56.4275 44.4801 56.4789 42.4835 56.4789 42.4835L55.7693 38.1831C55.7693 38.1831 56.4789 38.1831 56.6405 38.402C56.7126 38.47 56.7913 38.5306 56.8756 38.5827L58.6137 43.5912L58.0348 43.409Z" fill="white"/>
<path opacity="0.1" d="M58.0348 32.2151C58.036 32.7445 57.9527 33.2708 57.788 33.7739C57.7602 33.7783 57.7319 33.777 57.7046 33.7702C57.6774 33.7633 57.6518 33.7511 57.6293 33.7342C57.5911 32.412 56.9402 31.1705 56.1395 30.1141C55.9147 29.7952 55.6422 29.5128 55.3315 29.2767C55.0173 29.0408 54.6266 28.9303 54.2355 28.9667C53.7947 29.0269 53.4054 29.3267 52.9602 29.3649C52.3725 29.4133 51.8465 29.0064 51.2633 28.9858C51.0262 28.9881 50.7922 29.0409 50.5771 29.1407C50.3621 29.2405 50.1707 29.385 50.0159 29.5647C49.7095 29.9272 49.4818 30.3494 49.3474 30.8047C49.1164 31.495 48.9906 32.2161 48.9743 32.9438C48.9669 33.3552 48.9272 33.8709 48.5453 34.0207C48.574 33.7182 48.5396 33.413 48.4443 33.1244C48.3489 32.8359 48.1947 32.5702 47.9914 32.3444L47.9825 32.3356C47.9825 32.2944 47.9825 32.2562 47.9825 32.2151C47.9711 31.5477 48.0927 30.8848 48.3402 30.2649C48.5877 29.645 48.9562 29.0806 49.4241 28.6046C49.892 28.1286 50.45 27.7506 51.0656 27.4925C51.6812 27.2345 52.3419 27.1016 53.0094 27.1016C53.6769 27.1016 54.3377 27.2345 54.9532 27.4925C55.5688 27.7506 56.1268 28.1286 56.5947 28.6046C57.0626 29.0806 57.4311 29.645 57.6786 30.2649C57.9261 30.8848 58.0477 31.5477 58.0363 32.2151H58.0348Z" fill="black"/>
<path d="M55.0905 24.233C54.3271 23.8739 53.4587 23.806 52.6487 24.042C52.2418 24.1625 51.8583 24.3579 51.4454 24.4564C50.5639 24.6694 49.5355 24.4387 48.7789 24.9544C48.3587 25.2483 48.106 25.7125 47.8709 26.1636L47.2832 27.2831C46.9629 27.8958 46.6397 28.5187 46.506 29.1931C46.3723 29.8674 46.4531 30.6226 46.8806 31.1647C47.1921 31.5599 47.652 31.8082 47.9899 32.1799C48.1923 32.406 48.3459 32.6715 48.441 32.9597C48.536 33.2479 48.5705 33.5527 48.5423 33.8548C48.9258 33.7079 48.9625 33.1907 48.9713 32.7794C48.9877 32.0516 49.1135 31.3305 49.3445 30.6402C49.4786 30.1849 49.7063 29.7625 50.013 29.4002C50.1679 29.2207 50.3593 29.0763 50.5743 28.9765C50.7894 28.8767 51.0232 28.8238 51.2603 28.8213C51.848 28.8419 52.3755 29.2474 52.9573 29.1989C53.398 29.1622 53.7888 28.861 54.2325 28.8022C54.6237 28.7652 55.0147 28.8758 55.3285 29.1122C55.6392 29.3479 55.9113 29.6305 56.1351 29.9497C56.9373 31.006 57.5882 32.2446 57.6264 33.5698C57.7924 33.6917 58.0319 33.5331 58.1141 33.345C58.1964 33.1569 58.1993 32.9366 58.3037 32.7573C58.4241 32.5502 58.6548 32.44 58.8355 32.2842C59.2939 31.889 59.4085 31.2235 59.3909 30.6196C59.3732 30.0158 59.2557 29.4031 59.3703 28.8096C59.4394 28.4452 59.5951 28.1044 59.6803 27.7444C59.7655 27.3845 59.7758 26.9804 59.5745 26.6704C59.2807 26.215 58.6621 26.1254 58.123 26.0828C57.5103 26.0299 56.9623 26.0975 56.5715 25.5818C56.388 25.3127 56.1816 25.06 55.9544 24.8266C55.8765 24.7502 55.0905 24.2654 55.0905 24.233Z" fill="#512E4E"/>
<path opacity="0.1" d="M39.1218 55.2154L37.5865 52.377L37.1002 56.7566C37.1002 56.7566 37.3705 58.7018 37.3162 59.0001C37.2618 59.2983 38.4239 61.9723 38.4239 61.9723C38.4239 61.9723 42.263 68.8099 43.8306 69.1625L49.127 65.3779L47.7225 63.5943C47.7225 63.5943 47.2362 63.4048 47.1142 63.5943C47.1142 63.5943 44.5064 59.1074 44.2361 58.7827C43.9657 58.458 44.0186 57.81 44.0186 57.81C44.0186 57.81 43.6131 57.3781 43.7483 56.9726C43.8835 56.5671 42.9652 55.1611 42.9652 55.1611L43.8027 54.378L39.1218 55.2154Z" fill="black"/>
<path d="M37.6673 52.0537L37.2618 52.3769L36.7755 56.7566C36.7755 56.7566 37.0458 58.7018 36.9915 59.0001C36.9371 59.2983 38.1007 61.9723 38.1007 61.9723C38.1007 61.9723 41.9382 68.8099 43.5059 69.1625L48.8038 65.3779L47.3978 63.5943C47.3978 63.5943 46.9115 63.4047 46.7895 63.5943C46.7895 63.5943 44.1817 59.1073 43.9114 58.7826C43.641 58.4579 43.6954 57.81 43.6954 57.81C43.6954 57.81 43.2899 57.3781 43.4251 56.9726C43.5602 56.5671 42.6405 55.1611 42.6405 55.1611L43.478 54.378L37.6673 52.0537Z" fill="white"/>
<path opacity="0.1" d="M62.8302 69.2109C63.1241 69.5679 62.939 71.1708 62.939 71.1708L62.128 72.5136C62.128 72.5136 62.1764 73.3805 62.1794 74.5485L60.816 74.9745C60.6928 75.013 60.5621 75.0215 60.435 74.9992C60.3078 74.9769 60.1878 74.9246 60.085 74.8465C59.9822 74.7684 59.8996 74.6669 59.844 74.5504C59.7884 74.4339 59.7615 74.3058 59.7655 74.1768L60.0006 66.5942L63.1814 67.8107C62.911 67.9988 63.2078 68.4601 63.2078 68.4601C63.2078 68.4601 62.5335 68.8539 62.8302 69.2109Z" fill="black"/>
<path d="M62.9933 69.0478C63.2872 69.4048 63.1021 71.0092 63.1021 71.0092L62.2911 72.352C62.2911 72.352 62.3395 73.2174 62.3439 74.3869L60.9556 74.8203C60.8349 74.8578 60.707 74.8659 60.5825 74.844C60.4581 74.8221 60.3407 74.7708 60.2401 74.6943C60.1395 74.6178 60.0586 74.5184 60.0041 74.4044C59.9497 74.2904 59.9233 74.165 59.9271 74.0387L60.1637 66.4326L63.3459 67.6491C63.0741 67.8372 63.3709 68.297 63.3709 68.297C63.3709 68.297 62.6995 68.6922 62.9933 69.0478Z" fill="white"/>
<path d="M64.0468 65.4338C64.0468 65.4338 63.8308 66.8133 63.2901 66.8941C62.7495 66.975 62.507 69.1259 61.9678 69.0495C61.4286 68.9731 61.7857 67.0499 61.8048 66.6767C61.8239 66.3035 61.2171 64.7579 61.6711 64.4068C62.125 64.0557 63.5619 64.4068 63.5619 64.4068L64.0468 65.4338Z" fill="#CF6F80"/>
<path opacity="0.1" d="M65.1971 54.8098L66.2168 52.7529C66.2168 52.7529 66.6223 54.3206 66.6223 55.158C66.6223 55.9954 67.1894 56.0777 67.1894 56.0777C67.1894 56.0777 67.8108 56.8123 67.4832 57.3471C67.1556 57.8819 67.0233 59.213 67.0233 59.213C67.0233 59.213 67.1306 61.7532 66.6443 62.1044C66.158 62.4555 66.0566 63.2944 66.0566 63.2944C66.0566 63.2944 65.1633 64.8885 65.1912 65.2676C65.2192 65.6466 63.9483 68.2133 63.9483 68.2133C63.9483 68.2133 64.5698 65.0237 60.9482 63.6456C60.9482 63.6456 60.9203 62.5628 61.1906 62.266C61.461 61.9692 61.8826 61.834 61.6182 60.334C61.3537 58.8339 61.5418 57.0415 61.5418 56.6816C61.5418 56.3216 62.3528 54.0767 62.3528 54.0767L65.1971 54.8098Z" fill="black"/>
<path d="M65.6379 52.4592L66.5282 52.7531C66.5282 52.7531 66.9352 54.3207 66.9352 55.1581C66.9352 55.9956 67.5023 56.0779 67.5023 56.0779C67.5023 56.0779 68.1238 56.8125 67.7962 57.3472C67.4685 57.882 67.3378 59.2131 67.3378 59.2131C67.3378 59.2131 67.445 61.7534 66.9587 62.1045C66.4724 62.4557 66.3637 63.2946 66.3637 63.2946C66.3637 63.2946 65.4719 64.8886 65.4998 65.2677C65.5277 65.6467 64.2554 68.2134 64.2554 68.2134C64.2554 68.2134 64.8783 65.0238 61.2553 63.6457C61.2553 63.6457 61.2288 62.5629 61.4992 62.2661C61.7695 61.9693 62.1912 61.8342 61.9267 60.3341C61.6623 58.8341 61.8503 57.0417 61.8503 56.6817C61.8503 56.3217 62.6613 54.0768 62.6613 54.0768L65.6379 52.4592Z" fill="white"/>
<path opacity="0.1" d="M45.9727 105.772C45.9727 105.772 47.3919 104.88 48.3234 105.528C49.2549 106.176 45.9727 105.772 45.9727 105.772Z" fill="black"/>
<path opacity="0.1" d="M57.0005 103.014C57.0005 103.014 58.2567 102.853 59.3115 103.988C60.3664 105.124 57.0005 103.014 57.0005 103.014Z" fill="black"/>
<g opacity="0.1">
<path d="M58.8385 31.9624C58.6577 32.1181 58.4256 32.2298 58.3051 32.4369C58.2023 32.6147 58.1993 32.8336 58.1171 33.0246C58.0348 33.2156 57.7953 33.3713 57.6293 33.2509C57.5911 31.9286 56.9388 30.6871 56.1381 29.6293C55.9142 29.31 55.6421 29.0275 55.3315 28.7918C55.017 28.5554 54.6257 28.4449 54.234 28.4818C53.7932 28.5421 53.4054 28.8418 52.9602 28.8785C52.3725 28.9285 51.8451 28.5215 51.2618 28.5009C51.0248 28.5033 50.791 28.5563 50.5761 28.6564C50.3612 28.7565 50.1702 28.9013 50.0159 29.0813C49.7092 29.443 49.4815 29.8649 49.3474 30.3198C49.1166 31.0101 48.9908 31.7312 48.9743 32.459C48.9654 32.8689 48.9272 33.3801 48.5482 33.5329C48.557 33.6415 48.557 33.7506 48.5482 33.8591C48.9302 33.7122 48.9684 33.195 48.9772 32.7837C48.9936 32.0559 49.1194 31.3348 49.3504 30.6445C49.4845 30.1891 49.7121 29.7668 50.0189 29.4045C50.1735 29.2251 50.3646 29.0806 50.5794 28.9808C50.7942 28.881 51.0279 28.8281 51.2647 28.8256C51.8524 28.8462 52.3813 29.2517 52.9631 29.2032C53.4039 29.1665 53.7947 28.8653 54.2369 28.8065C54.6286 28.7696 55.02 28.8801 55.3344 29.1165C55.645 29.3522 55.9171 29.6347 56.141 29.954C56.9417 31.0103 57.594 32.2489 57.6322 33.5741C57.7983 33.696 58.0377 33.5374 58.12 33.3493C58.2023 33.1612 58.2052 32.9409 58.3081 32.7616C58.4285 32.5545 58.6607 32.4443 58.8414 32.2885C59.2998 31.8933 59.4144 31.2278 59.3967 30.6239C59.3967 30.6048 59.3967 30.5857 59.3967 30.5681C59.3688 31.0911 59.2293 31.6245 58.8385 31.9624Z" fill="black"/>
<path d="M47.9928 31.8579C47.6549 31.4862 47.1936 31.2379 46.8836 30.8441C46.6226 30.4956 46.4735 30.076 46.456 29.6409C46.4098 30.1846 46.5616 30.7267 46.8836 31.1674C47.1936 31.5626 47.6549 31.8109 47.9928 32.1826C48.3173 32.5462 48.5121 33.007 48.5467 33.4931C48.5692 33.1973 48.5317 32.9 48.4366 32.619C48.3414 32.338 48.1905 32.0791 47.9928 31.8579Z" fill="black"/>
<path d="M59.6832 27.4225C59.5965 27.7824 59.4423 28.1248 59.3718 28.4877C59.33 28.7302 59.3147 28.9765 59.3262 29.2223C59.3311 29.0822 59.3464 28.9428 59.3718 28.805C59.4423 28.4406 59.5965 28.0998 59.6832 27.7398C59.7337 27.5413 59.7501 27.3356 59.7317 27.1316C59.7226 27.2296 59.7064 27.3268 59.6832 27.4225Z" fill="black"/>
</g>
<path opacity="0.1" d="M19.5007 111.746C27.4071 111.746 33.8165 110.716 33.8165 109.447C33.8165 108.177 27.4071 107.147 19.5007 107.147C11.5942 107.147 5.18481 108.177 5.18481 109.447C5.18481 110.716 11.5942 111.746 19.5007 111.746Z" fill="#FF635F"/>
<path d="M19.962 65.3999H19.0408V86.1406H19.962V65.3999Z" fill="#535461"/>
<path d="M25.7506 86.0774L25.6933 87.0118L25.6111 88.3341L25.5773 88.8836L25.4965 90.2059L25.4612 90.7553L25.3789 92.0776L24.4504 107.074C24.41 107.719 24.1253 108.325 23.6542 108.767C23.1831 109.21 22.561 109.457 21.9146 109.457H17.0868C16.4405 109.457 15.8185 109.21 15.3477 108.767C14.8768 108.324 14.5924 107.719 14.5524 107.074L13.6283 92.0673L13.546 90.7451L13.5122 90.1956L13.4299 88.8733L13.3962 88.3238L13.3139 87.0015L13.2551 86.0671C13.2449 85.8873 13.2716 85.7073 13.3334 85.5381C13.3953 85.3689 13.4911 85.2141 13.6149 85.0833C13.7387 84.9525 13.8879 84.8483 14.0535 84.7772C14.219 84.7062 14.3973 84.6696 14.5774 84.6699H24.4519C24.6313 84.6715 24.8086 84.7098 24.9726 84.7825C25.1367 84.8552 25.2841 84.9607 25.4058 85.0926C25.5275 85.2245 25.6209 85.3799 25.6802 85.5493C25.7395 85.7187 25.7635 85.8984 25.7506 86.0774Z" fill="#3F3D56"/>
<path d="M25.6933 87.0117L25.611 88.3296H13.3903L13.308 87.0117H25.6933Z" fill="#9D9CB5"/>
<path d="M25.5773 88.8792L25.4965 90.1985H13.5063L13.4241 88.8792H25.5773Z" fill="#9D9CB5"/>
<path d="M25.4612 90.7495L25.3804 92.0674H13.6224L13.5401 90.7495H25.4612Z" fill="#9D9CB5"/>
<path d="M11.902 73.1733C17.266 77.0549 19.5051 83.1256 19.5051 83.1256C19.5051 83.1256 13.0406 82.9038 7.67511 79.0222C2.3096 75.1405 0.0749512 69.0713 0.0749512 69.0713C0.0749512 69.0713 6.53648 69.2917 11.902 73.1733Z" fill="#FF635F"/>
<path d="M0.0704956 69.0713C0.0704956 69.0713 6.78179 72.7957 8.93417 75.8795C11.0865 78.9634 19.505 83.1256 19.505 83.1256" stroke="#535461" stroke-width="2" stroke-miterlimit="10"/>
<path d="M15.3648 65.3543C18.2841 67.4655 19.505 70.7697 19.505 70.7697C19.505 70.7697 15.9863 70.6493 13.0655 68.538C10.1448 66.4268 8.92682 63.1211 8.92682 63.1211C8.92682 63.1211 12.4441 63.2416 15.3648 65.3543Z" fill="#FF635F"/>
<path d="M8.92682 63.1211C8.92682 63.1211 12.5792 65.1486 13.7502 66.8264C14.9211 68.5042 19.505 70.7697 19.505 70.7697" stroke="#535461" stroke-width="2" stroke-miterlimit="10"/>
<path d="M23.7437 70.6023C20.3895 74.2885 19.6799 79.106 19.6799 79.106C19.6799 79.106 24.4092 77.9453 27.7605 74.2576C31.1117 70.5699 31.8243 65.7539 31.8243 65.7539C31.8243 65.7539 27.0979 66.916 23.7437 70.6023Z" fill="#FF635F"/>
<path d="M31.8272 65.7554C31.8272 65.7554 27.4578 69.5341 26.3471 72.1376C25.2364 74.741 19.6799 79.106 19.6799 79.106" stroke="#535461" stroke-width="2" stroke-miterlimit="10"/>
<path d="M146.871 69.305C146.871 69.305 144.446 57.2371 145.374 55.7355C145.374 55.7355 145.408 54.3398 145.352 52.5606C145.352 52.493 145.352 52.4254 145.352 52.3564C145.516 52.4653 145.686 52.5635 145.862 52.6502C146.717 53.0897 147.7 53.2165 148.639 53.0087L147.904 52.1904C147.728 51.995 147.544 51.7834 147.506 51.5248C147.468 51.2662 147.574 51.0356 147.665 50.8049C148.363 49.0419 148.399 46.8249 147.055 45.4791C145.919 44.3478 145.643 42.8874 144.41 41.8546C143.51 41.0979 143.015 39.9887 142.547 38.9162C142.152 38.0097 141.754 37.0958 141.528 36.135C141.352 35.3842 141.281 34.607 141.039 33.8739C140.796 33.1407 140.342 32.4282 139.633 32.1005C139.38 31.9845 139.099 31.9184 138.869 31.7641C138.566 31.5599 138.384 31.2278 138.165 30.9369C137.053 29.4677 133.328 30.3331 131.565 30.9296C131.086 31.0798 130.642 31.3257 130.261 31.6524L130.277 31.626C130.29 31.604 130.306 31.5819 130.321 31.5599C130.128 31.7159 129.961 31.9019 129.827 32.1108C129.57 32.5178 129.463 32.9924 129.248 33.4331C128.99 33.9547 127.551 35.4107 128.17 35.9969C128.213 36.0362 128.263 36.068 128.317 36.0909C128.549 36.1875 128.805 36.2131 129.051 36.1644L129.025 36.2275C128.814 36.7447 128.705 37.2982 128.706 37.8569C128.706 40.2708 130.697 42.2277 133.155 42.2277C133.617 42.2282 134.076 42.1573 134.517 42.0176C134.527 42.0735 134.536 42.1293 134.546 42.1851C134.546 42.2072 134.554 42.2292 134.557 42.2512L134.479 42.36C134.475 42.3533 134.47 42.3469 134.465 42.3409L132.159 45.5643C131.806 45.8126 129.776 47.2818 129.661 48.3837C129.541 49.5899 129.42 51.0018 129.42 51.0018L129.404 51.3044C129.303 51.3887 129.185 51.45 129.059 51.4843C128.932 51.5185 128.799 51.5248 128.669 51.5028C127.95 51.3852 127.95 54.1473 127.95 54.1473C127.95 54.1473 127.471 54.5881 127.141 54.2061C126.812 53.8241 125.943 55.1185 125.943 55.1185L120.492 55.3535L120.367 55.3609L120.073 54.4515C120.042 54.3555 119.973 54.276 119.883 54.23C119.793 54.1841 119.689 54.1755 119.593 54.2061C119.57 54.2136 119.548 54.2229 119.527 54.234L119.506 54.2458L119.468 54.2722L119.449 54.2898C119.438 54.2994 119.428 54.3097 119.419 54.3207L119.402 54.3413L119.393 54.3501C119.359 54.397 119.337 54.4512 119.327 54.5083C119.318 54.5655 119.322 54.624 119.34 54.6792L119.593 55.4593C118.541 55.6709 117.465 56.2674 118.342 57.91L113.897 57.0887L115.335 58.2964L122.76 59.8287C122.662 60.005 122.727 60.2607 123.034 60.6206C124.356 62.1736 126.765 62.5952 127.735 62.7039C127.991 63.2768 128.311 63.8189 128.689 64.3201L128.605 65.8671C128.605 65.8671 126.15 77.6589 125.7 78.2569C125.927 77.9997 126.135 77.7262 126.322 77.4385C125.609 79.8612 124.613 83.1772 124.351 83.6738C123.931 84.4672 123.542 87.6774 124.021 87.8831C124.168 87.9462 124.588 87.9154 125.187 87.8698V88.1358L125.161 98.213C125.161 98.213 125.281 104.394 124.951 104.983C124.62 105.572 124.532 106.808 124.532 106.808C124.532 106.808 123.21 109.245 122.162 110.225C122.155 110.233 122.147 110.24 122.139 110.246L122.107 110.017C122.107 110.017 120.847 111.606 118.062 111.517C118.062 111.517 116.385 112.607 118.871 112.665C121.357 112.724 124.532 112.577 124.532 112.577C124.532 112.577 126.749 109.198 128.606 109.639V112.2H129.175V109.598C129.439 109.424 129.664 109.199 129.838 108.935C130.012 108.672 130.131 108.376 130.187 108.065C130.236 107.745 130.2 107.418 130.084 107.116C129.967 106.813 129.774 106.547 129.523 106.342C129.41 106.24 129.32 106.116 129.257 105.977C129.195 105.839 129.162 105.689 129.16 105.537L129.14 105.555C129.14 105.503 129.126 105.45 129.12 105.396C128.957 104.074 128.753 101.345 129.475 99.3266C130.463 96.5587 130.763 92.7035 130.043 90.4086C129.811 89.675 129.62 88.929 129.472 88.174C129.454 88.0785 129.438 87.9874 129.423 87.9022C129.915 87.9687 130.403 88.0669 130.882 88.196C132.55 88.6559 136.198 88.7411 139.312 88.7161C139.32 88.8013 139.328 88.8909 139.339 88.9806C139.394 89.6035 139.51 90.2196 139.685 90.82C140.076 91.9953 140.256 97.1772 140.256 97.1772C140.256 97.1772 140.759 101.438 140.485 103.172C140.338 104.135 140.191 105.104 140.107 106.076V106.095C140.107 106.095 139.281 108.446 138.678 109.723C138.663 109.755 138.647 109.787 138.632 109.818C138.471 109.833 138.313 109.868 138.16 109.923C138.16 109.923 137.351 111.539 136.544 111.806C135.738 112.073 136.005 112.953 137.831 112.63C139.658 112.307 142.415 112.043 142.415 112.043L142.534 110.394L143.095 109.692L142.949 111.336L143.547 111.218L143.467 109.219L144.385 108.07C144.385 108.07 145.495 107.083 143.846 105.14V105.183C143.829 105.155 143.812 105.126 143.793 105.098V105.089C143.52 104.666 143.303 103.877 143.701 102.477C144.421 99.9466 144.839 97.6503 144.839 97.6503C144.839 97.6503 146.447 91.4988 144.515 88.5883H144.6C144.402 88.1787 144.262 87.7436 144.184 87.2954C144.174 87.2425 144.166 87.1881 144.158 87.1323C145.587 87.05 146.99 86.7914 148.135 86.2332C148.13 86.2273 147.441 71.6293 146.871 69.305ZM128.722 59.1235V59.1529L128.428 59.1676L128.722 59.1235ZM127.714 59.2631C127.666 59.2738 127.621 59.2954 127.582 59.3263C127.456 59.505 127.377 59.7127 127.352 59.9301L126.893 59.8273C126.893 59.8273 126.571 59.7582 126.109 59.6803L125.89 59.46C126.492 59.41 127.118 59.3365 127.714 59.2631Z" fill="url(#paint1_linear_25_603)"/>
<path d="M142.881 109.239L142.706 111.321L143.292 111.204L143.204 108.946L142.881 109.239Z" fill="#1D2366"/>
<path d="M129.507 99.3546C128.8 101.367 129 104.084 129.159 105.403C129.217 105.891 129.272 106.188 129.272 106.188C129.272 106.188 128.215 108.594 128.127 108.685C128.039 108.777 125.018 110.62 125.018 110.62L122.907 111.853C122.907 111.853 120.765 110.914 121.792 110.591C122.002 110.507 122.191 110.378 122.346 110.213C123.374 109.236 124.666 106.808 124.666 106.808C124.666 106.808 124.754 105.575 125.077 104.989C125.4 104.403 125.283 98.2424 125.283 98.2424L125.308 88.2004V86.8914L129.326 86.9207C129.351 87.3652 129.409 87.8071 129.5 88.243C129.644 88.9955 129.831 89.7391 130.059 90.4703C130.767 92.7608 130.474 96.5969 129.507 99.3546Z" fill="#FFB0B1"/>
<path opacity="0.1" d="M129.272 106.188C129.272 106.188 128.215 108.594 128.127 108.686C128.039 108.777 125.018 110.62 125.018 110.62L122.907 111.853C122.907 111.853 120.765 110.914 121.792 110.591C122.002 110.507 122.191 110.378 122.346 110.213L122.437 110.855L123.141 110.826L129.165 105.406C129.217 105.891 129.272 106.188 129.272 106.188Z" fill="black"/>
<path d="M129.198 105.543L123.141 110.999L122.437 111.029L122.29 110C122.29 110 121.059 111.584 118.323 111.496C118.323 111.496 116.681 112.582 119.115 112.64C121.55 112.699 124.659 112.552 124.659 112.552C124.659 112.552 126.83 109.173 128.647 109.614V112.166H129.206V109.59C129.465 109.416 129.687 109.19 129.857 108.928C130.027 108.665 130.142 108.371 130.196 108.062C130.244 107.745 130.21 107.42 130.097 107.12C129.983 106.819 129.794 106.553 129.548 106.346C129.438 106.243 129.35 106.119 129.29 105.981C129.23 105.842 129.199 105.693 129.198 105.543Z" fill="#1D2366"/>
<path d="M143.439 102.493C143.048 103.889 143.262 104.675 143.529 105.096V105.105C143.872 105.626 144.11 106.208 144.231 106.82L144.255 106.952L141.498 110.97L140.003 111.558C140.003 111.558 137.598 110.736 138.037 110.501C138.147 110.444 138.319 110.139 138.516 109.717C139.104 108.446 139.915 106.101 139.915 106.101V106.082C140 105.114 140.135 104.149 140.285 103.188C140.554 101.459 140.06 97.214 140.06 97.214C140.06 97.214 139.884 92.0527 139.502 90.8788C139.329 90.282 139.215 89.6699 139.159 89.0511C139.08 88.3165 139.063 87.7112 139.063 87.7112C139.063 87.7112 140.646 85.5074 143.549 87.8875C143.782 88.0774 143.986 88.2989 144.156 88.5457C146.162 91.3989 144.547 97.6841 144.547 97.6841C144.547 97.6841 144.143 99.9702 143.439 102.493Z" fill="#FFB0B1"/>
<path opacity="0.1" d="M144.259 106.952L141.503 110.97L140.007 111.558C140.007 111.558 137.602 110.736 138.041 110.501C138.152 110.444 138.324 110.138 138.52 109.717C139.539 109.708 140.066 110.678 140.066 110.678L141.356 110.472C141.356 110.472 143.057 107.128 143.439 106.924C143.821 106.72 143.498 105.397 143.498 105.397V105.061C143.508 105.073 143.517 105.086 143.529 105.098V105.106C143.872 105.627 144.11 106.209 144.231 106.821L144.259 106.952Z" fill="black"/>
<path d="M140.154 110.764C140.154 110.764 139.42 109.415 138.012 109.914C138.012 109.914 137.22 111.53 136.428 111.791C135.636 112.053 135.901 112.934 137.69 112.612C139.48 112.291 142.177 112.025 142.177 112.025L142.295 110.381L144.114 108.064C144.114 108.064 145.198 107.081 143.585 105.146V105.482C143.585 105.482 143.908 106.805 143.526 107.009C143.144 107.213 141.449 110.559 141.449 110.559L140.154 110.764Z" fill="#1D2366"/>
<path opacity="0.1" d="M129.331 86.9178C129.356 87.3622 129.414 87.8042 129.504 88.2401C127.85 87.9977 126.314 88.1181 125.308 88.1975V86.8884L129.331 86.9178Z" fill="black"/>
<path opacity="0.1" d="M144.319 88.9116C144.319 88.9116 141.969 89.0262 139.165 89.0497C139.086 88.3151 139.068 87.7098 139.068 87.7098C139.068 87.7098 140.652 85.506 143.555 87.8861C143.788 88.0759 143.992 88.2975 144.162 88.5443C144.208 88.6695 144.26 88.7921 144.319 88.9116Z" fill="black"/>
<path d="M144.319 88.647C144.319 88.647 134.023 89.1451 130.885 88.265C127.747 87.385 124.636 88.1475 124.168 87.9432C123.699 87.739 124.08 84.5406 124.491 83.7487C124.902 82.9568 127.159 74.9482 127.159 74.9482L129.331 63.6265L131.618 62.9963L131.78 62.9507L135.766 61.8518L138.686 61.0452C138.686 61.0452 144.494 83.7193 143.996 85.3912C143.815 86.0315 143.786 86.705 143.911 87.3585C143.987 87.8048 144.124 88.2384 144.319 88.647Z" fill="#1D2366"/>
<path d="M121.761 55.8838C121.761 55.8838 119.704 58.0876 121.262 59.3158C122.819 60.5441 123.843 59.4334 123.843 59.4334L121.761 55.8838Z" fill="#C7DAF5"/>
<path opacity="0.1" d="M121.761 55.8838C121.761 55.8838 119.704 58.0876 121.262 59.3158C122.819 60.5441 123.843 59.4334 123.843 59.4334L121.761 55.8838Z" fill="black"/>
<path d="M138.379 41.3947C138.379 41.3947 138.138 41.6239 137.776 41.9619C137.258 42.4452 136.493 43.1519 135.814 43.744C134.874 44.5623 134.098 45.1632 134.376 44.6505C134.653 44.1377 134.601 43.2445 134.462 42.4085C134.452 42.3527 134.443 42.2968 134.433 42.2425C134.319 41.6285 134.167 41.0221 133.979 40.4265C133.979 40.4265 135.498 38.4637 136.339 37.6894C136.652 37.3956 136.871 37.2751 136.884 37.4793C136.898 37.7541 137.104 38.3609 137.36 39.0044C137.367 39.0249 137.374 39.044 137.383 39.0646C137.554 39.5054 137.746 39.9579 137.915 40.3487C138.174 40.9481 138.379 41.3947 138.379 41.3947Z" fill="#FFB0B1"/>
<path opacity="0.1" d="M137.383 39.0646C137.24 39.8324 136.894 40.5479 136.38 41.1361C135.867 41.7243 135.204 42.1638 134.462 42.4085C134.346 41.7378 134.184 41.0757 133.979 40.4265C133.979 40.4265 136.84 36.7315 136.884 37.4793C136.894 37.7629 137.117 38.3917 137.383 39.0646Z" fill="black"/>
<path opacity="0.1" d="M134.177 43.3956L134.548 42.874C134.548 42.874 134.793 44.3697 135.695 43.71C136.597 43.0503 136.641 48.6744 136.641 48.6744L135.673 63.1504L128.677 62.7317L128.875 55.7368L129.667 52.2108L131.625 47.0847L132.791 45.3908L134.177 43.3956Z" fill="black"/>
<path d="M136.641 48.764L135.76 61.8531L135.667 63.24L131.766 63.0064L131.62 62.9976L128.681 62.8213L128.88 55.825L129.671 52.2989L131.63 47.1729L132.795 45.4789L134.182 43.4764L134.552 42.9563C134.552 42.9563 134.797 44.4519 135.7 43.7923L135.719 43.779C136.6 43.2208 136.641 48.764 136.641 48.764Z" fill="#1D2366"/>
<path d="M129.77 51.0737C129.77 51.0737 129.419 51.8083 128.714 51.6893C128.008 51.5703 128.01 54.3339 128.01 54.3339C128.01 54.3339 127.541 54.7746 127.218 54.3926C126.895 54.0107 126.042 55.3021 126.042 55.3021L120.703 55.5372C120.703 55.5372 123.079 56.6229 122.613 59.908C122.613 59.908 130.679 59.4085 130.944 58.646C131.208 57.8835 129.77 51.0737 129.77 51.0737Z" fill="white"/>
<path opacity="0.03" d="M129.77 51.0737C129.77 51.0737 129.419 51.8083 128.714 51.6893C128.008 51.5703 128.01 54.3339 128.01 54.3339C128.01 54.3339 127.541 54.7746 127.218 54.3926C126.895 54.0107 126.042 55.3021 126.042 55.3021L120.703 55.5372C120.703 55.5372 123.079 56.6229 122.613 59.908C122.613 59.908 130.679 59.4085 130.944 58.646C131.208 57.8835 129.77 51.0737 129.77 51.0737Z" fill="black"/>
<path d="M114.254 57.2634L115.661 58.4652L127.247 60.8997L125.81 59.4334L114.254 57.2634Z" fill="white"/>
<path d="M134.199 43.8586C134.007 44.1524 133.456 45.6569 132.996 46.9703C132.613 48.0649 132.292 49.0272 132.292 49.0272C132.292 49.0272 131.545 53.8961 131.163 54.7762C130.781 55.6562 130.988 59.0883 130.988 59.0883L129.564 67.5641C129.564 67.5641 128.919 71.9349 127.923 74.5457C126.94 77.1153 125.846 78.3201 125.812 78.3583C126.253 77.7618 128.655 66.017 128.655 66.017L129.448 51.2046C129.448 51.2046 129.564 49.7971 129.682 48.5938C129.799 47.3905 132.179 45.748 132.179 45.748L134.474 42.4849C134.705 42.7934 134.551 43.3311 134.199 43.8586Z" fill="white"/>
<path d="M128.215 62.8949C128.215 62.8949 124.836 62.748 123.2 60.7822C121.563 58.8164 126.983 59.9977 126.983 59.9977L128.392 60.3209L128.215 62.8949Z" fill="#FFB0B1"/>
<path opacity="0.1" d="M143.996 85.3928C143.815 86.033 143.786 86.7066 143.911 87.3601C140.225 87.6216 136.281 86.6255 136.281 86.6255C135.547 87.3013 133.612 88.2974 133.612 88.2974L132.557 75.2216C131.883 73.4585 131.618 64.2217 131.618 64.2217C131.618 64.2217 131.678 63.7383 131.765 63.014C131.765 62.9964 131.765 62.9773 131.772 62.9596C132.035 60.9365 132.557 57.1387 132.813 56.6259C133.165 55.9207 131.728 54.0445 131.728 54.0445L132.382 48.4689L132.461 47.796C133.84 47.1804 134.896 45.2147 134.896 45.2147L135.707 43.7939C136.588 43.2283 136.634 48.7716 136.634 48.7716L135.752 61.8607L138.673 61.0541C138.673 61.0541 144.494 83.7209 143.996 85.3928Z" fill="black"/>
<path d="M147.779 86.2964C143.761 88.2915 136.458 86.4433 136.458 86.4433C135.723 87.1191 133.788 88.1152 133.788 88.1152L132.732 75.0394C132.059 73.2763 131.794 64.0395 131.794 64.0395C131.794 64.0395 132.644 57.1475 132.996 56.4437C133.099 56.238 133.049 55.9325 132.927 55.6034C132.328 54.0369 132.107 52.3509 132.284 50.683L132.566 48.2868L132.644 47.6153C134.023 46.9983 135.08 45.0325 135.08 45.0325L135.814 43.7455L137.166 41.3742L137.806 40.2517L137.915 40.3501L138.745 41.1024C138.745 41.1024 139.098 41.3962 139.627 41.837C140.777 42.8066 142.765 44.5139 143.79 45.5585C144.692 46.4782 144.978 50.0557 145.06 52.7487C145.114 54.522 145.082 55.9119 145.082 55.9119C144.172 57.409 146.551 69.4285 146.551 69.4285C147.105 71.7513 147.779 86.2964 147.779 86.2964Z" fill="white"/>
<path opacity="0.03" d="M140.066 45.0029C140.066 45.0029 137.308 50.2523 137.629 52.2475C137.949 54.2427 138.86 56.5008 138.421 57.0283C138.27 57.2281 138.074 57.3903 137.85 57.5022C137.626 57.6141 137.379 57.6726 137.129 57.6732C136.688 57.7026 135.513 58.5239 135.513 58.6121C135.513 58.7002 134.427 58.7002 133.456 59.1116C132.485 59.523 131.051 59.7566 131.051 59.7566C131.051 59.7566 128.26 59.6684 127.999 59.9329C127.739 60.1973 127.472 61.7797 128.029 63.0417C128.586 64.3037 129.204 65.2455 129.671 65.4174C130.139 65.5893 133.103 64.5961 135.509 64.361C137.914 64.126 140.524 62.2204 140.524 62.2204C140.524 62.2204 143.4 61.192 143.904 59.4627C144.407 57.7335 143.288 48.2292 143.288 48.2292C143.288 48.2292 142.442 43.7996 140.066 45.0029Z" fill="black"/>
<path opacity="0.03" d="M139.713 44.5623C139.713 44.5623 136.956 49.8132 137.279 51.8069C137.602 53.8006 138.51 56.0602 138.069 56.5891C137.919 56.7892 137.724 56.9516 137.5 57.0635C137.276 57.1754 137.03 57.2338 136.779 57.2341C136.339 57.2635 135.163 58.0848 135.163 58.1729C135.163 58.2611 134.078 58.2611 133.106 58.671C132.135 59.0809 130.701 59.316 130.701 59.316C130.701 59.316 127.91 59.2278 127.651 59.4923C127.393 59.7567 127.122 61.3405 127.681 62.6011C128.239 63.8617 128.856 64.8049 129.323 64.9768C129.79 65.1487 132.755 64.1555 135.16 63.9219C137.565 63.6883 140.176 61.7798 140.176 61.7798C140.176 61.7798 143.05 60.7514 143.548 59.0236C144.046 57.2958 142.932 47.7886 142.932 47.7886C142.932 47.7886 142.089 43.3605 139.713 44.5623Z" fill="black"/>
<path d="M139.979 44.7386C139.979 44.7386 137.222 49.9895 137.545 51.9832C137.868 53.977 138.776 56.2366 138.337 56.764C138.186 56.9645 137.991 57.1273 137.767 57.2395C137.543 57.3517 137.296 57.4102 137.045 57.4105C136.605 57.4399 135.429 58.2611 135.429 58.3478C135.429 58.4345 134.345 58.436 133.372 58.8473C132.4 59.2587 130.967 59.4923 130.967 59.4923C130.967 59.4923 128.176 59.4042 127.916 59.6686C127.656 59.9331 127.388 61.5169 127.945 62.7774C128.502 64.038 129.12 64.9812 129.588 65.1531C130.055 65.325 133.02 64.3319 135.425 64.0968C137.83 63.8617 140.441 61.9562 140.441 61.9562C140.441 61.9562 143.316 60.9277 143.82 59.1985C144.324 57.4692 143.212 47.965 143.212 47.965C143.212 47.965 142.354 43.5427 139.979 44.7386Z" fill="white"/>
<path opacity="0.1" d="M139.919 58.8223C139.919 58.8223 137.715 58.3815 138.482 59.1161C139.249 59.8507 139.245 60.4942 140.184 60.4649C141.122 60.4355 139.919 58.8223 139.919 58.8223Z" fill="black"/>
<path opacity="0.1" d="M143.643 74.6279C143.643 74.6279 142.647 75.3023 144.553 76.8567C146.458 78.4111 143.643 74.6279 143.643 74.6279Z" fill="black"/>
<path opacity="0.1" d="M141.742 80.1711C141.742 80.2593 141.39 83.4034 142.709 84.1894C144.028 84.9754 141.742 80.1711 141.742 80.1711Z" fill="black"/>
<path d="M120.795 55.5298C119.731 55.5665 117.433 55.8912 118.625 58.1141C119.678 60.0814 121.448 58.7664 122.444 57.7688C122.201 56.8388 121.611 56.0373 120.795 55.5298Z" fill="#FFB0B1"/>
<path opacity="0.1" d="M139.627 41.9266C138.498 42.6979 137.552 43.3488 137.367 43.4839C136.862 43.8586 135.898 46.058 135.276 47.1804C134.781 48.084 133.173 48.3161 132.566 48.3734L132.644 47.702C134.023 47.0849 135.08 45.1192 135.08 45.1192L137.806 40.3384L138.745 41.192C138.745 41.192 139.098 41.4858 139.627 41.9266Z" fill="black"/>
<path d="M139.627 41.8384C138.498 42.6098 137.552 43.2606 137.367 43.3973C136.862 43.7704 135.898 45.9698 135.276 47.0923C134.781 47.9959 133.173 48.228 132.566 48.2853L132.644 47.6139C134.023 46.9968 135.08 45.031 135.08 45.031L137.806 40.2502L138.745 41.1009C138.745 41.1009 139.098 41.3918 139.627 41.8384Z" fill="#DCE7FF"/>
<path d="M137.455 38.0949C137.456 38.9769 137.188 39.8382 136.688 40.5647C136.098 41.4236 135.219 42.0424 134.211 42.3087C133.203 42.575 132.133 42.4713 131.195 42.0162C130.258 41.5612 129.514 40.7851 129.099 39.8287C128.685 38.8722 128.627 37.7989 128.936 36.8034C129.245 35.8079 129.901 34.9562 130.784 34.4028C131.668 33.8494 132.72 33.631 133.751 33.7873C134.781 33.9435 135.722 34.464 136.402 35.2544C137.081 36.0447 137.455 37.0525 137.455 38.0949Z" fill="#FFB0B1"/>
<path opacity="0.1" d="M145.06 52.7502C144.463 52.3832 143.977 51.8612 143.654 51.2399C143.408 50.755 143.245 50.1953 142.827 49.8515C142.449 49.5429 141.945 49.468 141.475 49.3299C139.929 48.873 138.634 47.4626 138.585 45.8523C138.562 45.0942 138.798 44.3376 138.691 43.5868C138.63 43.1619 138.461 42.7598 138.2 42.4188C138.071 42.2557 137.929 42.103 137.776 41.9619C137.57 41.7679 137.354 41.5799 137.166 41.3742C137.047 41.2468 136.944 41.1064 136.857 40.9555C136.787 40.832 136.731 40.7015 136.688 40.5661C136.394 39.667 136.662 38.6004 136.339 37.6909L136.321 37.641C136.199 37.3177 135.951 36.9945 135.606 36.9695C135.26 36.9446 134.965 37.2311 134.636 37.3589C133.947 37.6263 133.203 37.1708 132.629 36.7066C132.054 36.2423 131.407 35.7119 130.676 35.8147C130.193 35.8838 129.811 36.2129 129.366 36.3833C129.265 36.4222 129.162 36.4522 129.056 36.473C129.433 35.5334 130.125 34.7544 131.013 34.2698C131.902 33.7851 132.932 33.6251 133.926 33.8172C134.92 34.0093 135.816 34.5415 136.46 35.3224C137.104 36.1033 137.456 37.0842 137.455 38.0964C137.456 38.4021 137.424 38.7069 137.36 39.0058C137.367 39.0264 137.374 39.0455 137.383 39.0661C137.554 39.5068 137.746 39.9594 137.915 40.3502L138.745 41.1024C138.745 41.1024 139.098 41.3962 139.627 41.837C140.777 42.8067 142.765 44.5139 143.79 45.5585C144.693 46.4811 144.975 50.0572 145.06 52.7502Z" fill="black"/>
<path d="M129.314 33.6991C129.524 33.2715 129.629 32.7926 129.88 32.3871C130.249 31.7994 130.892 31.4233 131.553 31.1956C133.28 30.6005 136.928 29.7366 138.018 31.1956C138.232 31.4894 138.41 31.8156 138.707 32.0183C138.933 32.1726 139.207 32.2387 139.455 32.3548C140.15 32.6809 140.593 33.392 140.83 34.1178C141.067 34.8436 141.137 35.6222 141.31 36.3701C141.532 37.3295 141.922 38.2389 142.309 39.1424C142.766 40.2091 143.251 41.3154 144.133 42.0691C145.336 43.0975 145.602 44.5535 146.719 45.6818C148.041 47.0218 147.998 49.2329 147.316 50.9886C147.227 51.2193 147.125 51.4602 147.161 51.7056C147.196 51.9509 147.378 52.1742 147.55 52.3696L148.273 53.185C146.563 53.5979 144.628 52.7046 143.832 51.137C143.586 50.6521 143.423 50.0938 143.003 49.7486C142.627 49.4401 142.121 49.3666 141.653 49.2285C140.107 48.7701 138.811 47.3582 138.763 45.748C138.739 44.9913 138.976 44.2347 138.869 43.4854C138.809 43.0576 138.639 42.6527 138.376 42.31C137.972 41.7826 137.363 41.4285 137.034 40.8408C136.477 39.8579 136.9 38.5812 136.499 37.5263C136.375 37.2031 136.129 36.8799 135.783 36.8549C135.438 36.8299 135.143 37.1164 134.812 37.2442C134.125 37.5116 133.381 37.0577 132.807 36.5919C132.232 36.1262 131.584 35.5973 130.853 35.7016C130.369 35.7692 129.989 36.0983 129.544 36.2702C129.214 36.3965 128.547 36.5096 128.26 36.232C127.651 35.6722 129.06 34.2221 129.314 33.6991Z" fill="#591D4B"/>
<path opacity="0.1" d="M144.24 50.652C143.993 50.1672 143.832 49.6089 143.411 49.2651C143.035 48.9565 142.53 48.8816 142.06 48.7435C140.516 48.2866 139.22 46.8747 139.17 45.2644C139.146 44.5078 139.383 43.7497 139.277 43.0004C139.215 42.5754 139.046 42.1733 138.785 41.8324C138.379 41.305 137.77 40.9509 137.442 40.3632C136.885 39.3818 137.308 38.105 136.906 37.0487C136.784 36.7269 136.536 36.4037 136.192 36.3773C135.848 36.3508 135.55 36.6403 135.221 36.7681C134.533 37.0355 133.788 36.58 133.215 36.1158C132.642 35.6515 131.991 35.1211 131.261 35.2239C130.778 35.293 130.396 35.6221 129.952 35.7925C129.623 35.9189 128.954 36.0335 128.666 35.7558C128.061 35.1681 129.47 33.721 129.723 33.2009C129.933 32.7719 130.037 32.2944 130.29 31.8889C130.303 31.8668 130.318 31.8448 130.333 31.8228C130.144 31.9793 129.98 32.1648 129.849 32.3722C129.598 32.7777 129.494 33.2538 129.284 33.6842C129.029 34.2043 127.62 35.6559 128.227 36.2392C128.521 36.5183 129.182 36.4037 129.511 36.2774C129.952 36.1055 130.337 35.7764 130.82 35.7088C131.555 35.6045 132.201 36.1348 132.774 36.5991C133.347 37.0634 134.097 37.5188 134.781 37.2514C135.11 37.1236 135.398 36.8357 135.751 36.8621C136.104 36.8885 136.339 37.2103 136.466 37.5335C136.868 38.5884 136.444 39.8651 137.001 40.848C137.33 41.4254 137.94 41.7869 138.344 42.3172C138.607 42.6599 138.777 43.0648 138.836 43.4926C138.944 44.2419 138.707 44.9985 138.73 45.7552C138.779 47.3713 140.075 48.7773 141.62 49.2357C142.086 49.3738 142.594 49.4473 142.971 49.7558C143.392 50.101 143.558 50.6593 143.799 51.1442C144.596 52.7118 146.53 53.6051 148.241 53.1922L147.9 52.8073C146.417 52.8293 144.917 51.986 144.24 50.652Z" fill="black"/>
<path opacity="0.1" d="M134.111 43.9467C133.919 44.2406 133.368 45.745 132.908 47.0585C132.478 46.891 132.087 45.8229 132.087 45.8229L134.382 42.5583C134.617 42.8816 134.462 43.4178 134.111 43.9467Z" fill="black"/>
<path d="M134.199 43.8586C134.007 44.1524 133.456 45.6569 132.996 46.9704C132.566 46.8043 132.175 45.7348 132.175 45.7348L134.47 42.4717C134.705 42.7934 134.551 43.3312 134.199 43.8586Z" fill="#DCE7FF"/>
<path d="M120.856 58.8678L119.584 54.8554C119.569 54.8084 119.563 54.7589 119.567 54.7098C119.571 54.6606 119.585 54.6128 119.608 54.5689C119.631 54.5251 119.662 54.4862 119.699 54.4544C119.737 54.4227 119.781 54.3987 119.828 54.3838C119.922 54.3542 120.025 54.3633 120.113 54.4089C120.201 54.4546 120.268 54.5332 120.298 54.6277L121.57 58.6356L121.444 59.4746L120.856 58.8678Z" fill="#BE8B87"/>
<path opacity="0.1" d="M119.704 54.5028C119.799 54.4728 119.902 54.4816 119.991 54.5273C120.079 54.573 120.146 54.6519 120.176 54.7467L121.448 58.7546L121.353 59.3835L121.445 59.4804L121.572 58.6415L120.292 54.6335C120.262 54.5391 120.195 54.4605 120.107 54.4148C120.019 54.3691 119.917 54.3601 119.822 54.3896C119.742 54.4155 119.673 54.4672 119.627 54.5366C119.652 54.5232 119.678 54.5119 119.704 54.5028Z" fill="white"/>
<path d="M120.856 58.8679L121.57 58.6416L121.466 59.3292L121.444 59.4805L121.235 59.2631L120.856 58.8679Z" fill="#EFC8C4"/>
<path d="M121.235 59.263C121.248 59.2473 121.263 59.2343 121.281 59.2248C121.291 59.2183 121.303 59.2148 121.315 59.2148C121.328 59.2148 121.34 59.2183 121.35 59.2248C121.36 59.2369 121.368 59.2503 121.375 59.2645C121.385 59.2807 121.398 59.2945 121.414 59.305C121.429 59.3154 121.447 59.3222 121.466 59.3247L121.444 59.4717L121.235 59.263Z" fill="#727A9C"/>
<path d="M119.577 56.2805C119.577 56.2805 122.129 56.2658 121.528 57.3516C120.927 58.4373 119.988 58.5681 119.988 58.5681L119.577 56.2805Z" fill="#FFB0B1"/>
<path d="M103.705 7.55469H103.595C99.2105 7.55469 95.3333 9.87455 93.1031 13.2978C90.8728 9.87455 86.9956 7.55469 82.6115 7.55469H82.5014C79.2112 7.58604 76.0664 8.91458 73.7503 11.2516C71.4342 13.5886 70.134 16.7452 70.1322 20.0355C70.1322 24.1214 71.9217 29.9188 75.411 34.6893C82.0591 43.7792 93.1031 51.732 93.1031 51.732C93.1031 51.732 104.147 43.7807 110.794 34.6893C114.285 29.9188 116.073 24.1214 116.073 20.0355C116.071 16.7455 114.771 13.5891 112.455 11.2521C110.139 8.91513 106.995 7.58643 103.705 7.55469ZM102.128 35.3886C101.629 35.3867 101.142 35.2339 100.731 34.9502C100.32 34.6665 100.005 34.2652 99.8261 33.799H97.2051C97.0325 33.7979 96.8645 33.743 96.7247 33.6418C96.5848 33.5407 96.48 33.3984 96.4249 33.2348L95.6198 30.8092L93.0722 39.711C93.0226 39.8824 92.9188 40.033 92.7762 40.1403C92.6337 40.2476 92.4602 40.3058 92.2818 40.306H92.2304C92.0442 40.2971 91.8668 40.2244 91.7278 40.1004C91.5887 39.9763 91.4964 39.8083 91.4664 39.6243L88.8409 23.8334L86.9222 33.1775C86.8782 33.355 86.776 33.5127 86.6319 33.6253C86.4879 33.7379 86.3102 33.7991 86.1273 33.799H82.4352C82.3246 33.8037 82.2141 33.7859 82.1104 33.7468C82.0068 33.7077 81.9121 33.648 81.8322 33.5713C81.7522 33.4947 81.6886 33.4026 81.6451 33.3007C81.6016 33.1988 81.5792 33.0892 81.5792 32.9784C81.5792 32.8676 81.6016 32.758 81.6451 32.6561C81.6886 32.5542 81.7522 32.4622 81.8322 32.3855C81.9121 32.3089 82.0068 32.2492 82.1104 32.2101C82.2141 32.1709 82.3246 32.1532 82.4352 32.1579H85.4809L88.1989 19.5948C88.2435 19.409 88.3513 19.2445 88.5037 19.1295C88.6562 19.0144 88.8439 18.9558 89.0348 18.9638C89.2256 18.9718 89.4078 19.0458 89.5501 19.1732C89.6924 19.3006 89.7861 19.4735 89.815 19.6623L92.4963 35.7706L94.7794 27.8061C94.827 27.6384 94.9275 27.4905 95.066 27.3846C95.2045 27.2787 95.3735 27.2204 95.5478 27.2184H95.564C95.7367 27.2185 95.9049 27.2731 96.0447 27.3744C96.1845 27.4757 96.2888 27.6185 96.3427 27.7826L97.7986 32.1623H99.7938C99.9357 31.7313 100.194 31.3479 100.54 31.0544C100.886 30.7609 101.306 30.5687 101.755 30.499C102.203 30.4293 102.662 30.4848 103.08 30.6595C103.499 30.8341 103.862 31.121 104.128 31.4886C104.394 31.8562 104.553 32.2901 104.588 32.7424C104.623 33.1948 104.532 33.648 104.326 34.0521C104.119 34.4562 103.805 34.7954 103.418 35.0323C103.031 35.2692 102.586 35.3945 102.133 35.3945L102.128 35.3886Z" fill="#FF635F"/>
</g>
<defs>
<linearGradient id="paint0_linear_25_603" x1="52.3519" y1="113.844" x2="52.3519" y2="23.4381" gradientUnits="userSpaceOnUse">
<stop stop-color="#808080" stop-opacity="0.25"/>
<stop offset="0.54" stop-color="#808080" stop-opacity="0.12"/>
<stop offset="1" stop-color="#808080" stop-opacity="0.1"/>
</linearGradient>
<linearGradient id="paint1_linear_25_603" x1="131.263" y1="112.701" x2="131.263" y2="30.1318" gradientUnits="userSpaceOnUse">
<stop stop-color="#808080" stop-opacity="0.25"/>
<stop offset="0.54" stop-color="#808080" stop-opacity="0.12"/>
<stop offset="1" stop-color="#808080" stop-opacity="0.1"/>
</linearGradient>
<clipPath id="clip0_25_603">
<rect width="162.352" height="115" fill="white"/>
</clipPath>
</defs>
</svg>
