<svg width="48" height="48" viewBox="0 0 48 48" fill="none" xmlns="http://www.w3.org/2000/svg">
<path d="M24 31C25.9333 31 27.5833 30.3167 28.95 28.95C30.3167 27.5833 31 25.9333 31 24C31 22.0667 30.3167 20.4167 28.95 19.05C27.5833 17.6833 25.9333 17 24 17C22.0667 17 20.4167 17.6833 19.05 19.05C17.6833 20.4167 17 22.0667 17 24C17 25.9333 17.6833 27.5833 19.05 28.95C20.4167 30.3167 22.0667 31 24 31ZM24 34C21.2333 34 18.875 33.025 16.925 31.075C14.975 29.125 14 26.7667 14 24C14 21.2333 14.975 18.875 16.925 16.925C18.875 14.975 21.2333 14 24 14C26.7667 14 29.125 14.975 31.075 16.925C33.025 18.875 34 21.2333 34 24C34 26.7667 33.025 29.125 31.075 31.075C29.125 33.025 26.7667 34 24 34ZM3.5 25.5C3.06667 25.5 2.70833 25.3583 2.425 25.075C2.14167 24.7917 2 24.4333 2 24C2 23.5667 2.14167 23.2083 2.425 22.925C2.70833 22.6417 3.06667 22.5 3.5 22.5H8.5C8.93333 22.5 9.29167 22.6417 9.575 22.925C9.85833 23.2083 10 23.5667 10 24C10 24.4333 9.85833 24.7917 9.575 25.075C9.29167 25.3583 8.93333 25.5 8.5 25.5H3.5ZM39.5 25.5C39.0667 25.5 38.7083 25.3583 38.425 25.075C38.1417 24.7917 38 24.4333 38 24C38 23.5667 38.1417 23.2083 38.425 22.925C38.7083 22.6417 39.0667 22.5 39.5 22.5H44.5C44.9333 22.5 45.2917 22.6417 45.575 22.925C45.8583 23.2083 46 23.5667 46 24C46 24.4333 45.8583 24.7917 45.575 25.075C45.2917 25.3583 44.9333 25.5 44.5 25.5H39.5ZM24 10C23.5667 10 23.2083 9.85833 22.925 9.575C22.6417 9.29167 22.5 8.93333 22.5 8.5V3.5C22.5 3.06667 22.6417 2.70833 22.925 2.425C23.2083 2.14167 23.5667 2 24 2C24.4333 2 24.7917 2.14167 25.075 2.425C25.3583 2.70833 25.5 3.06667 25.5 3.5V8.5C25.5 8.93333 25.3583 9.29167 25.075 9.575C24.7917 9.85833 24.4333 10 24 10ZM24 46C23.5667 46 23.2083 45.8583 22.925 45.575C22.6417 45.2917 22.5 44.9333 22.5 44.5V39.5C22.5 39.0667 22.6417 38.7083 22.925 38.425C23.2083 38.1417 23.5667 38 24 38C24.4333 38 24.7917 38.1417 25.075 38.425C25.3583 38.7083 25.5 39.0667 25.5 39.5V44.5C25.5 44.9333 25.3583 45.2917 25.075 45.575C24.7917 45.8583 24.4333 46 24 46ZM12 14.1L9.15 11.3C8.85 11 8.70833 10.6417 8.725 10.225C8.74167 9.80833 8.88333 9.45 9.15 9.15C9.45 8.85 9.80833 8.7 10.225 8.7C10.6417 8.7 11 8.85 11.3 9.15L14.1 12C14.3667 12.3 14.5 12.65 14.5 13.05C14.5 13.45 14.3667 13.7833 14.1 14.05C13.8333 14.35 13.4917 14.5 13.075 14.5C12.6583 14.5 12.3 14.3667 12 14.1ZM36.7 38.85L33.9 36C33.6333 35.7 33.5 35.3417 33.5 34.925C33.5 34.5083 33.65 34.1667 33.95 33.9C34.2167 33.6 34.55 33.45 34.95 33.45C35.35 33.45 35.7 33.6 36 33.9L38.85 36.7C39.15 37 39.2917 37.3583 39.275 37.775C39.2583 38.1917 39.1167 38.55 38.85 38.85C38.55 39.15 38.1917 39.3 37.775 39.3C37.3583 39.3 37 39.15 36.7 38.85ZM33.9 14.1C33.6 13.8 33.45 13.45 33.45 13.05C33.45 12.65 33.6 12.3 33.9 12L36.7 9.15C37 8.85 37.3583 8.70833 37.775 8.725C38.1917 8.74167 38.55 8.88333 38.85 9.15C39.15 9.45 39.3 9.80833 39.3 10.225C39.3 10.6417 39.15 11 38.85 11.3L36 14.1C35.7333 14.3667 35.3917 14.5 34.975 14.5C34.5583 14.5 34.2 14.3667 33.9 14.1ZM9.15 38.85C8.85 38.55 8.7 38.1917 8.7 37.775C8.7 37.3583 8.85 37 9.15 36.7L12 33.9C12.3 33.6 12.65 33.45 13.05 33.45C13.45 33.45 13.8 33.6 14.1 33.9C14.4 34.2 14.55 34.55 14.55 34.95C14.55 35.35 14.4 35.7 14.1 36L11.3 38.85C11 39.15 10.6417 39.2917 10.225 39.275C9.80833 39.2583 9.45 39.1167 9.15 38.85Z" fill="white"/>
</svg>
