<svg width="50" height="50" viewBox="0 0 50 50" fill="none" xmlns="http://www.w3.org/2000/svg">
<path fill-rule="evenodd" clip-rule="evenodd" d="M27.0769 22.456V22.383C27.0619 22.4075 27.0413 22.432 27.0283 22.456H27.0769Z" fill="#FF635F"/>
<path fill-rule="evenodd" clip-rule="evenodd" d="M0 0V50H50V0H0ZM15.5519 41.5387H8.13363V19.2204H15.5519V41.5387ZM11.8427 16.1743H11.7937C9.30527 16.1743 7.69231 14.4599 7.69231 12.317C7.69231 10.1271 9.35242 8.46132 11.8913 8.46132C14.4308 8.46132 15.9913 10.1271 16.0399 12.317C16.0399 14.4599 14.4308 16.1743 11.8427 16.1743ZM42.3077 41.5387H34.8875V29.5984C34.8875 26.5993 33.8154 24.5522 31.1298 24.5522C29.0788 24.5522 27.86 25.9305 27.3231 27.2657C27.1279 27.7426 27.0769 28.4056 27.0769 29.0744V41.5388H19.6553C19.6553 41.5388 19.7547 21.3143 19.6553 19.2205H27.0769V22.3831C28.063 20.8658 29.8226 18.6966 33.7644 18.6966C38.6476 18.6966 42.3077 21.8856 42.3077 28.7403V41.5387Z" fill="#FF635F"/>
</svg>
