<svg width="143" height="115" viewBox="0 0 143 115" fill="none" xmlns="http://www.w3.org/2000/svg">
<g clip-path="url(#clip0_25_469)">
<path d="M94.796 115L94.7658 114.997L47.5613 110.612L4.63654 114.6C3.51579 114.704 2.3996 114.358 1.53349 113.639C0.667392 112.921 0.122334 111.887 0.0182266 110.766C0.00610938 110.636 4.59377e-05 110.505 3.5409e-05 110.374V8.28619C-0.00429719 7.22735 0.38911 6.20548 1.10237 5.4229C1.81563 4.64032 2.79673 4.15409 3.85144 4.06048L47.5613 0L47.5915 0.0028677L94.796 4.3879L137.721 0.40042C138.841 0.296306 139.957 0.641671 140.824 1.36054C141.69 2.0794 142.235 3.11289 142.339 4.23363C142.351 4.36411 142.357 4.49494 142.357 4.62613V106.714C142.361 107.773 141.968 108.794 141.255 109.577C140.541 110.36 139.56 110.846 138.506 110.94L94.796 115Z" fill="#3F3D56"/>
<path d="M65.8018 37.7674C56.6643 31.1126 47.0501 24.8022 37.2286 19.0124L36.7357 18.7219V38.3583H66.6131L65.8018 37.7674ZM37.3886 37.7054V19.8661C46.7318 25.3931 55.8808 31.3901 64.6054 37.7054L37.3886 37.7054ZM112.046 78.1226C108.094 74.0141 104.04 69.9992 99.8841 66.0779C98.7382 64.9957 97.5853 63.9222 96.4253 62.8574C89.346 56.3543 82.0339 50.1696 74.4889 44.3031L74.4008 44.2346H36.7357V78.6759H112.578L112.046 78.1226ZM37.3886 78.023V44.8875H74.1771C81.4523 50.5466 88.5305 56.5225 95.4117 62.815C96.6065 63.907 97.7932 65.0077 98.9717 66.1171C103.092 69.9889 107.115 73.9575 111.042 78.023H37.3886ZM112.046 78.1226C108.094 74.0141 104.04 69.9992 99.8841 66.0779C98.7382 64.9957 97.5853 63.9222 96.4253 62.8574C89.346 56.3543 82.0339 50.1696 74.4889 44.3031L74.4008 44.2346H36.7357V78.6759H112.578L112.046 78.1226ZM37.3886 78.023V44.8875H74.1771C81.4523 50.5466 88.5305 56.5225 95.4117 62.815C96.6065 63.907 97.7932 65.0077 98.9717 66.1171C103.092 69.9889 107.115 73.9575 111.042 78.023H37.3886ZM65.8018 37.7674C56.6643 31.1126 47.0501 24.8022 37.2286 19.0124L36.7357 18.7219V38.3583H66.6131L65.8018 37.7674ZM37.3886 37.7054V19.8661C46.7318 25.3931 55.8808 31.3901 64.6054 37.7054L37.3886 37.7054ZM65.8018 37.7674C56.6643 31.1126 47.0501 24.8022 37.2286 19.0124L36.7357 18.7219V38.3583H66.6131L65.8018 37.7674ZM37.3886 37.7054V19.8661C46.7318 25.3931 55.8808 31.3901 64.6054 37.7054L37.3886 37.7054ZM112.046 78.1226C108.094 74.0141 104.04 69.9992 99.8841 66.0779C98.7382 64.9957 97.5853 63.9222 96.4253 62.8574C89.346 56.3543 82.0339 50.1696 74.4889 44.3031L74.4008 44.2346H36.7357V78.6759H112.578L112.046 78.1226ZM37.3886 78.023V44.8875H74.1771C81.4523 50.5466 88.5305 56.5225 95.4117 62.815C96.6065 63.907 97.7932 65.0077 98.9717 66.1171C103.092 69.9889 107.115 73.9575 111.042 78.023H37.3886ZM4.41956 84.5522V85.2051H30.2065V94.6724H4.41956V95.3253H30.8594V84.5522H4.41956ZM36.7357 101.202V107.817L37.3886 107.757V101.854H137.938V101.202L36.7357 101.202ZM137.938 85.2051V84.5522H36.7357V95.3253H137.938V94.6724H37.3886V85.2051L137.938 85.2051ZM76.9635 37.7054C64.4376 28.043 51.2093 19.3269 37.3886 11.6296V5.0188L36.7356 5.07919V11.7411L37.2384 12.2939C51.0029 19.9703 64.1775 28.6595 76.6533 38.2898L76.7414 38.3583H137.938V37.7054L76.9635 37.7054ZM30.2065 37.7054H4.41956V38.3583H30.8594V5.62438L30.2065 5.68477L30.2065 37.7054ZM137.938 44.2346H84.139L84.8426 44.8124C91.4663 50.2626 97.9699 56.0431 104.353 62.1539C105.261 63.0222 106.165 63.8977 107.066 64.7802C111.552 69.1629 115.95 73.6887 120.26 78.3576L120.798 78.6759H137.938V78.023H120.839C116.576 73.4004 112.22 68.9116 107.771 64.5566C106.882 63.685 105.989 62.8193 105.093 61.9596C98.8476 55.9675 92.4691 50.2768 85.9573 44.8875H137.938V44.2346ZM4.41956 101.202V101.854H30.2065V108.423L30.8594 108.362V101.202H4.41956ZM4.41956 44.2346V44.8875H30.2065V78.023H4.41956V78.6759H30.8594V44.2346H4.41956ZM65.8018 37.7674C56.6643 31.1126 47.0501 24.8022 37.2286 19.0124L36.7357 18.7219V38.3583H66.6131L65.8018 37.7674ZM37.3886 37.7054V19.8661C46.7318 25.3931 55.8808 31.3901 64.6054 37.7054L37.3886 37.7054ZM112.046 78.1226C108.094 74.0141 104.04 69.9992 99.8841 66.0779C98.7382 64.9957 97.5853 63.9222 96.4253 62.8574C89.346 56.3543 82.0339 50.1696 74.4889 44.3031L74.4008 44.2346H36.7357V78.6759H112.578L112.046 78.1226ZM37.3886 78.023V44.8875H74.1771C81.4523 50.5466 88.5305 56.5225 95.4117 62.815C96.6065 63.907 97.7932 65.0077 98.9717 66.1171C103.092 69.9889 107.115 73.9575 111.042 78.023H37.3886ZM65.8018 37.7674C56.6643 31.1126 47.0501 24.8022 37.2286 19.0124L36.7357 18.7219V38.3583H66.6131L65.8018 37.7674ZM37.3886 37.7054V19.8661C46.7318 25.3931 55.8808 31.3901 64.6054 37.7054L37.3886 37.7054ZM112.046 78.1226C108.094 74.0141 104.04 69.9992 99.8841 66.0779C98.7382 64.9957 97.5853 63.9222 96.4253 62.8574C89.346 56.3543 82.0339 50.1696 74.4889 44.3031L74.4008 44.2346H36.7357V78.6759H112.578L112.046 78.1226ZM37.3886 78.023V44.8875H74.1771C81.4523 50.5466 88.5305 56.5225 95.4117 62.815C96.6065 63.907 97.7932 65.0077 98.9717 66.1171C103.092 69.9889 107.115 73.9575 111.042 78.023H37.3886Z" fill="white"/>
<path d="M72.9117 42.966C72.9117 51.2339 57.9414 69.6523 57.9414 69.6523C57.9414 69.6523 42.971 51.2339 42.971 42.966C42.971 38.9956 44.5482 35.1878 47.3557 32.3803C50.1632 29.5728 53.971 27.9956 57.9414 27.9956C61.9118 27.9956 65.7195 29.5728 68.527 32.3803C71.3345 35.1878 72.9117 38.9956 72.9117 42.966Z" fill="#FF635F"/>
<path d="M64.7852 42.3152C64.7852 43.6687 64.3838 44.9918 63.6318 46.1173C62.8798 47.2427 61.811 48.1198 60.5605 48.6378C59.31 49.1558 57.934 49.2913 56.6064 49.0273C55.2789 48.7632 54.0595 48.1114 53.1024 47.1543C52.1453 46.1972 51.4935 44.9778 51.2295 43.6503C50.9654 42.3227 51.1009 40.9467 51.6189 39.6962C52.1369 38.4457 53.014 37.3769 54.1395 36.6249C55.2649 35.8729 56.588 35.4716 57.9416 35.4716C58.8404 35.4711 59.7305 35.6479 60.561 35.9917C61.3915 36.3354 62.1461 36.8395 62.7816 37.4751C63.4172 38.1106 63.9213 38.8652 64.2651 39.6957C64.6088 40.5262 64.7856 41.4163 64.7852 42.3152Z" fill="white"/>
<path d="M57.9414 80.457C60.1701 80.457 61.9769 78.6502 61.9769 76.4215C61.9769 74.1927 60.1701 72.386 57.9414 72.386C55.7126 72.386 53.9059 74.1927 53.9059 76.4215C53.9059 78.6502 55.7126 80.457 57.9414 80.457Z" fill="#FF635F"/>
<path d="M96.6069 25.7615C99.9021 25.7615 102.573 23.0903 102.573 19.7951C102.573 16.4999 99.9021 13.8286 96.6069 13.8286C93.3117 13.8286 90.6404 16.4999 90.6404 19.7951C90.6404 23.0903 93.3117 25.7615 96.6069 25.7615Z" fill="#FF6584"/>
<path d="M115.317 38.1815H86.0474C86.0107 38.182 85.9741 38.1791 85.938 38.1728L99.7812 14.1944C99.8657 14.045 99.9883 13.9208 100.137 13.8344C100.285 13.7479 100.453 13.7024 100.625 13.7024C100.796 13.7024 100.965 13.7479 101.113 13.8344C101.261 13.9208 101.384 14.045 101.468 14.1944L110.759 30.2858L111.204 31.0557L115.317 38.1815Z" fill="white"/>
<path opacity="0.2" d="M115.317 38.1815H105.324L110.229 31.0557L110.582 30.5424L110.759 30.2858L111.204 31.0557L115.317 38.1815Z" fill="black"/>
<path d="M131.614 38.1815H106.298L111.204 31.0557L111.557 30.5424L117.95 21.2562C118.369 20.6476 119.377 20.6097 119.87 21.1414C119.903 21.1777 119.934 21.216 119.962 21.2562L131.614 38.1815Z" fill="white"/>
<path d="M133.493 71.9831C135.16 71.9831 136.512 70.6311 136.512 68.9633C136.512 67.2956 135.16 65.9436 133.493 65.9436C131.825 65.9436 130.473 67.2956 130.473 68.9633C130.473 70.6311 131.825 71.9831 133.493 71.9831Z" fill="white"/>
<path d="M133.784 78.059H133.165L133.447 68.5085L133.784 78.059Z" fill="#CBCBCB"/>
<path d="M133.502 70.3185L134.166 69.3998L133.493 70.546L133.42 70.4186L133.502 70.3185Z" fill="#CBCBCB"/>
<path d="M133.429 71.2462L132.765 70.3276L133.438 71.4736L133.511 71.3463L133.429 71.2462Z" fill="#CBCBCB"/>
<path d="M124.906 69.0853C127.369 69.0853 129.366 67.0885 129.366 64.6254C129.366 62.1623 127.369 60.1655 124.906 60.1655C122.443 60.1655 120.446 62.1623 120.446 64.6254C120.446 67.0885 122.443 69.0853 124.906 69.0853Z" fill="white"/>
<path d="M125.336 78.0589H124.423L124.839 63.9537L125.336 78.0589Z" fill="#CBCBCB"/>
<path d="M124.92 66.6269L125.9 65.2703L124.906 66.9629L124.799 66.7747L124.92 66.6269Z" fill="#CBCBCB"/>
<path d="M124.812 67.9971L123.832 66.6405L124.826 68.3329L124.933 68.145L124.812 67.9971Z" fill="#CBCBCB"/>
<path d="M21.362 71.9831C23.0298 71.9831 24.3818 70.6311 24.3818 68.9633C24.3818 67.2956 23.0298 65.9436 21.362 65.9436C19.6943 65.9436 18.3423 67.2956 18.3423 68.9633C18.3423 70.6311 19.6943 71.9831 21.362 71.9831Z" fill="white"/>
<path d="M21.6533 78.059H21.0348L21.3167 68.5085L21.6533 78.059Z" fill="#CBCBCB"/>
<path d="M21.3712 70.3185L22.0353 69.3998L21.3621 70.546L21.2894 70.4186L21.3712 70.3185Z" fill="#CBCBCB"/>
<path d="M21.2985 71.2462L20.6344 70.3276L21.3076 71.4736L21.3802 71.3463L21.2985 71.2462Z" fill="#CBCBCB"/>
<path d="M12.7757 69.0853C15.2388 69.0853 17.2356 67.0885 17.2356 64.6254C17.2356 62.1623 15.2388 60.1655 12.7757 60.1655C10.3126 60.1655 8.31583 62.1623 8.31583 64.6254C8.31583 67.0885 10.3126 69.0853 12.7757 69.0853Z" fill="white"/>
<path d="M13.2055 78.0589H12.2921L12.7087 63.9537L13.2055 78.0589Z" fill="#CBCBCB"/>
<path d="M12.7892 66.6269L13.7698 65.2703L12.7758 66.9629L12.6684 66.7747L12.7892 66.6269Z" fill="#CBCBCB"/>
<path d="M12.6818 67.9971L11.7011 66.6405L12.6953 68.3329L12.8026 68.145L12.6818 67.9971Z" fill="#CBCBCB"/>
</g>
<defs>
<clipPath id="clip0_25_469">
<rect width="142.357" height="115" fill="white"/>
</clipPath>
</defs>
</svg>
