<svg width="123" height="115" viewBox="0 0 123 115" fill="none" xmlns="http://www.w3.org/2000/svg">
<g clip-path="url(#clip0_25_36)">
<path d="M88.6651 65.2578V97.0257L93.9789 105.686L94.3833 106.344H115.35L115.774 65.2578H88.6651Z" fill="#E6E6E6"/>
<path opacity="0.1" d="M88.6651 65.2578V97.0257L93.9789 105.686L94.305 65.2578H88.6651Z" fill="black"/>
<path d="M38.048 64.4106V96.1787L32.7342 104.839L32.3298 105.497H11.3629L10.9393 64.4106H38.048Z" fill="#E6E6E6"/>
<path opacity="0.1" d="M38.048 64.4106V96.1787L32.7342 104.839L32.4081 64.4106H38.048Z" fill="black"/>
<path d="M122.127 63.7754V65.6813H8.18604V62.9281L18.7753 57.4216H112.809L122.127 63.7754Z" fill="#E6E6E6"/>
<path opacity="0.1" d="M122.127 63.7754V65.6813H8.18604V62.9281L122.127 63.7754Z" fill="black"/>
<path d="M24.4937 73.3057H19.4107L17.2928 71.8232H26.8233L24.4937 73.3057Z" fill="#3F3D56"/>
<path d="M24.4937 79.4476H19.4107L17.2928 77.9651H26.8233L24.4937 79.4476Z" fill="#3F3D56"/>
<path d="M24.4937 88.1309H19.4107L17.2928 86.6482H26.8233L24.4937 88.1309Z" fill="#3F3D56"/>
<path d="M24.4937 96.814H19.4107L17.2928 95.3315H26.8233L24.4937 96.814Z" fill="#3F3D56"/>
<path d="M102.219 74.1528H107.302L109.42 72.6703H99.8898L102.219 74.1528Z" fill="#3F3D56"/>
<path d="M102.219 80.2946H107.302L109.42 78.8121H99.8898L102.219 80.2946Z" fill="#3F3D56"/>
<path d="M102.219 88.978H107.302L109.42 87.4955H99.8898L102.219 88.978Z" fill="#3F3D56"/>
<path d="M102.219 97.6612H107.302L109.42 96.1787H99.8898L102.219 97.6612Z" fill="#3F3D56"/>
<path d="M105.681 20.6852H62.8899C62.6774 20.6852 62.4669 20.727 62.2706 20.8083C62.0742 20.8896 61.8958 21.0088 61.7455 21.1591C61.5953 21.3094 61.4761 21.4878 61.3947 21.6842C61.3134 21.8805 61.2716 22.091 61.2716 22.3035V51.1285C61.2716 51.3411 61.3134 51.5515 61.3947 51.7479C61.4761 51.9442 61.5953 52.1226 61.7455 52.2729C61.8958 52.4232 62.0742 52.5424 62.2706 52.6237C62.4669 52.705 62.6774 52.7469 62.8899 52.7468H79.1337L78.5251 56.6323C78.5251 56.6323 75.0473 58.4799 77.4926 58.5342C79.938 58.5886 91.4585 58.5342 91.4585 58.5342C91.4585 58.5342 93.6865 58.5342 90.1543 56.5779L89.5818 52.7468H105.681C105.893 52.7469 106.104 52.705 106.3 52.6237C106.496 52.5424 106.675 52.4232 106.825 52.2729C106.975 52.1226 107.095 51.9442 107.176 51.7479C107.257 51.5515 107.299 51.3411 107.299 51.1285V22.3035C107.299 22.091 107.257 21.8805 107.176 21.6842C107.095 21.4878 106.975 21.3094 106.825 21.1591C106.675 21.0088 106.496 20.8896 106.3 20.8083C106.104 20.727 105.893 20.6852 105.681 20.6852Z" fill="#3F3D56"/>
<path d="M105.75 22.3969H62.8203V46.4159H105.75V22.3969Z" fill="#F2F2F2"/>
<path d="M84.2853 21.9078C84.4354 21.9078 84.557 21.7861 84.557 21.6361C84.557 21.486 84.4354 21.3644 84.2853 21.3644C84.1353 21.3644 84.0136 21.486 84.0136 21.6361C84.0136 21.7861 84.1353 21.9078 84.2853 21.9078Z" fill="#F2F2F2"/>
<path d="M84.2853 51.5784C84.8556 51.5784 85.3178 51.1162 85.3178 50.5459C85.3178 49.9757 84.8556 49.5134 84.2853 49.5134C83.7151 49.5134 83.2528 49.9757 83.2528 50.5459C83.2528 51.1162 83.7151 51.5784 84.2853 51.5784Z" fill="#F2F2F2"/>
<path d="M82.6764 61.4686V62.0121H53.4406V61.5773L53.4808 61.4686L54.2013 59.5123H82.0787L82.6764 61.4686Z" fill="#3F3D56"/>
<path d="M93.9273 60.9367C93.8741 61.1644 93.673 61.4046 93.2187 61.6317C91.5884 62.4468 88.2736 61.4143 88.2736 61.4143C88.2736 61.4143 85.7195 60.9796 85.7195 59.8384C85.7912 59.7893 85.866 59.7449 85.9434 59.7053C86.6288 59.3427 88.9014 58.4479 92.9309 59.7432C93.2278 59.8364 93.4929 60.0101 93.6969 60.2451C93.7872 60.334 93.8552 60.443 93.8952 60.5632C93.9353 60.6834 93.9463 60.8114 93.9273 60.9367Z" fill="#3F3D56"/>
<path opacity="0.1" d="M93.9273 60.9367C91.9319 61.7013 90.1533 61.7583 88.3279 60.4905C87.6377 59.9802 86.8018 59.705 85.9434 59.7053C86.6288 59.3427 88.9014 58.4479 92.9309 59.7432C93.2278 59.8364 93.4929 60.0101 93.6969 60.2451C93.7872 60.334 93.8552 60.443 93.8953 60.5632C93.9353 60.6834 93.9463 60.8114 93.9273 60.9367Z" fill="black"/>
<path d="M91.4254 60.4905C91.8156 60.4905 92.1319 60.3932 92.1319 60.2732C92.1319 60.1531 91.8156 60.0558 91.4254 60.0558C91.0352 60.0558 90.719 60.1531 90.719 60.2732C90.719 60.3932 91.0352 60.4905 91.4254 60.4905Z" fill="#F2F2F2"/>
<path opacity="0.1" d="M82.6764 61.4686V62.0121H53.4406V61.5773L53.4808 61.4686H82.6764Z" fill="black"/>
<path d="M16.2555 4.43333e-05C15.9588 -0.024317 15.6617 0.0420548 15.4036 0.190365C15.1501 0.363943 14.9904 0.668033 14.8273 0.951007C14.2038 2.04585 13.3598 2.99927 12.3486 3.75089C11.6121 4.29044 10.6757 4.9632 10.8017 5.95799C10.8682 6.28652 10.9896 6.60149 11.1607 6.88968C11.8402 8.26123 13.6943 9.32115 13.5119 10.8862C14.1869 9.75611 13.284 9.19731 13.9591 8.06722C14.2805 7.52904 14.839 6.92154 15.3244 7.25952C15.4869 7.37268 15.5936 7.57565 15.7628 7.67495C16.1666 7.91188 16.5961 7.45892 16.9535 7.13808C18.1859 6.03173 19.9386 6.32157 21.4722 6.66628C22.1962 6.82902 22.9915 7.04253 23.4195 7.73452C23.9822 8.64435 22.8848 9.62697 22.6076 10.6556C22.5849 10.7433 22.5839 10.8351 22.6045 10.9233C22.625 11.0114 22.6667 11.0933 22.7258 11.1618C22.7849 11.2304 22.8598 11.2836 22.9439 11.3169C23.0281 11.3502 23.1191 11.3627 23.2091 11.3532C23.6693 11.3078 24.2144 11.2706 24.2416 11.0686C24.8206 11.0893 25.53 11.0237 25.7781 10.4208C25.8539 10.1823 25.894 9.93385 25.897 9.68358C25.9881 8.6709 26.4179 7.74703 26.7026 6.78319C26.9873 5.81935 27.1111 4.6898 26.6306 3.83525C26.4591 3.55093 26.2471 3.29317 26.0011 3.07013C23.2743 0.431303 19.6892 -0.00387267 16.2555 4.43333e-05Z" fill="#2F2E41"/>
<path d="M14.1049 12.863C14.1049 12.863 14.698 17.8049 12.5235 18.2002C10.3491 18.5956 14.5003 25.3166 14.5003 25.3166L24.3841 26.5027L22.012 18.5956C22.012 18.5956 20.4306 18.0026 21.419 14.049C22.4074 10.0955 14.1049 12.863 14.1049 12.863Z" fill="#FFB8B8"/>
<path d="M8.07581 97.765L8.86659 108.637H13.0177L11.8317 97.765H8.07581Z" fill="#FFB8B8"/>
<path d="M38.518 77.2067L39.111 86.2998L43.6577 84.3231L41.8785 76.8114L38.518 77.2067Z" fill="#FFB8B8"/>
<path d="M5.11066 56.253C5.11066 56.253 5.30833 67.7182 6.4944 71.4741C7.68047 75.2299 7.48278 75.4276 7.28511 76.0207C7.08743 76.6137 6.88975 76.2183 6.88975 77.2067C6.88975 78.1951 6.4944 93.8116 6.88975 95.1953C7.28511 96.579 5.70369 98.9511 6.88975 99.1488C8.07581 99.3465 13.6108 99.1488 13.8084 97.9628C14.0061 96.7767 12.227 96.3814 13.0177 95.5907C13.8084 94.7999 14.9945 78.5905 14.9945 78.5905L17.762 67.3229L22.9016 61.3926H33.7738L37.1343 74.4392C37.1343 74.4392 35.7505 78.1951 36.7389 78.1951C37.7273 78.1951 43.6576 79.3812 43.6576 75.0323C43.6576 70.6834 41.6808 57.8344 41.2855 57.439C40.8901 57.0437 41.4832 55.66 40.8901 55.0669C40.2971 54.4739 33.3784 50.3227 30.8086 49.532C28.2388 48.7413 24.6338 47.8002 24.6338 47.8002L5.11066 56.253Z" fill="#2F2E41"/>
<path d="M43.6576 82.7416C43.6576 82.7416 40.6925 81.7533 39.3087 84.7184C37.925 87.6836 38.518 88.4743 38.518 88.4743C38.518 88.4743 43.0646 90.0557 43.8553 89.265C44.1993 88.9209 45.2917 88.8014 46.4162 88.7762C48.1287 88.7378 48.5844 86.3149 46.967 85.7506C46.9187 85.7338 46.8699 85.7192 46.8204 85.7068C45.239 85.3114 43.6576 82.7416 43.6576 82.7416Z" fill="#2F2E41"/>
<path d="M18.5527 16.1246C21.8279 16.1246 24.483 13.4696 24.483 10.1943C24.483 6.91912 21.8279 4.26404 18.5527 4.26404C15.2775 4.26404 12.6224 6.91912 12.6224 10.1943C12.6224 13.4696 15.2775 16.1246 18.5527 16.1246Z" fill="#FFB8B8"/>
<path d="M10.8433 20.6712C10.8433 20.6712 20.5294 22.6479 22.9016 19.4851C25.2737 16.3223 26.2621 28.3805 26.2621 28.3805L27.4481 41.0319L25.669 47.9505C25.669 47.9505 16.3782 55.4623 13.4131 56.0553C10.4479 56.6483 5.90137 57.0437 5.90137 57.0437C5.90137 57.0437 7.28511 35.1016 7.28511 34.7062C7.28511 34.3109 10.8433 20.6712 10.8433 20.6712Z" fill="#FF635F"/>
<path d="M13.789 16.9639C13.789 16.9639 11.634 15.7293 11.0409 16.9154C10.4479 18.1014 4.91295 21.0666 4.31992 21.0666C3.72689 21.0666 5.50598 37.4737 4.71527 39.4505C3.92457 41.4273 0.168709 55.8577 2.34315 57.0437C4.5176 58.2298 2.93618 55.8577 5.11063 58.8228C7.28507 61.788 17.9596 61.788 18.5526 60.6019C19.1457 59.4159 13.8084 50.5204 14.7968 42.218C15.7852 33.9156 17.3666 22.4503 15.9828 20.8689C14.5991 19.2875 13.789 16.9639 13.789 16.9639Z" fill="#2F2E41"/>
<path d="M20.9248 18.299L21.2001 17.3514C21.2001 17.3514 29.4249 20.0781 29.8203 21.8572C30.2156 23.6363 30.0179 36.0899 28.6342 37.0783C27.2505 38.0667 25.2737 39.6481 26.6574 42.0202C28.0412 44.3923 29.6226 46.9621 30.8086 47.1598C31.9947 47.3575 34.1691 48.7412 33.5761 50.125C32.9831 51.5087 25.8667 48.9389 25.8667 48.9389C25.8667 48.9389 21.1225 45.3807 21.3202 39.8458C21.5178 34.3108 20.9248 18.299 20.9248 18.299Z" fill="#2F2E41"/>
<path d="M27.8435 41.6249L23.0992 50.5203C23.0992 50.5203 16.1805 57.6367 20.1341 58.4274C24.0876 59.2181 26.2621 51.9041 26.2621 51.9041L31.4017 44.59L27.8435 41.6249Z" fill="#FFB8B8"/>
<path d="M16.5445 1.55165C16.3054 1.53394 16.066 1.58038 15.8509 1.68617C15.6565 1.8282 15.4962 2.01188 15.3818 2.22379C14.8546 3.0169 14.1673 3.69098 13.3641 4.20273C12.7645 4.58408 12.0023 5.05958 12.1048 5.76269C12.1605 5.99844 12.2596 6.22175 12.3971 6.4212C12.9521 7.4004 13.173 8.53374 13.0265 9.64971L14.675 7.25349C14.9367 6.87311 15.3913 6.44373 15.7864 6.68261C15.9187 6.76259 16.0056 6.90605 16.1433 6.97623C16.472 7.14369 16.8217 6.82355 17.1126 6.59678C18.1159 5.81482 19.5426 6.01967 20.791 6.26331C21.3804 6.37833 22.0278 6.52924 22.3762 7.01834C22.9552 7.83112 22.3506 9.00554 22.6886 9.9445C22.7831 9.87827 22.8635 9.79373 22.9248 9.69588C22.9861 9.59803 23.0271 9.48887 23.0455 9.37487C23.5168 9.38943 24.0943 9.3431 24.2962 8.91699C24.3576 8.75 24.3904 8.57382 24.393 8.39591C24.4671 7.68015 24.817 7.02717 25.0488 6.34593C25.2806 5.6647 25.3814 4.86634 24.9902 4.26235C24.8471 4.0577 24.6744 3.87545 24.4778 3.72156C22.258 1.85646 19.3396 1.54889 16.5445 1.55165Z" fill="#2F2E41"/>
<path d="M27.8435 21.0665L29.6852 21.5554C29.6852 21.5554 33.9714 32.5318 32.9831 40.0435C31.9947 47.5552 31.4016 45.9738 31.4016 45.9738C31.4016 45.9738 29.8202 42.4156 26.2621 43.2063L27.8435 21.0665Z" fill="#2F2E41"/>
<path d="M8.34966 107.2C7.87297 107.848 7.96855 108.774 7.54629 109.459C7.18028 110.052 6.49048 110.363 6.03266 110.889C5.88658 111.064 5.75635 111.251 5.64351 111.449C5.21882 112.16 4.87362 113.072 5.29189 113.787C5.62836 114.362 6.33559 114.587 6.98422 114.74C7.80404 114.934 8.65583 115.089 9.48511 114.941C10.3144 114.793 11.1249 114.285 11.4206 113.497C11.4787 113.298 11.5477 113.103 11.6275 112.913C12.077 112.028 13.4868 112.018 13.9468 111.139C14.2688 110.523 13.9728 109.779 13.677 109.151L12.7736 107.231C12.4738 106.595 11.2584 106.961 10.6247 106.808C9.79836 106.609 8.94415 106.39 8.34966 107.2Z" fill="#2F2E41"/>
<path d="M1.75012 45.5784L10.0525 58.4274C10.0525 58.4274 15.1921 64.9507 16.7736 61.9856C18.355 59.0204 11.2386 54.0785 11.2386 54.0785L5.90133 44.1947L1.75012 45.5784Z" fill="#FFB8B8"/>
<path d="M5.90135 21.4619L4.31994 21.0665C4.31994 21.0665 1.15712 22.0549 0.36641 26.2061C-0.424296 30.3573 0.168732 46.9622 1.15712 47.1599C2.1455 47.3575 6.03873 44.2686 6.66191 44.9235C7.2851 45.5784 5.30832 42.2179 5.90135 40.4388C6.49437 38.6598 5.90135 21.4619 5.90135 21.4619Z" fill="#2F2E41"/>
<path d="M80.2221 30.2855H75.1129V31.5155H80.2221V30.2855Z" fill="#FF635F"/>
<path d="M97.9149 30.2855H96.1172V31.5155H97.9149V30.2855Z" fill="#FF635F"/>
<path d="M101.51 30.2855H99.7126V31.5155H101.51V30.2855Z" fill="#FF635F"/>
<path d="M94.2249 30.2855H82.0197V31.5155H94.2249V30.2855Z" fill="#FF635F"/>
<path d="M73.7883 38.2332H68.6791V39.4631H73.7883V38.2332Z" fill="#FF635F"/>
<path d="M91.4811 38.2332H89.6835V39.4631H91.4811V38.2332Z" fill="#FF635F"/>
<path d="M95.0765 38.2332H93.2788V39.4631H95.0765V38.2332Z" fill="#FF635F"/>
<path d="M87.7912 38.2332H75.5859V39.4631H87.7912V38.2332Z" fill="#FF635F"/>
<path d="M94.8872 33.0293H89.7781V34.2593H94.8872V33.0293Z" fill="#FF635F"/>
<path d="M101.794 33.0293H96.6849V34.2593H101.794V33.0293Z" fill="#FF635F"/>
<path d="M70.4768 33.0293H68.6791V34.2593H70.4768V33.0293Z" fill="#FF635F"/>
<path d="M74.0721 33.0293H72.2744V34.2593H74.0721V33.0293Z" fill="#FF635F"/>
<path d="M88.075 33.0293H75.8698V34.2593H88.075V33.0293Z" fill="#FF635F"/>
<path d="M84.2904 35.6786H79.1813V36.9086H84.2904V35.6786Z" fill="#FF635F"/>
<path d="M77.3836 35.6786H72.2744V36.9086H77.3836V35.6786Z" fill="#FF635F"/>
<path d="M70.4768 35.6786H68.6791V36.9086H70.4768V35.6786Z" fill="#FF635F"/>
<path d="M101.794 35.6786H99.9964V36.9086H101.794V35.6786Z" fill="#FF635F"/>
<path d="M98.1987 35.6786H85.9935V36.9086H98.1987V35.6786Z" fill="#FF635F"/>
</g>
<defs>
<clipPath id="clip0_25_36">
<rect width="122.127" height="115" fill="white"/>
</clipPath>
</defs>
</svg>
