<svg width="90" height="115" viewBox="0 0 90 115" fill="none" xmlns="http://www.w3.org/2000/svg">
<path d="M78.2069 92.4107V2.73804L11.4658 2.73804V92.4107H78.2069Z" fill="#2F2E41"/>
<path d="M89.6727 0H0V35.5953H89.6727V0Z" fill="#3F3D56"/>
<path d="M89.6727 39.7023H0V75.2975H89.6727V39.7023Z" fill="#3F3D56"/>
<path d="M89.6727 79.4048H0V115H89.6727V79.4048Z" fill="#3F3D56"/>
<path d="M89.6727 15.0924H0V20.5686H89.6727V15.0924Z" fill="#FF635F"/>
<path d="M89.6727 54.7949H0V60.2711H89.6727V54.7949Z" fill="#FF635F"/>
<path d="M89.6727 94.4972H0V99.9734H89.6727V94.4972Z" fill="#FF635F"/>
<path d="M72.2173 7.18747C73.3515 7.18747 74.2709 6.26805 74.2709 5.1339C74.2709 3.99974 73.3515 3.08032 72.2173 3.08032C71.0832 3.08032 70.1638 3.99974 70.1638 5.1339C70.1638 6.26805 71.0832 7.18747 72.2173 7.18747Z" fill="#FF635F"/>
<path d="M79.4049 7.18747C80.539 7.18747 81.4584 6.26805 81.4584 5.1339C81.4584 3.99974 80.539 3.08032 79.4049 3.08032C78.2707 3.08032 77.3513 3.99974 77.3513 5.1339C77.3513 6.26805 78.2707 7.18747 79.4049 7.18747Z" fill="#FF635F"/>
<path d="M86.5923 7.18747C87.7265 7.18747 88.6459 6.26805 88.6459 5.1339C88.6459 3.99974 87.7265 3.08032 86.5923 3.08032C85.4582 3.08032 84.5388 3.99974 84.5388 5.1339C84.5388 6.26805 85.4582 7.18747 86.5923 7.18747Z" fill="#FF635F"/>
<path d="M72.2173 46.2053C73.3515 46.2053 74.2709 45.2859 74.2709 44.1517C74.2709 43.0176 73.3515 42.0981 72.2173 42.0981C71.0832 42.0981 70.1638 43.0176 70.1638 44.1517C70.1638 45.2859 71.0832 46.2053 72.2173 46.2053Z" fill="#FF635F"/>
<path d="M79.4049 46.2053C80.539 46.2053 81.4584 45.2859 81.4584 44.1517C81.4584 43.0176 80.539 42.0981 79.4049 42.0981C78.2707 42.0981 77.3513 43.0176 77.3513 44.1517C77.3513 45.2859 78.2707 46.2053 79.4049 46.2053Z" fill="#FF635F"/>
<path d="M86.5923 46.2053C87.7265 46.2053 88.6459 45.2859 88.6459 44.1517C88.6459 43.0176 87.7265 42.0981 86.5923 42.0981C85.4582 42.0981 84.5388 43.0176 84.5388 44.1517C84.5388 45.2859 85.4582 46.2053 86.5923 46.2053Z" fill="#FF635F"/>
<path d="M72.2173 85.2232C73.3515 85.2232 74.2709 84.3038 74.2709 83.1697C74.2709 82.0355 73.3515 81.1161 72.2173 81.1161C71.0832 81.1161 70.1638 82.0355 70.1638 83.1697C70.1638 84.3038 71.0832 85.2232 72.2173 85.2232Z" fill="#FF635F"/>
<path d="M79.4049 85.2232C80.539 85.2232 81.4584 84.3038 81.4584 83.1697C81.4584 82.0355 80.539 81.1161 79.4049 81.1161C78.2707 81.1161 77.3513 82.0355 77.3513 83.1697C77.3513 84.3038 78.2707 85.2232 79.4049 85.2232Z" fill="#FF635F"/>
<path d="M86.5923 85.2232C87.7265 85.2232 88.6459 84.3038 88.6459 83.1697C88.6459 82.0355 87.7265 81.1161 86.5923 81.1161C85.4582 81.1161 84.5388 82.0355 84.5388 83.1697C84.5388 84.3038 85.4582 85.2232 86.5923 85.2232Z" fill="#FF635F"/>
</svg>
