<svg width="350" height="422" viewBox="0 0 350 422" fill="none" xmlns="http://www.w3.org/2000/svg">
<g clip-path="url(#clip0_3_137)">
<path d="M161.685 0.760835C156.092 2.16844 150.424 5.05975 143.043 10.4239C128.397 20.9619 115.88 36.5597 111.467 49.7989C109.908 54.4021 109.603 57.1413 109.984 62.7337C110.745 73.5761 113.027 77.875 124.136 89.288C129.043 94.3478 129.728 95.1848 129.728 96.3261C129.728 98.2282 130.755 102.679 131.592 104.353L132.315 105.799L130.565 106.56C123.413 109.641 110.63 111.391 99.2935 110.897L93.7772 110.63L92.8641 111.62L91.9511 112.571L92.6359 114.397C94.0815 118.239 97.8478 125.125 100.359 128.397C106.255 136.196 113.484 140.152 123.375 141.065L126.304 141.331L124.935 143.348C124.212 144.489 121.777 147.228 119.571 149.511L115.614 153.658L117.06 153.962C119.723 154.533 129.728 154.304 132.125 153.62L134.293 153.011V154.19C134.255 155.902 133.076 158.337 130.451 161.951C129.234 163.663 128.207 165.147 128.207 165.261C128.207 166.022 137.375 165.071 140.609 163.967C141.788 163.549 142.853 163.206 142.929 163.206C143.005 163.206 142.054 164.576 140.761 166.212C139.201 168.304 138.63 169.331 138.935 169.522C139.163 169.674 142.054 169.864 145.288 169.978C149.853 170.092 152.06 169.978 154.837 169.484C156.815 169.103 158.908 168.723 159.516 168.647C160.353 168.495 160.543 168.571 160.543 169.217C160.543 169.864 160.011 170.092 157.043 170.815C135.092 176.141 121.739 187.516 119.418 202.886C118.962 205.739 118.734 206.272 116.603 209.429C115.31 211.293 112.152 216.353 109.565 220.614C101.728 233.739 94.8805 243.554 87.0815 252.799C85.1794 255.082 82.0978 258.962 80.2718 261.359C65.587 280.761 51.8533 293.734 31.5381 307.391C21.9891 313.821 17.0815 318.196 12.4022 324.397C6.4674 332.272 3.08153 340.489 1.10327 351.75C0.342402 355.973 0.228271 357.951 0.228271 366.168C0.228271 377.696 1.36958 387.929 4.03262 400.103L4.64132 402.88L7.60871 398.962C15.1413 389.109 23.0163 381.842 29.8641 378.418C34.087 376.288 36.0272 375.755 40.1739 375.565C44.2826 375.413 46.8696 375.908 50.0272 377.467C52.5381 378.723 56.7989 382.147 58.8913 384.62L60.8315 386.94L55.5054 402.614C52.5761 411.25 50.0652 418.554 49.9891 418.897C49.837 419.315 51.7011 421.065 56.5707 424.984C60.2989 427.989 65.1304 432.25 67.337 434.457C71.1794 438.299 74.7554 442.75 74.7554 443.701C74.7554 444.462 67.8315 449.027 58.587 454.353L49.6468 459.451L46.4511 459.717C42.7609 460.022 40.9728 460.783 38.8044 463.065C34.7337 467.212 32.6794 475.962 34.7718 480.071C35.5707 481.554 36.8261 482.125 41.7718 483.228C44.8533 483.913 46.7554 484.065 53.2609 484.065C60.2609 484.103 61.4022 484.027 64.2935 483.228C66.0815 482.734 69.087 481.516 70.9511 480.527C72.8533 479.5 77.1141 477.712 80.462 476.495C87.5381 473.946 89.7446 472.995 91.9891 471.587C92.9022 471.016 93.8152 470.674 94.0435 470.826C94.2718 470.978 95.7174 472.005 97.2391 473.071C107.245 480.261 121.587 484.94 137.527 486.234C149.625 487.185 159.859 485.777 168.837 481.935L171.766 480.679L174.201 481.554C175.571 482.011 179.337 482.848 182.571 483.38C185.88 483.913 190.103 484.864 192.12 485.549C195.505 486.69 196.076 486.766 200.87 486.766C207.755 486.728 212.321 485.701 219.929 482.543C225.37 480.261 225.788 479.766 225.788 475.81C225.788 473.071 225.636 472.386 224.533 470.179C223.087 467.174 220.348 464.168 217.989 462.951C216.734 462.304 215.516 462.076 213.538 462C211.103 461.924 210.533 461.772 208.022 460.288C204.255 458.082 201.06 455.913 199.272 454.315L197.826 453.022L200.946 449.56C209.81 439.859 215.63 434.799 221.147 432.136C222.783 431.337 224.304 430.652 224.457 430.576C225.103 430.348 221.223 410.337 219.13 403.033C218.712 401.587 218.37 400.293 218.37 400.179C218.37 400.027 219.092 400.065 220.005 400.255C222.592 400.75 227.88 400.636 231.533 400.027C246.179 397.44 261.663 386.674 271.174 372.446C274.522 367.424 277.832 360.12 278.897 355.364C279.467 352.815 279.924 350 279.734 350C279.62 350 278.859 350.571 277.984 351.255C275.359 353.386 271.897 355.288 268.929 356.353C265.163 357.647 259.571 357.951 256.033 357.076C247.283 354.87 240.207 347.679 237.087 337.826C235.679 333.299 235.527 333.641 238.685 333.641C240.207 333.641 242.261 333.413 243.288 333.109C245.038 332.576 245.152 332.576 246.332 333.451C250.25 336.457 254.739 336.152 259.038 332.538C260.788 331.092 260.826 331.054 261.929 331.663C262.576 332.005 263.984 332.272 265.163 332.272C267.864 332.272 269.919 331.207 273 328.277C275.13 326.185 275.435 326.033 277.071 326.033C278.022 326.033 279.772 325.69 280.913 325.272C285.25 323.636 288.027 320.668 288.826 316.826L289.283 314.543L292.745 314.734C296.777 314.924 297.995 314.505 299.364 312.527C300.391 310.967 301.304 307.886 301.304 305.87C301.304 303.777 300.315 300.886 299.098 299.44C298.185 298.375 297.69 298.109 295.826 297.842C294.609 297.69 293.582 297.5 293.505 297.424C293.353 297.272 297.424 272.734 299.402 262.12C308.342 213.5 319.223 171.424 332.158 135.359C333.794 130.717 335.239 126.875 335.353 126.761C335.429 126.685 337.217 127.065 339.31 127.636C343.685 128.815 344.446 128.739 346.538 126.875C350.228 123.527 351.103 115.956 348.174 112.989C347.413 112.266 346.31 111.81 344.103 111.353C342.429 110.973 340.87 110.554 340.641 110.402C340.413 110.25 339.995 108.69 339.766 106.902C338.511 98.4945 335.049 92.4837 330.636 91.3043C329.457 91 328.962 90.6195 328.467 89.5924C327.212 86.9293 324.054 84.7989 319.832 83.7337C318.424 83.3913 317.511 82.8206 316.027 81.2608C313.554 78.75 311.5 77.9891 307.201 77.9891C303.359 77.9891 302.103 78.4076 299.364 80.4619C297.272 82.0598 297.234 82.0598 295.179 81.7554C291.337 81.1087 286.81 82.0217 284.299 83.9239L283.005 84.913L281.141 84.1141C278.516 82.9728 274.864 83.0108 273.114 84.1902C272.049 84.875 269.614 88.6793 268.511 91.3804C268.435 91.5326 267.217 91.3043 265.734 90.8858C262.196 89.8967 261.359 89.9728 259.571 91.2663C256.755 93.3206 255.005 98.6467 255.804 102.87C256.185 104.962 257.973 106.75 260.217 107.321C261.283 107.587 262.12 107.929 262.12 108.081C262.12 108.234 260.902 111.315 259.419 114.967C255.424 124.745 251.429 135.245 249.071 142.092L246.978 148.179L243.44 151.641C237.315 157.614 229.669 164.234 222.554 169.75C218.255 173.06 213.424 176.522 213.044 176.522C212.891 176.522 212.549 175.761 212.321 174.848C212.016 173.554 212.054 169.522 212.473 158.565C212.815 150.538 213.12 143.804 213.234 143.538C213.31 143.272 214.299 142.625 215.402 142.054C216.505 141.484 218.56 139.886 219.967 138.478C222.022 136.424 222.592 135.549 223.125 133.799C223.505 132.467 223.658 131.174 223.467 130.337C223.239 129.12 223.391 128.853 224.989 127.255C225.94 126.304 227.31 124.288 228.033 122.766C229.44 119.913 231.228 114.321 230.848 113.94C230.734 113.826 229.669 114.359 228.413 115.081C226.016 116.527 224.152 117.174 222.326 117.174C220.576 117.174 220.5 116.793 222.098 115.424C223.696 114.092 225.674 110.63 226.549 107.853C227.158 105.761 228.071 99.3695 227.804 99.0652C227.69 98.9511 225.217 99.4076 222.326 100.092C213.272 102.185 210.152 101.88 204.978 98.3804C201.06 95.7174 201.212 96.0217 203.114 94.3098C204.027 93.5108 206.842 91.4184 209.391 89.7065C221.679 81.413 225.902 77.3424 230.429 69.4293C232.332 66.1576 234.158 62.0489 233.853 61.7826C233.397 61.3261 223.848 58.8532 217.799 57.6358C207.794 55.6195 201.669 55.0489 192.31 55.2771C184.13 55.4293 179.984 55.9619 174.924 57.4837L172.375 58.2445L168.076 55.7717C160.772 51.5489 153.62 49.0761 146.391 48.2391L142.663 47.8206V46.2228C142.663 44.0924 144.185 38.1956 145.707 34.3913C147.418 30.0924 150.082 25.7174 152.707 22.9021C155.446 19.9728 157.31 18.6413 160.505 17.3478C166.859 14.7608 172.337 8.74997 172.337 4.33692C172.337 0.418443 168.418 -0.913078 161.685 0.760835ZM226.815 225.864C225.902 230.011 223.81 239.978 222.174 248.043C220.31 257.25 219.13 262.348 218.978 261.739C218.864 261.207 217.989 254.777 217.038 247.473C216.087 240.13 214.984 231.761 214.565 228.831C213.957 224.647 213.919 223.429 214.299 223.201C214.679 222.935 227.652 218.484 228.299 218.408C228.413 218.37 227.766 221.755 226.815 225.864Z" fill="url(#paint0_linear_3_137)"/>
</g>
<defs>
<linearGradient id="paint0_linear_3_137" x1="175.078" y1="486.766" x2="175.078" y2="0.0523071" gradientUnits="userSpaceOnUse">
<stop stop-color="#352A66"/>
<stop offset="1" stop-color="#48418E"/>
</linearGradient>
<clipPath id="clip0_3_137">
<rect width="350" height="486.957" fill="white"/>
</clipPath>
</defs>
</svg>
