<svg width="400" height="557" viewBox="0 0 400 557" fill="none" xmlns="http://www.w3.org/2000/svg">
<g clip-path="url(#clip0_3_27)">
<path d="M184.783 0.869507C178.391 2.47815 171.913 5.78253 163.478 11.913C146.739 23.9564 132.435 41.7825 127.391 56.913C125.609 62.1738 125.261 65.3043 125.696 71.6956C126.565 84.0869 129.174 88.9999 141.87 102.043C147.478 107.826 148.261 108.783 148.261 110.087C148.261 112.261 149.435 117.348 150.391 119.261L151.217 120.913L149.217 121.783C141.043 125.304 126.435 127.304 113.478 126.739L107.174 126.435L106.13 127.565L105.087 128.652L105.87 130.739C107.522 135.13 111.826 143 114.696 146.739C121.435 155.652 129.696 160.174 141 161.217L144.348 161.522L142.783 163.826C141.957 165.13 139.174 168.261 136.652 170.87L132.13 175.609L133.783 175.956C136.826 176.609 148.261 176.348 151 175.565L153.478 174.87V176.217C153.435 178.174 152.087 180.956 149.087 185.087C147.696 187.043 146.522 188.739 146.522 188.87C146.522 189.739 157 188.652 160.696 187.391C162.043 186.913 163.261 186.522 163.348 186.522C163.435 186.522 162.348 188.087 160.87 189.956C159.087 192.348 158.435 193.522 158.783 193.739C159.043 193.913 162.348 194.13 166.043 194.261C171.261 194.391 173.783 194.261 176.957 193.696C179.217 193.261 181.609 192.826 182.304 192.739C183.261 192.565 183.478 192.652 183.478 193.391C183.478 194.13 182.87 194.391 179.478 195.217C154.391 201.304 139.13 214.304 136.478 231.87C135.957 235.13 135.696 235.739 133.261 239.348C131.783 241.478 128.174 247.261 125.217 252.13C116.261 267.13 108.435 278.348 99.5217 288.913C97.3478 291.522 93.8261 295.956 91.7391 298.696C74.9565 320.87 59.2609 335.696 36.0435 351.304C25.1304 358.652 19.5217 363.652 14.1739 370.739C7.3913 379.739 3.52173 389.13 1.26086 402C0.391299 406.826 0.260864 409.087 0.260864 418.478C0.260864 431.652 1.56521 443.348 4.60869 457.261L5.30434 460.435L8.69565 455.956C17.3043 444.696 26.3043 436.391 34.1304 432.478C38.9565 430.043 41.1739 429.435 45.913 429.217C50.6087 429.043 53.5652 429.609 57.1739 431.391C60.0435 432.826 64.913 436.739 67.3044 439.565L69.5217 442.217L63.4348 460.13C60.087 470 57.2174 478.348 57.1304 478.739C56.9565 479.217 59.087 481.217 64.6522 485.696C68.913 489.13 74.4348 494 76.9565 496.522C81.3478 500.913 85.4348 506 85.4348 507.087C85.4348 507.956 77.5217 513.174 66.9565 519.261L56.7391 525.087L53.087 525.391C48.8696 525.739 46.8261 526.609 44.3478 529.217C39.6957 533.956 37.3478 543.956 39.7391 548.652C40.6522 550.348 42.087 551 47.7391 552.261C51.2609 553.043 53.4348 553.217 60.8696 553.217C68.8696 553.261 70.1739 553.174 73.4783 552.261C75.5217 551.696 78.9565 550.304 81.087 549.174C83.2609 548 88.1304 545.956 91.9565 544.565C100.043 541.652 102.565 540.565 105.13 538.956C106.174 538.304 107.217 537.913 107.478 538.087C107.739 538.261 109.391 539.435 111.13 540.652C122.565 548.87 138.957 554.217 157.174 555.696C171 556.783 182.696 555.174 192.957 550.783L196.304 549.348L199.087 550.348C200.652 550.87 204.957 551.826 208.652 552.435C212.435 553.043 217.261 554.13 219.565 554.913C223.435 556.217 224.087 556.304 229.565 556.304C237.435 556.261 242.652 555.087 251.348 551.478C257.565 548.87 258.043 548.304 258.043 543.783C258.043 540.652 257.87 539.87 256.609 537.348C254.957 533.913 251.826 530.478 249.13 529.087C247.696 528.348 246.304 528.087 244.044 528C241.261 527.913 240.609 527.739 237.739 526.043C233.435 523.522 229.783 521.043 227.739 519.217L226.087 517.739L229.652 513.783C239.783 502.696 246.435 496.913 252.739 493.87C254.609 492.956 256.348 492.174 256.522 492.087C257.261 491.826 252.826 468.956 250.435 460.609C249.957 458.956 249.565 457.478 249.565 457.348C249.565 457.174 250.391 457.217 251.435 457.435C254.391 458 260.435 457.87 264.609 457.174C281.348 454.217 299.044 441.913 309.913 425.652C313.739 419.913 317.522 411.565 318.739 406.13C319.391 403.217 319.913 400 319.696 400C319.565 400 318.696 400.652 317.696 401.435C314.696 403.87 310.739 406.043 307.348 407.261C303.044 408.739 296.652 409.087 292.609 408.087C282.609 405.565 274.522 397.348 270.957 386.087C269.348 380.913 269.174 381.304 272.783 381.304C274.522 381.304 276.87 381.043 278.043 380.696C280.043 380.087 280.174 380.087 281.522 381.087C286 384.522 291.13 384.174 296.044 380.043C298.044 378.391 298.087 378.348 299.348 379.043C300.087 379.435 301.696 379.739 303.044 379.739C306.13 379.739 308.478 378.522 312 375.174C314.435 372.783 314.783 372.609 316.652 372.609C317.739 372.609 319.739 372.217 321.044 371.739C326 369.87 329.174 366.478 330.087 362.087L330.609 359.478L334.565 359.696C339.174 359.913 340.565 359.435 342.13 357.174C343.304 355.391 344.348 351.87 344.348 349.565C344.348 347.174 343.217 343.87 341.826 342.217C340.783 341 340.217 340.696 338.087 340.391C336.696 340.217 335.522 340 335.435 339.913C335.261 339.739 339.913 311.696 342.174 299.565C352.391 244 364.826 195.913 379.609 154.696C381.478 149.391 383.13 145 383.261 144.87C383.348 144.783 385.391 145.217 387.783 145.87C392.783 147.217 393.652 147.13 396.044 145C400.261 141.174 401.261 132.522 397.913 129.13C397.044 128.304 395.783 127.783 393.261 127.261C391.348 126.826 389.565 126.348 389.304 126.174C389.044 126 388.565 124.217 388.304 122.174C386.87 112.565 382.913 105.696 377.87 104.348C376.522 104 375.957 103.565 375.391 102.391C373.957 99.3477 370.348 96.913 365.522 95.6956C363.913 95.3043 362.87 94.6521 361.174 92.8695C358.348 89.9999 356 89.1304 351.087 89.1304C346.696 89.1304 345.261 89.6086 342.13 91.9565C339.739 93.7825 339.696 93.7825 337.348 93.4347C332.957 92.6956 327.783 93.739 324.913 95.913L323.435 97.0434L321.304 96.1304C318.304 94.826 314.13 94.8695 312.13 96.2173C310.913 96.9999 308.13 101.348 306.87 104.435C306.783 104.609 305.391 104.348 303.696 103.869C299.652 102.739 298.696 102.826 296.652 104.304C293.435 106.652 291.435 112.739 292.348 117.565C292.783 119.956 294.826 122 297.391 122.652C298.609 122.956 299.565 123.348 299.565 123.522C299.565 123.696 298.174 127.217 296.478 131.391C291.913 142.565 287.348 154.565 284.652 162.391L282.261 169.348L278.217 173.304C271.217 180.13 262.478 187.696 254.348 194C249.435 197.783 243.913 201.739 243.478 201.739C243.304 201.739 242.913 200.87 242.652 199.826C242.304 198.348 242.348 193.739 242.826 181.217C243.217 172.043 243.565 164.348 243.696 164.043C243.783 163.739 244.913 163 246.174 162.348C247.435 161.696 249.783 159.87 251.391 158.261C253.739 155.913 254.391 154.913 255 152.913C255.435 151.391 255.609 149.913 255.391 148.956C255.13 147.565 255.304 147.261 257.13 145.435C258.217 144.348 259.783 142.043 260.609 140.304C262.217 137.043 264.261 130.652 263.826 130.217C263.696 130.087 262.478 130.696 261.043 131.522C258.304 133.174 256.174 133.913 254.087 133.913C252.087 133.913 252 133.478 253.826 131.913C255.652 130.391 257.913 126.435 258.913 123.261C259.609 120.87 260.652 113.565 260.348 113.217C260.217 113.087 257.391 113.609 254.087 114.391C243.739 116.783 240.174 116.435 234.261 112.435C229.783 109.391 229.957 109.739 232.13 107.783C233.174 106.87 236.391 104.478 239.304 102.522C253.348 93.0434 258.174 88.3912 263.348 79.3477C265.522 75.6086 267.609 70.913 267.261 70.6086C266.739 70.0869 255.826 67.2608 248.913 65.8695C237.478 63.5651 230.478 62.913 219.783 63.1738C210.435 63.3477 205.696 63.9565 199.913 65.6956L197 66.5651L192.087 63.739C183.739 58.913 175.565 56.0869 167.304 55.1304L163.043 54.6521V52.826C163.043 50.3912 164.783 43.6521 166.522 39.3043C168.478 34.3912 171.522 29.3912 174.522 26.1738C177.652 22.826 179.783 21.3043 183.435 19.826C190.696 16.8695 196.957 9.99994 196.957 4.95642C196.957 0.478149 192.478 -1.04358 184.783 0.869507ZM259.217 258.13C258.174 262.87 255.783 274.261 253.913 283.478C251.783 294 250.435 299.826 250.261 299.13C250.13 298.522 249.13 291.174 248.044 282.826C246.957 274.435 245.696 264.87 245.217 261.522C244.522 256.739 244.478 255.348 244.913 255.087C245.348 254.783 260.174 249.696 260.913 249.609C261.043 249.565 260.304 253.435 259.217 258.13Z" fill="#F87C62"/>
</g>
<defs>
<clipPath id="clip0_3_27">
<rect width="400" height="556.522" fill="white"/>
</clipPath>
</defs>
</svg>
