<svg width="210" height="115" viewBox="0 0 210 115" fill="none" xmlns="http://www.w3.org/2000/svg">
<g clip-path="url(#clip0_27_191)">
<path d="M174.479 18.0791H89.5782V35.5476H174.479V18.0791Z" stroke="#3F3D56" stroke-miterlimit="10"/>
<path d="M38.9131 42.8926C41.3341 39.1095 45.9179 36.5571 51.1741 36.5571C58.9544 36.5571 65.2616 42.1495 65.2616 49.0481C65.2616 53.4587 62.6833 57.3354 58.7903 59.558" stroke="#3F3D56" stroke-miterlimit="10"/>
<path d="M168.468 21.46H83.5675V38.9285H168.468V21.46Z" fill="#FF635F"/>
<path d="M29.8977 4.78986C30.6238 4.78986 31.2125 4.20118 31.2125 3.47501C31.2125 2.74884 30.6238 2.16016 29.8977 2.16016C29.1715 2.16016 28.5828 2.74884 28.5828 3.47501C28.5828 4.20118 29.1715 4.78986 29.8977 4.78986Z" fill="#FF635F"/>
<path d="M34.4057 4.78986C35.1318 4.78986 35.7205 4.20118 35.7205 3.47501C35.7205 2.74884 35.1318 2.16016 34.4057 2.16016C33.6795 2.16016 33.0908 2.74884 33.0908 3.47501C33.0908 4.20118 33.6795 4.78986 34.4057 4.78986Z" fill="#FF635F"/>
<path d="M38.9137 4.78986C39.6398 4.78986 40.2285 4.20118 40.2285 3.47501C40.2285 2.74884 39.6398 2.16016 38.9137 2.16016C38.1875 2.16016 37.5988 2.74884 37.5988 3.47501C37.5988 4.20118 38.1875 4.78986 38.9137 4.78986Z" fill="#FF635F"/>
<path d="M184.109 0.0939941H26.3289V102.651H184.109V0.0939941Z" stroke="#3F3D56" stroke-miterlimit="10"/>
<path d="M26.3289 5.79175H184.109" stroke="#3F3D56" stroke-miterlimit="10"/>
<path d="M30.2733 4.22638C30.9995 4.22638 31.5882 3.6377 31.5882 2.91153C31.5882 2.18536 30.9995 1.59668 30.2733 1.59668C29.5472 1.59668 28.9585 2.18536 28.9585 2.91153C28.9585 3.6377 29.5472 4.22638 30.2733 4.22638Z" stroke="#3F3D56" stroke-miterlimit="10"/>
<path d="M34.7813 4.22638C35.5075 4.22638 36.0962 3.6377 36.0962 2.91153C36.0962 2.18536 35.5075 1.59668 34.7813 1.59668C34.0552 1.59668 33.4665 2.18536 33.4665 2.91153C33.4665 3.6377 34.0552 4.22638 34.7813 4.22638Z" stroke="#3F3D56" stroke-miterlimit="10"/>
<path d="M39.2893 4.22638C40.0155 4.22638 40.6042 3.6377 40.6042 2.91153C40.6042 2.18536 40.0155 1.59668 39.2893 1.59668C38.5632 1.59668 37.9745 2.18536 37.9745 2.91153C37.9745 3.6377 38.5632 4.22638 39.2893 4.22638Z" stroke="#3F3D56" stroke-miterlimit="10"/>
<path d="M6.05131 38.4212C6.62648 38.1668 7.13472 37.7824 7.53595 37.2981C7.93719 36.8138 8.22046 36.2429 8.36344 35.6305C8.50641 35.0181 8.50519 34.3808 8.35987 33.7689C8.21454 33.157 7.92908 32.5873 7.52599 32.1045C7.1229 31.6218 6.6132 31.2393 6.03706 30.9871C5.46091 30.735 4.83408 30.6201 4.20597 30.6516C3.57785 30.683 2.96562 30.8599 2.41754 31.1683C1.86945 31.4767 1.40049 31.9082 1.04762 32.4288L2.56849 33.8661L0.614603 33.2588C0.230352 34.2599 0.259277 35.3726 0.695023 36.3524C0.846384 36.6969 1.04579 37.0181 1.2873 37.3066C1.85221 37.9851 2.62289 38.461 3.48256 38.6621C4.34223 38.8632 5.24403 38.7786 6.05131 38.4212Z" fill="#57B894"/>
<path d="M26.37 52.519C24.8871 51.4785 24.8868 49.2942 25.2552 47.5206C25.6236 45.7469 26.1858 43.8119 25.3497 42.2049C24.148 39.8954 20.9892 39.7565 18.3975 39.5097C16.4744 39.3263 14.5798 38.9156 12.7534 38.2862C12.0212 38.0338 11.2879 37.7389 10.6883 37.2487C9.82472 36.5426 9.31817 35.5014 8.84516 34.4912C7.26944 31.126 5.7737 27.7249 4.35797 24.2878" stroke="#3F3D56" stroke-miterlimit="10"/>
<path d="M5.79924 37.917C6.37441 37.6627 6.88264 37.2782 7.28388 36.7939C7.68511 36.3096 7.96838 35.7388 8.11136 35.1264C8.25434 34.5139 8.25312 33.8767 8.10779 33.2648C7.96246 32.6529 7.67701 32.0831 7.27392 31.6004C6.87083 31.1177 6.36112 30.7351 5.78498 30.483C5.20884 30.2309 4.58201 30.116 3.95389 30.1474C3.32578 30.1788 2.71355 30.3557 2.16546 30.6642C1.61738 30.9726 1.14842 31.4041 0.795541 31.9246L2.31641 33.3619L0.362528 32.7547C-0.0217233 33.7558 0.00720159 34.8685 0.442947 35.8483C0.594308 36.1927 0.793718 36.514 1.03523 36.8024C1.60013 37.4809 2.37081 37.9568 3.23048 38.1579C4.09015 38.3591 4.99196 38.2745 5.79924 37.917Z" stroke="#3F3D56" stroke-miterlimit="10"/>
<path d="M0.84986 26.6554C0.573927 26.0331 0.459061 25.3513 0.515846 24.673C0.572632 23.9946 0.799241 23.3414 1.17479 22.7737L2.79212 23.9754L1.79396 22.0407C2.42364 21.4539 3.22354 21.0823 4.07816 20.9797C4.93278 20.877 5.79792 21.0486 6.54864 21.4697C7.29937 21.8908 7.89685 22.5396 8.25482 23.3224C8.61279 24.1052 8.71273 24.9815 8.5402 25.8248C8.36768 26.6681 7.93161 27.4348 7.29498 28.0141C6.65834 28.5934 5.85406 28.9554 4.99827 29.0478C4.14248 29.1403 3.27946 28.9583 2.53381 28.5283C1.78816 28.0983 1.19846 27.4424 0.84986 26.6554Z" fill="#57B894"/>
<path d="M0.513797 25.9833C0.237866 25.361 0.123002 24.6792 0.179787 24.0009C0.236572 23.3225 0.463181 22.6693 0.838733 22.1015L2.45606 23.3033L1.4579 21.3686C2.08758 20.7817 2.88748 20.4102 3.7421 20.3075C4.59673 20.2049 5.46186 20.3765 6.21259 20.7976C6.96332 21.2187 7.5608 21.8675 7.91877 22.6503C8.27674 23.4331 8.37668 24.3094 8.20415 25.1527C8.03163 25.996 7.59556 26.7627 6.95892 27.342C6.32228 27.9213 5.51801 28.2833 4.66222 28.3757C3.80643 28.4682 2.94341 28.2862 2.19776 27.8562C1.45211 27.4262 0.862402 26.7703 0.513797 25.9833Z" stroke="#3F3D56" stroke-miterlimit="10"/>
<path d="M17.9112 40.0324C18.8228 39.6285 19.554 38.9032 19.9652 37.9949C20.3765 37.0865 20.4392 36.0586 20.1413 35.107C19.8434 34.1554 19.2057 33.3467 18.3499 32.8351C17.494 32.3234 16.4799 32.1446 15.5006 32.3326L16.2677 33.8193L14.6317 32.6031C14.6282 32.6042 14.6248 32.6057 14.6216 32.6074C14.134 32.8234 13.6938 33.1333 13.326 33.5194C12.9583 33.9055 12.6702 34.3603 12.4782 34.8578C12.0904 35.8625 12.1176 36.9801 12.5539 37.9647C12.9901 38.9493 13.7996 39.7203 14.8043 40.1081C15.809 40.4958 16.9266 40.4686 17.9112 40.0324Z" fill="#57B894"/>
<path d="M17.5472 39.3744C18.4588 38.9705 19.19 38.2452 19.6013 37.3369C20.0125 36.4285 20.0752 35.4006 19.7773 34.449C19.4794 33.4975 18.8417 32.6888 17.9859 32.1771C17.1301 31.6655 16.1159 31.4866 15.1367 31.6747L15.9038 33.1614L14.2678 31.9451C14.2643 31.9463 14.2609 31.9477 14.2576 31.9494C13.7699 32.1653 13.3295 32.4751 12.9615 32.8613C12.5936 33.2474 12.3053 33.7022 12.1132 34.1998C11.9211 34.6973 11.8288 35.2278 11.8418 35.761C11.8547 36.2942 11.9726 36.8196 12.1886 37.3073C12.4047 37.7949 12.7147 38.2352 13.1009 38.603C13.4872 38.9708 13.9421 39.259 14.4397 39.4509C14.9373 39.6429 15.4679 39.7349 16.0011 39.7218C16.5343 39.7087 17.0596 39.5906 17.5472 39.3744Z" stroke="#3F3D56" stroke-miterlimit="10"/>
<path d="M19.5322 47.8248C20.2836 48.3747 21.2012 48.6495 22.1312 48.6032C23.0611 48.5568 23.9469 48.1921 24.6399 47.5702C25.3329 46.9483 25.791 46.107 25.9373 45.1875C26.0836 44.2679 25.9094 43.326 25.4437 42.5197C24.978 41.7134 24.2492 41.0918 23.3796 40.759C22.5099 40.4262 21.5523 40.4026 20.6673 40.6921C19.7823 40.9816 19.0238 41.5665 18.5189 42.3489C18.014 43.1313 17.7935 44.0634 17.8944 44.9891L21.0854 45.7004L18.3012 46.3699C18.589 46.9465 19.0112 47.4455 19.5322 47.8248Z" fill="#57B894"/>
<path d="M19.2801 47.3209C20.0315 47.8708 20.9491 48.1456 21.8791 48.0993C22.8091 48.0529 23.6948 47.6882 24.3878 47.0663C25.0808 46.4444 25.5389 45.6031 25.6852 44.6836C25.8316 43.764 25.6573 42.8221 25.1916 42.0158C24.7259 41.2095 23.9971 40.5878 23.1275 40.2551C22.2578 39.9223 21.3002 39.8987 20.4153 40.1882C19.5303 40.4777 18.7717 41.0626 18.2668 41.845C17.762 42.6274 17.5415 43.5595 17.6423 44.4852L20.8333 45.1965L18.0491 45.866C18.337 46.4426 18.7591 46.9415 19.2801 47.3209Z" stroke="#3F3D56" stroke-miterlimit="10"/>
<path d="M195.639 86.1011C196.174 86.3856 196.767 86.5422 197.372 86.5584C197.977 86.5746 198.578 86.45 199.127 86.1944C199.676 85.9389 200.158 85.5593 200.535 85.0857C200.912 84.6121 201.174 84.0574 201.3 83.4652C201.426 82.8731 201.413 82.2597 201.262 81.6735C201.111 81.0873 200.825 80.5442 200.428 80.0871C200.031 79.63 199.534 79.2714 198.974 79.0394C198.415 78.8075 197.81 78.7086 197.206 78.7506L197.02 80.7566L196.32 78.9158C195.333 79.2195 194.507 79.9025 194.024 80.8147C193.853 81.134 193.728 81.4759 193.653 81.8302C193.475 82.6612 193.572 83.5277 193.931 84.2984C194.289 85.0691 194.889 85.702 195.639 86.1011Z" fill="#57B894"/>
<path d="M197.032 109.868C196.939 108.127 198.594 106.829 200.156 106.054C201.719 105.279 203.518 104.555 204.239 102.967C205.274 100.685 203.503 98.2096 202.15 96.0998C201.146 94.5341 200.332 92.855 199.723 91.0976C199.48 90.3929 199.267 89.6623 199.282 88.9168C199.304 87.8433 199.792 86.8409 200.276 85.8824C201.889 82.6895 203.577 79.5358 205.339 76.4214" stroke="#3F3D56" stroke-miterlimit="10"/>
<path d="M195.871 85.6106C196.406 85.8952 196.999 86.0517 197.604 86.0679C198.209 86.0841 198.81 85.9595 199.359 85.704C199.908 85.4484 200.39 85.0689 200.767 84.5953C201.144 84.1216 201.406 83.5669 201.532 82.9748C201.658 82.3826 201.645 81.7693 201.494 81.183C201.343 80.5968 201.057 80.0538 200.66 79.5966C200.263 79.1395 199.766 78.7809 199.206 78.549C198.647 78.317 198.042 78.2182 197.438 78.2601L197.252 80.2661L196.552 78.4253C195.565 78.729 194.739 79.412 194.256 80.3242C194.085 80.6435 193.96 80.9854 193.885 81.3397C193.707 82.1708 193.804 83.0373 194.163 83.8079C194.521 84.5786 195.121 85.2115 195.871 85.6106Z" stroke="#3F3D56" stroke-miterlimit="10"/>
<path d="M201.461 75.1707C201.769 74.592 202.217 74.0999 202.765 73.7399C203.312 73.3799 203.942 73.1635 204.595 73.1106L204.645 75.0497L205.518 73.1442C206.336 73.2724 207.093 73.6576 207.679 74.244C208.264 74.8304 208.648 75.5876 208.775 76.4065C208.902 77.2253 208.766 78.0634 208.386 78.7996C208.005 79.5359 207.401 80.1322 206.66 80.5026C205.918 80.8729 205.078 80.9981 204.261 80.86C203.444 80.722 202.692 80.3278 202.114 79.7345C201.535 79.1411 201.16 78.3793 201.043 77.559C200.926 76.7387 201.072 75.9024 201.461 75.1707Z" fill="#57B894"/>
<path d="M201.771 74.5169C202.078 73.9382 202.526 73.4461 203.074 73.0861C203.621 72.7261 204.251 72.5096 204.904 72.4568L204.955 74.3959L205.827 72.4903C206.646 72.6186 207.402 73.0038 207.988 73.5902C208.573 74.1765 208.957 74.9338 209.085 75.7527C209.212 76.5715 209.075 77.4096 208.695 78.1458C208.315 78.8821 207.71 79.4784 206.969 79.8487C206.228 80.2191 205.388 80.3443 204.571 80.2062C203.754 80.0682 203.002 79.674 202.423 79.0807C201.845 78.4873 201.47 77.7255 201.352 76.9052C201.235 76.0849 201.382 75.2486 201.771 74.5169Z" stroke="#3F3D56" stroke-miterlimit="10"/>
<path d="M201.465 96.042C202.313 96.4925 203.296 96.6155 204.229 96.3873C205.161 96.1592 205.977 95.596 206.521 94.8049C207.065 94.0139 207.298 93.0505 207.177 92.0982C207.057 91.1459 206.59 90.2714 205.865 89.6414L205.195 91.1058L205.144 89.1439C205.141 89.142 205.138 89.1402 205.135 89.1388C204.682 88.8974 204.185 88.7478 203.674 88.6983C203.163 88.6489 202.647 88.7007 202.156 88.8507C201.665 89.0007 201.208 89.2461 200.812 89.5727C200.415 89.8993 200.087 90.3008 199.846 90.7543C199.605 91.2077 199.456 91.7042 199.407 92.2154C199.358 92.7266 199.41 93.2425 199.56 93.7336C199.71 94.2246 199.956 94.6812 200.283 95.0773C200.61 95.4734 201.011 95.8012 201.465 96.042Z" fill="#57B894"/>
<path d="M201.747 95.3754C202.595 95.826 203.579 95.9489 204.511 95.7208C205.443 95.4926 206.259 94.9294 206.803 94.1384C207.347 93.3473 207.581 92.3839 207.46 91.4316C207.339 90.4793 206.872 89.6049 206.147 88.9748L205.477 90.4392L205.426 88.4773C205.423 88.4754 205.42 88.4737 205.417 88.4722C204.964 88.2309 204.467 88.0814 203.956 88.032C203.445 87.9827 202.929 88.0345 202.438 88.1845C201.947 88.3346 201.49 88.5799 201.094 88.9065C200.698 89.2332 200.37 89.6346 200.129 90.088C199.888 90.5414 199.739 91.0379 199.689 91.549C199.64 92.0602 199.692 92.576 199.843 93.067C199.993 93.558 200.239 94.0146 200.565 94.4107C200.892 94.8067 201.294 95.1346 201.747 95.3754Z" stroke="#3F3D56" stroke-miterlimit="10"/>
<path d="M196.526 101.9C196.555 102.795 196.892 103.654 197.48 104.331C198.068 105.008 198.87 105.462 199.753 105.617C200.636 105.773 201.545 105.62 202.329 105.184C203.112 104.749 203.722 104.057 204.056 103.225C204.39 102.394 204.428 101.472 204.164 100.616C203.899 99.7594 203.348 99.02 202.603 98.5216C201.858 98.0232 200.964 97.7962 200.071 97.8786C199.179 97.961 198.342 98.3478 197.7 98.9741L199.058 101.814L196.896 100.103C196.63 100.663 196.503 101.28 196.526 101.9Z" fill="#57B894"/>
<path d="M196.758 101.409C196.787 102.305 197.124 103.164 197.712 103.84C198.3 104.517 199.102 104.972 199.985 105.127C200.868 105.282 201.777 105.13 202.561 104.694C203.344 104.259 203.954 103.567 204.288 102.735C204.622 101.903 204.66 100.982 204.396 100.126C204.131 99.2692 203.58 98.5298 202.835 98.0314C202.09 97.533 201.196 97.306 200.303 97.3884C199.411 97.4708 198.574 97.8575 197.932 98.4839L199.29 101.324L197.128 99.6124C196.862 100.173 196.735 100.789 196.758 101.409Z" stroke="#3F3D56" stroke-miterlimit="10"/>
<path d="M21.6415 22.2674C22.2167 22.013 22.7249 21.6285 23.1262 21.1443C23.5274 20.66 23.8107 20.0891 23.9536 19.4767C24.0966 18.8643 24.0954 18.227 23.9501 17.6151C23.8047 17.0032 23.5193 16.4335 23.1162 15.9507C22.7131 15.468 22.2034 15.0855 21.6273 14.8333C21.0511 14.5812 20.4243 14.4663 19.7962 14.4978C19.1681 14.5292 18.5558 14.7061 18.0077 15.0145C17.4597 15.3229 16.9907 15.7544 16.6378 16.275L18.1587 17.7123L16.2048 17.105C15.8206 18.1061 15.8495 19.2188 16.2852 20.1986C16.4366 20.5431 16.636 20.8643 16.8775 21.1528C17.4424 21.8313 18.2131 22.3071 19.0728 22.5083C19.9324 22.7094 20.8342 22.6248 21.6415 22.2674Z" fill="#57B894"/>
<path d="M26.2784 21.0949C25.4149 20.3888 24.9083 19.3476 24.4353 18.3374C22.8596 14.9722 21.3639 11.5711 19.9481 8.13403" stroke="#3F3D56" stroke-miterlimit="10"/>
<path d="M21.3894 21.7635C21.9646 21.5091 22.4728 21.1246 22.8741 20.6404C23.2753 20.1561 23.5586 19.5852 23.7016 18.9728C23.8445 18.3604 23.8433 17.7231 23.698 17.1112C23.5527 16.4993 23.2672 15.9296 22.8641 15.4468C22.461 14.9641 21.9513 14.5816 21.3752 14.3294C20.799 14.0773 20.1722 13.9624 19.5441 13.9938C18.916 14.0253 18.3038 14.2022 17.7557 14.5106C17.2076 14.819 16.7386 15.2505 16.3857 15.7711L17.9066 17.2084L15.9527 16.6011C15.5685 17.6022 15.5974 18.7149 16.0332 19.6947C16.1845 20.0392 16.3839 20.3604 16.6254 20.6489C17.1903 21.3274 17.961 21.8032 18.8207 22.0044C19.6804 22.2055 20.5822 22.1209 21.3894 21.7635Z" stroke="#3F3D56" stroke-miterlimit="10"/>
<path d="M16.4401 10.5016C16.1641 9.87928 16.0493 9.19752 16.1061 8.51915C16.1628 7.84078 16.3895 7.18761 16.765 6.61984L18.3823 7.82159L17.3842 5.88692C18.0138 5.30005 18.8137 4.92848 19.6684 4.82584C20.523 4.72321 21.3881 4.89483 22.1389 5.31593C22.8896 5.73703 23.4871 6.38582 23.845 7.16861C24.203 7.95141 24.3029 8.82772 24.1304 9.67102C23.9579 10.5143 23.5218 11.281 22.8852 11.8603C22.2485 12.4396 21.4443 12.8016 20.5885 12.894C19.7327 12.9865 18.8697 12.8045 18.124 12.3745C17.3784 11.9445 16.7887 11.2886 16.4401 10.5016Z" fill="#57B894"/>
<path d="M16.104 9.82972C15.8281 9.20741 15.7132 8.52565 15.77 7.84728C15.8268 7.16891 16.0534 6.51574 16.4289 5.94797L18.0463 7.14973L17.0481 5.21505C17.6778 4.62818 18.4777 4.2566 19.3323 4.15397C20.1869 4.05134 21.0521 4.22296 21.8028 4.64406C22.5535 5.06516 23.151 5.71394 23.509 6.49674C23.867 7.27954 23.9669 8.15585 23.7944 8.99915C23.6218 9.84244 23.1858 10.6091 22.5491 11.1884C21.9125 11.7677 21.1082 12.1297 20.2524 12.2222C19.3966 12.3146 18.5336 12.1327 17.788 11.7026C17.0423 11.2726 16.4526 10.6167 16.104 9.82972Z" stroke="#3F3D56" stroke-miterlimit="10"/>
<path d="M75.8656 5.79175V102.797" stroke="#3F3D56" stroke-miterlimit="10"/>
<path d="M121.228 53.4856H93.6166V57.2423H121.228V53.4856Z" fill="#F2F2F2"/>
<path d="M164.618 53.4856H137.006V57.2423H164.618V53.4856Z" fill="#F2F2F2"/>
<path d="M122.731 51.6072H95.1192V55.3638H122.731V51.6072Z" stroke="#3F3D56" stroke-miterlimit="10"/>
<path d="M121.228 82.5999H93.6166V86.3565H121.228V82.5999Z" fill="#F2F2F2"/>
<path d="M122.731 80.7214H95.1192V84.4781H122.731V80.7214Z" stroke="#3F3D56" stroke-miterlimit="10"/>
<path d="M164.712 67.667H93.7105V71.4237H164.712V67.667Z" fill="#F2F2F2"/>
<path d="M166.214 66.1643H95.2132V69.921H166.214V66.1643Z" stroke="#3F3D56" stroke-miterlimit="10"/>
<path d="M166.12 51.6072H138.509V55.3638H166.12V51.6072Z" stroke="#3F3D56" stroke-miterlimit="10"/>
<path d="M174.886 40.6071C174.945 40.8098 175.02 41.0072 175.111 41.1975C176.126 43.5823 176.17 46.269 175.234 48.6858C175.908 48.6436 176.581 48.7525 177.254 48.8046C177.928 48.8567 178.625 48.8481 179.25 48.5846C179.876 48.3211 180.421 47.7566 180.513 47.06C180.636 46.1196 179.951 45.2993 179.35 44.5856C178.738 43.8582 178.146 43.056 177.965 42.1074C177.766 41.0646 178.05 39.842 177.391 39.0296C177.333 38.9515 177.258 38.8876 177.172 38.8428C176.818 38.6807 175.897 38.6859 175.541 38.8867C174.993 39.1958 174.751 40.011 174.886 40.6071Z" fill="#3F3D56"/>
<path d="M193.538 108.629C193.496 108.943 193.421 109.252 193.317 109.551C193.317 109.551 192.635 111.122 189.828 110.698C187.994 110.421 188.006 109.562 188.31 108.897C188.449 108.62 188.616 108.358 188.811 108.117C189.084 107.749 189.057 106.342 189.153 105.059C189.248 103.775 189.828 103.71 189.828 103.71L189.862 105.154C190.955 103.72 191.719 105.4 191.719 105.4C191.719 105.4 193.274 105.432 193.084 104.635C192.881 103.787 192.579 102.443 192.579 102.443C192.579 102.443 193.331 102.792 193.467 103.038C193.604 103.283 193.44 106.575 193.317 106.888C193.194 107.202 193.317 108.049 193.495 108.295C193.545 108.399 193.56 108.516 193.538 108.629Z" fill="#3F3D56"/>
<path d="M193.02 104.551C193.019 104.876 192.916 105.193 192.723 105.455C192.531 105.717 192.26 105.911 191.95 106.009C191.649 106.104 191.33 106.129 191.018 106.081C190.706 106.034 190.409 105.915 190.15 105.735C189.993 105.625 189.869 105.475 189.79 105.301C189.712 105.127 189.682 104.934 189.705 104.744L189.748 104.381L189.905 103.058L190.122 101.235C190.122 101.235 192.448 100.05 192.293 100.498C192.235 100.665 192.363 101.417 192.548 102.294C192.679 102.92 192.838 103.61 192.978 104.195C193.006 104.312 193.02 104.431 193.02 104.551Z" fill="#FBBEBE"/>
<path opacity="0.1" d="M189.562 104.451C189.562 104.451 191.576 102.085 193.225 104.666L192.948 106.319H189.562V104.451Z" fill="black"/>
<path d="M189.562 104.615C189.562 104.615 191.576 102.249 193.225 104.83L192.948 106.483H189.562V104.615Z" fill="#3F3D56"/>
<path d="M192.18 106.074C192.293 106.074 192.385 105.982 192.385 105.869C192.385 105.756 192.293 105.664 192.18 105.664C192.067 105.664 191.975 105.756 191.975 105.869C191.975 105.982 192.067 106.074 192.18 106.074Z" fill="#F2F2F2"/>
<path d="M189.562 105.745C189.675 105.745 189.767 105.654 189.767 105.541C189.767 105.427 189.675 105.336 189.562 105.336C189.449 105.336 189.357 105.427 189.357 105.541C189.357 105.654 189.449 105.745 189.562 105.745Z" fill="#F2F2F2"/>
<path d="M191.474 107.462C191.587 107.462 191.678 107.37 191.678 107.257C191.678 107.144 191.587 107.052 191.474 107.052C191.36 107.052 191.269 107.144 191.269 107.257C191.269 107.37 191.36 107.462 191.474 107.462Z" fill="#F2F2F2"/>
<path d="M189.686 107.221C189.799 107.221 189.891 107.129 189.891 107.016C189.891 106.903 189.799 106.812 189.686 106.812C189.573 106.812 189.481 106.903 189.481 107.016C189.481 107.129 189.573 107.221 189.686 107.221Z" fill="#F2F2F2"/>
<path d="M191.87 106.812C191.983 106.812 192.074 106.72 192.074 106.607C192.074 106.494 191.983 106.402 191.87 106.402C191.757 106.402 191.665 106.494 191.665 106.607C191.665 106.72 191.757 106.812 191.87 106.812Z" fill="#F2F2F2"/>
<path d="M189.562 106.483C189.675 106.483 189.767 106.392 189.767 106.279C189.767 106.165 189.675 106.074 189.562 106.074C189.449 106.074 189.357 106.165 189.357 106.279C189.357 106.392 189.449 106.483 189.562 106.483Z" fill="#F2F2F2"/>
<path d="M191.269 108.224C191.382 108.224 191.474 108.132 191.474 108.019C191.474 107.906 191.382 107.814 191.269 107.814C191.156 107.814 191.064 107.906 191.064 108.019C191.064 108.132 191.156 108.224 191.269 108.224Z" fill="#F2F2F2"/>
<path d="M189.686 107.959C189.799 107.959 189.891 107.867 189.891 107.754C189.891 107.641 189.799 107.549 189.686 107.549C189.573 107.549 189.481 107.641 189.481 107.754C189.481 107.867 189.573 107.959 189.686 107.959Z" fill="#F2F2F2"/>
<path d="M176.071 111.108L173.285 112.05C173.285 112.05 171.81 110.575 172.22 110.125C172.394 109.932 172.547 109.293 172.663 108.623C172.701 108.412 172.734 108.196 172.764 107.991C172.861 107.325 172.916 106.766 172.916 106.766C172.916 106.766 176.153 105.209 175.62 106.766C175.488 107.207 175.436 107.668 175.467 108.127C175.49 108.585 175.547 109.041 175.64 109.491C175.748 110.038 175.892 110.579 176.071 111.108Z" fill="#FBBEBE"/>
<path opacity="0.1" d="M176.071 111.108L173.285 112.05C173.285 112.05 171.81 110.575 172.22 110.125C172.394 109.932 172.547 109.293 172.663 108.623C172.821 108.905 172.931 109.212 172.988 109.531C175.395 110.852 175.436 110.063 175.436 110.063C175.463 109.86 175.532 109.665 175.64 109.49C175.748 110.038 175.892 110.578 176.071 111.108Z" fill="black"/>
<path d="M176.685 113.259C176.685 113.259 176.203 113.617 174.791 113.668C174.421 113.682 174.053 113.724 173.689 113.792C172.2 114.082 170.673 114.123 169.17 113.914C168.783 113.862 168.399 113.787 168.021 113.689C166.567 113.289 167.673 112.368 167.673 112.368C167.673 112.368 167.742 112.307 167.863 112.216C168.171 111.985 168.81 111.559 169.465 111.456C170.376 111.313 171.216 109.695 171.216 109.695L171.79 108.66C172.68 107.892 172.988 109.695 172.988 109.695C175.395 111.016 175.436 110.227 175.436 110.227C175.569 109.52 175.815 109.52 175.815 109.52C175.815 109.52 176.415 111.135 176.632 111.538C176.646 111.567 176.664 111.595 176.685 111.62C176.828 111.763 176.685 113.259 176.685 113.259Z" fill="#3F3D56"/>
<path d="M172.978 110.575C173.091 110.575 173.183 110.483 173.183 110.37C173.183 110.257 173.091 110.166 172.978 110.166C172.865 110.166 172.773 110.257 172.773 110.37C172.773 110.483 172.865 110.575 172.978 110.575Z" fill="#F2F2F2"/>
<path d="M171.805 111.149C171.918 111.149 172.009 111.057 172.009 110.944C172.009 110.831 171.918 110.739 171.805 110.739C171.691 110.739 171.6 110.831 171.6 110.944C171.6 111.057 171.691 111.149 171.805 111.149Z" fill="#F2F2F2"/>
<path d="M172.435 110.855C172.548 110.855 172.64 110.763 172.64 110.65C172.64 110.537 172.548 110.445 172.435 110.445C172.322 110.445 172.23 110.537 172.23 110.65C172.23 110.763 172.322 110.855 172.435 110.855Z" fill="#F2F2F2"/>
<path d="M171.144 111.487C171.258 111.487 171.349 111.395 171.349 111.282C171.349 111.169 171.258 111.077 171.144 111.077C171.031 111.077 170.94 111.169 170.94 111.282C170.94 111.395 171.031 111.487 171.144 111.487Z" fill="#F2F2F2"/>
<path opacity="0.1" d="M175.62 106.766C175.488 107.207 175.436 107.668 175.467 108.127C174.74 107.883 173.55 107.926 172.764 107.991C172.861 107.325 172.916 106.766 172.916 106.766C172.916 106.766 176.153 105.209 175.62 106.766Z" fill="black"/>
<path opacity="0.1" d="M192.548 102.294C191.541 103.281 190.578 103.342 189.905 103.058L190.122 101.235C190.122 101.235 192.448 100.05 192.293 100.498C192.235 100.665 192.363 101.417 192.548 102.294Z" fill="black"/>
<path d="M174.883 68.6675C174.883 68.6675 173.285 69.5687 172.998 71.3302C172.711 73.0918 172.22 75.3449 171.851 75.7545C171.482 76.1642 170.335 77.4751 170.786 78.1715C171.237 78.8679 171.319 81.2439 171.319 81.2439C171.319 81.2439 171.155 83.3741 171.605 84.0705C172.056 84.7669 172.425 89.1912 171.441 90.5021C171.441 90.5021 171.114 93.5336 171.237 93.8203C171.36 94.1071 170.704 94.8445 170.909 95.459C171.114 96.0734 172.097 107.38 171.974 107.831C171.974 107.831 175.087 107.38 175.907 108.117C175.907 108.117 176.071 106.888 175.907 106.028C175.743 105.168 176.03 101.768 176.398 100.907C176.767 100.047 176.849 96.7699 176.726 96.4421C176.726 96.4421 177.381 93.5336 177.136 92.9601C176.89 92.3865 178.201 87.102 178.201 87.102C178.201 87.102 178.856 85.8321 178.692 85.6682C178.692 85.6682 179.757 84.9718 179.635 84.4392C179.512 83.9067 180.618 83.2922 180.618 83.2922C180.618 83.2922 181.601 85.7091 181.929 86.0778C182.256 86.4465 182.269 88.8225 182.672 89.3141C183.076 89.8057 183.608 92.3865 184.141 93.083C184.673 93.7794 186.804 95.6228 187.131 97.7121C187.131 97.7121 189.057 100.703 188.975 101.645C188.893 102.587 191.146 104.308 193.317 101.112C192.954 100.843 192.66 100.49 192.46 100.084C192.261 99.6776 192.161 99.2296 192.17 98.7772C192.17 97.1795 190.449 92.0588 190.449 92.0588C190.449 92.0588 189.466 90.625 189.835 89.9286C190.204 89.2322 189.876 87.1839 189.876 87.1839L190.654 85.914C190.654 85.914 190.777 84.685 190.9 83.4151C191.023 82.1451 190.163 80.7523 190.572 80.1378C190.982 79.5234 190.409 76.4532 190.409 76.4532C190.409 76.4532 189.899 71.161 189.139 70.8387C188.379 70.5163 174.883 68.6675 174.883 68.6675Z" fill="#3F3D56"/>
<path d="M178.615 61.2527C178.615 61.2527 177.774 61.3486 176.752 61.4452C175.274 61.5845 173.418 61.7254 173.197 61.5804C172.824 61.3346 173.197 58.2212 173.197 58.2212C173.197 58.2212 173.326 54.8211 173.203 52.4451C173.103 50.5173 174.38 49.1015 174.864 48.6361C174.977 48.528 175.046 48.4714 175.046 48.4714L175.456 48.7992L177.791 52.7728L178.615 61.2527Z" fill="#FBBEBE"/>
<path d="M187.746 48.1846L185.452 49.5774L181.683 52.445C181.683 52.445 177.791 50.3967 178.774 49.2087C178.957 48.9739 179.081 48.6981 179.134 48.405C179.43 47.0368 178.774 45.0712 178.774 45.0712C178.774 45.0712 183.902 38.1472 183.608 43.5145C183.49 45.671 184.135 46.8483 184.949 47.4857C186.16 48.4345 187.746 48.1846 187.746 48.1846Z" fill="#FBBEBE"/>
<path opacity="0.1" d="M187.746 48.1846L185.452 49.5774L181.683 52.445C181.683 52.445 177.791 50.3967 178.774 49.2087C178.957 48.9739 179.081 48.6981 179.134 48.405C179.43 47.0368 178.774 45.0712 178.774 45.0712C178.774 45.0712 183.902 38.1472 183.608 43.5145C183.49 45.671 184.135 46.8483 184.949 47.4857C186.16 48.4345 187.746 48.1846 187.746 48.1846Z" fill="black"/>
<path opacity="0.1" d="M180.707 47.0539C183.328 47.0539 185.452 44.8035 185.452 42.0276C185.452 39.2516 183.328 37.0012 180.707 37.0012C178.087 37.0012 175.963 39.2516 175.963 42.0276C175.963 44.8035 178.087 47.0539 180.707 47.0539Z" fill="black"/>
<path d="M180.707 46.8898C183.328 46.8898 185.452 44.6395 185.452 41.8635C185.452 39.0875 183.328 36.8372 180.707 36.8372C178.087 36.8372 175.963 39.0875 175.963 41.8635C175.963 44.6395 178.087 46.8898 180.707 46.8898Z" fill="#FBBEBE"/>
<path opacity="0.1" d="M187.746 48.1847L185.452 49.5775L181.683 52.4451C181.683 52.4451 177.791 50.3969 178.774 49.2088C178.957 48.974 179.081 48.6982 179.134 48.4051C183.427 52.0756 184.732 48.2765 184.949 47.4858C186.16 48.4346 187.746 48.1847 187.746 48.1847Z" fill="black"/>
<path opacity="0.1" d="M178.615 61.2527C178.615 61.2527 177.774 61.3486 176.752 61.4452C176.712 60.5636 176.579 59.5665 176.603 58.9586C176.644 57.9345 176.644 57.8116 176.316 57.2381C175.989 56.6645 176.03 56.2139 176.071 55.4765C176.11 54.7703 175.923 54.6277 175.259 53.4995C175.23 53.4504 175.2 53.3996 175.169 53.3463C174.843 52.7843 174.75 51.7675 174.747 50.8073C174.747 50.8038 174.747 50.8001 174.747 50.7966C174.746 50.568 174.75 50.3427 174.758 50.1281C174.759 50.1191 174.759 50.1101 174.759 50.101C174.783 49.4521 174.836 48.8991 174.864 48.6361C174.977 48.528 175.046 48.4714 175.046 48.4714L175.456 48.7992L177.791 52.7728L178.615 61.2527Z" fill="black"/>
<path d="M190.727 48.7898C190.723 48.7881 191.221 49.1646 191.218 49.1638C189.735 48.5239 188.894 51.7471 188.668 52.7614C188.626 52.9482 188.606 53.0596 188.606 53.0596C188.606 53.0596 188.632 53.3316 188.665 53.7642C188.776 55.2128 188.966 58.4564 188.524 59.2454C188.479 59.3287 188.443 59.417 188.418 59.5084C188.279 59.9877 188.295 60.7079 188.368 61.4076C188.447 62.127 188.568 62.8412 188.729 63.5468C188.729 63.5468 189.712 66.0457 189.302 67.6843C189.167 68.2939 189.127 68.9207 189.183 69.5425C189.225 70.1135 189.312 70.6803 189.443 71.2377C189.481 71.4007 189.507 71.4941 189.507 71.4941C188.889 71.7055 188.286 71.8808 187.696 72.0201C186.547 72.2956 185.373 72.4546 184.192 72.4945C178.653 72.6707 174.964 70.0161 174.094 69.2926C174.025 69.2353 173.973 69.1902 173.94 69.1591C173.367 68.6265 174.473 68.2169 174.35 67.8482C174.227 67.4795 174.91 66.6602 174.91 66.6602C174.91 66.6602 174.76 65.3083 175.374 65.0216C175.989 64.7348 176.439 63.7516 176.786 62.9323C177.132 62.113 176.726 59.9828 176.767 58.9587C176.808 57.9345 176.808 57.8116 176.48 57.2381C176.152 56.6646 176.193 56.214 176.234 55.4766C176.274 54.7703 176.087 54.6278 175.422 53.4996C175.394 53.4504 175.364 53.3996 175.333 53.3464C175.007 52.7843 175.515 51.8162 175.512 50.8559C175.513 50.8527 175.701 50.8592 175.7 50.8559C175.699 50.6274 175.316 50.3193 175.324 50.1046C175.325 50.0956 175.136 49.9258 175.136 49.9168C175.164 49.4332 175.134 48.948 175.046 48.4715C178.324 46.7919 179.102 48.542 179.102 48.542C183.895 52.6672 184.983 47.5121 184.983 47.5121C187.592 46.6207 191.023 49.0221 191.219 49.1613C191.225 49.1654 190.727 48.7898 190.727 48.7898Z" fill="#55536E"/>
<path d="M173.142 60.835C173.142 60.835 172.732 63.0227 173.917 64.2434C174.114 64.4445 174.369 64.5784 174.646 64.6261C174.923 64.6737 175.208 64.6325 175.46 64.5085C175.854 64.3148 176.294 64.0275 176.46 63.6588C176.786 62.9323 175.763 59.3807 173.142 60.835Z" fill="#FBBEBE"/>
<path opacity="0.1" d="M188.524 59.2454C188.479 59.3286 188.443 59.4169 188.418 59.5083L188.606 54.7187L188.665 53.7642C188.776 55.2127 188.966 58.4564 188.524 59.2454Z" fill="black"/>
<path opacity="0.1" d="M189.302 67.6842C189.167 68.2938 189.127 68.9206 189.183 69.5424C188.917 70.0234 188.69 70.4314 188.543 70.6968C188.427 70.9033 188.36 71.0229 188.36 71.0229C188.113 71.3376 187.891 71.671 187.696 72.02C187.544 72.2659 187.449 72.5428 187.418 72.8303C187.418 73.4604 186.783 77.6593 183.772 76.6147C181.828 75.9404 183.069 73.8741 184.192 72.4944C184.566 72.0359 184.966 71.5993 185.39 71.1868C185.39 71.1868 185.738 70.7443 186.071 70.2814C186.299 69.9894 186.496 69.6751 186.66 69.3433C186.804 68.9337 187.749 67.1312 187.749 67.1312C187.749 67.1312 188.688 65.1444 188.483 64.2226C188.368 63.7065 188.356 62.4308 188.368 61.4075C188.447 62.1268 188.568 62.8411 188.729 63.5467C188.729 63.5467 189.712 66.0456 189.302 67.6842Z" fill="black"/>
<path d="M191.228 49.168C191.228 49.168 192.703 50.1922 192.662 52.8549C192.621 55.5177 192.129 60.1263 192.129 60.1263L191.822 62.9939C191.822 62.9939 191.433 64.1614 191.494 64.5096C191.556 64.8578 188.278 70.6954 188.278 70.6954C188.278 70.6954 187.336 71.8735 187.336 72.5032C187.336 73.1329 186.701 77.3319 183.69 76.2872C180.679 75.2426 185.308 70.8593 185.308 70.8593C185.308 70.8593 186.435 69.4255 186.578 69.0158C186.722 68.6062 187.667 66.8037 187.667 66.8037C187.667 66.8037 188.606 64.8169 188.401 63.8952C188.196 62.9734 188.319 59.627 188.319 59.627L188.524 54.3911L188.606 53.0598C188.606 53.0598 189.364 48.6355 191.228 49.168Z" fill="#FBBEBE"/>
<path d="M175.584 58.942L177.82 58.13C178.004 58.063 178.203 58.0486 178.395 58.0884C178.587 58.1282 178.765 58.2206 178.907 58.3552L181.874 61.1571C181.874 61.1571 182.038 61.6069 181.819 61.5868C181.601 61.5668 178.406 58.3715 178.406 58.3715L175.238 59.4366C175.238 59.3285 175.271 59.2231 175.333 59.1346C175.395 59.0461 175.483 58.9789 175.584 58.942Z" fill="#FF635F"/>
<path d="M178.747 62.7002L181.819 61.5869L178.406 58.3716L175.238 59.4366L178.747 62.7002Z" fill="#4B4B5B"/>
<path d="M174.132 71.9039C174.282 71.9039 174.405 71.7816 174.405 71.6308C174.405 71.4799 174.282 71.3577 174.132 71.3577C173.981 71.3577 173.858 71.4799 173.858 71.6308C173.858 71.7816 173.981 71.9039 174.132 71.9039Z" fill="#F2F2F2"/>
<path d="M172.274 75.4129C172.425 75.4129 172.548 75.2906 172.548 75.1398C172.548 74.989 172.425 74.8667 172.274 74.8667C172.124 74.8667 172.001 74.989 172.001 75.1398C172.001 75.2906 172.124 75.4129 172.274 75.4129Z" fill="#F2F2F2"/>
<path d="M187.11 76.6885C187.261 76.6885 187.383 76.5663 187.383 76.4154C187.383 76.2646 187.261 76.1423 187.11 76.1423C186.959 76.1423 186.837 76.2646 186.837 76.4154C186.837 76.5663 186.959 76.6885 187.11 76.6885Z" fill="#F2F2F2"/>
<path d="M188.654 81.6461C188.805 81.6461 188.927 81.5238 188.927 81.373C188.927 81.2221 188.805 81.0999 188.654 81.0999C188.503 81.0999 188.381 81.2221 188.381 81.373C188.381 81.5238 188.503 81.6461 188.654 81.6461Z" fill="#F2F2F2"/>
<path d="M188.053 80.251C188.204 80.251 188.326 80.1288 188.326 79.9779C188.326 79.8271 188.204 79.7048 188.053 79.7048C187.902 79.7048 187.78 79.8271 187.78 79.9779C187.78 80.1288 187.902 80.251 188.053 80.251Z" fill="#F2F2F2"/>
<path d="M187.531 78.4698C187.681 78.4698 187.804 78.3475 187.804 78.1967C187.804 78.0459 187.681 77.9236 187.531 77.9236C187.38 77.9236 187.258 78.0459 187.258 78.1967C187.258 78.3475 187.38 78.4698 187.531 78.4698Z" fill="#F2F2F2"/>
<path d="M173.141 73.565C173.292 73.565 173.415 73.4427 173.415 73.2919C173.415 73.1411 173.292 73.0188 173.141 73.0188C172.991 73.0188 172.868 73.1411 172.868 73.2919C172.868 73.4427 172.991 73.565 173.141 73.565Z" fill="#F2F2F2"/>
<path d="M171.191 77.2349C171.342 77.2349 171.464 77.1127 171.464 76.9618C171.464 76.811 171.342 76.6887 171.191 76.6887C171.04 76.6887 170.918 76.811 170.918 76.9618C170.918 77.1127 171.04 77.2349 171.191 77.2349Z" fill="#F2F2F2"/>
<path d="M191.219 49.1614L191.218 49.1638C189.735 48.5239 188.894 51.7471 188.668 52.7614L186.339 49.4276C186.339 49.4276 185.384 50.9565 182.297 51.1891C179.211 51.421 178.461 48.8402 178.461 48.8402C178.037 48.8074 176.119 52.26 175.423 53.4996C175.394 53.4504 175.364 53.3996 175.333 53.3464C175.007 52.7843 174.914 51.7676 174.91 50.8073C174.911 50.8038 174.911 50.8002 174.91 50.7967C174.913 50.5738 174.917 50.3502 174.922 50.1281C174.923 50.1191 174.923 50.1101 174.923 50.1011C174.956 49.1917 175.046 48.4715 175.046 48.4715C178.324 46.7919 179.102 48.542 179.102 48.542C183.895 52.6672 184.983 47.5121 184.983 47.5121C187.592 46.6207 191.023 49.0221 191.219 49.1614Z" fill="#FF635F"/>
<path opacity="0.1" d="M173.039 79.1138C173.08 79.2162 176.521 83.1898 177.791 83.3947C179.061 83.5995 173.039 79.1138 173.039 79.1138Z" fill="black"/>
<path opacity="0.1" d="M175.503 73.0188C175.503 73.0188 175.538 75.8204 174.678 76.4532C173.817 77.0859 175.503 73.0188 175.503 73.0188Z" fill="black"/>
<path opacity="0.1" d="M177.095 74.0134C177.095 74.0134 177.013 77.3112 178.242 78.0895C178.242 78.0895 175.989 75.8978 177.095 74.0134Z" fill="black"/>
<path opacity="0.1" d="M175.579 90.9526C175.579 90.9526 173.285 92.6527 172.65 92.7756C172.015 92.8985 175.579 90.9526 175.579 90.9526Z" fill="black"/>
<path opacity="0.1" d="M175.006 38.9324C174.512 39.3489 174.69 40.2134 175.195 40.6168C175.7 41.0202 176.39 41.0822 177.036 41.0988C178.28 41.1309 179.544 41.0588 180.75 41.3647C181.282 41.4749 181.774 41.7271 182.174 42.0944C182.545 42.5124 182.8 43.02 182.914 43.5671C183.126 44.372 183.211 45.2047 183.168 46.0357C183.138 46.5943 183.051 47.1563 183.131 47.7099C183.231 48.2295 183.407 48.7314 183.654 49.1994C184.602 51.2117 185.658 53.1714 186.818 55.0699C186.91 55.2565 187.053 55.413 187.23 55.5211C187.526 55.6639 187.874 55.5191 188.169 55.3756C187.997 54.7974 187.9 54.1996 187.88 53.5966C188.033 53.6371 188.195 53.6308 188.345 53.5785C188.495 53.5261 188.625 53.4302 188.72 53.303C188.905 53.0451 189.035 52.7521 189.103 52.4421L189.654 50.5429C189.825 49.9556 190.078 49.2815 190.664 49.1086C190.874 49.0786 191.082 49.0303 191.284 48.9642C191.417 48.8855 191.524 48.7695 191.592 48.6307C191.66 48.4919 191.686 48.3363 191.666 48.1829C191.622 47.8762 191.494 47.5877 191.296 47.3489C190.467 46.2331 189.084 45.5714 188.437 44.3411C187.881 43.2846 187.978 42.0132 188.161 40.8335C188.344 39.6538 188.6 38.441 188.317 37.2809C188.032 36.2225 187.386 35.297 186.491 34.6641C185.598 34.0386 184.577 33.6191 183.503 33.4356C183.007 33.3094 182.487 33.313 181.992 33.4458C181.62 33.5717 181.301 33.8202 180.937 33.9699C180.111 34.31 179.159 34.1069 178.293 34.3233C177.496 34.552 176.804 35.0519 176.337 35.7366C175.875 36.418 175.529 37.1707 175.312 37.9645C175.153 38.4853 175.409 38.6937 174.943 38.9769" fill="black"/>
<path d="M175.088 38.7686C174.594 39.1851 174.772 40.0496 175.277 40.453C175.782 40.8564 176.472 40.9184 177.118 40.935C178.362 40.9671 179.626 40.895 180.832 41.2009C181.364 41.3111 181.856 41.5633 182.256 41.9306C182.627 42.3485 182.882 42.8562 182.996 43.4032C183.208 44.2081 183.293 45.0409 183.25 45.8719C183.22 46.4305 183.133 46.9925 183.213 47.5461C183.313 48.0657 183.489 48.5676 183.736 49.0355C184.684 51.0478 185.74 53.0075 186.9 54.9061C186.992 55.0927 187.135 55.2492 187.312 55.3573C187.608 55.5001 187.956 55.3553 188.251 55.2117C188.079 54.6336 187.982 54.0357 187.962 53.4328C188.115 53.4733 188.277 53.467 188.427 53.4146C188.577 53.3623 188.707 53.2664 188.802 53.1391C188.987 52.8812 189.117 52.5883 189.185 52.2783L189.736 50.3791C189.907 49.7918 190.16 49.1177 190.746 48.9448C190.956 48.9147 191.164 48.8664 191.366 48.8004C191.499 48.7216 191.606 48.6057 191.674 48.4669C191.742 48.3281 191.768 48.1725 191.748 48.0191C191.704 47.7124 191.576 47.4238 191.378 47.1851C190.549 46.0693 189.166 45.4076 188.519 44.1773C187.963 43.1207 188.06 41.8493 188.243 40.6696C188.426 39.49 188.681 38.2771 188.399 37.1171C188.114 36.0587 187.468 35.1332 186.573 34.5003C185.68 33.8748 184.659 33.4552 183.585 33.2718C183.089 33.1456 182.569 33.1491 182.074 33.282C181.702 33.4079 181.383 33.6564 181.019 33.8061C180.193 34.1461 179.241 33.943 178.375 34.1595C177.578 34.3882 176.886 34.8881 176.419 35.5728C175.957 36.2542 175.611 37.0069 175.394 37.8006C175.235 38.3215 175.491 38.5299 175.025 38.8131" fill="#3F3D56"/>
<path d="M174.575 61.0889C174.575 61.0889 178.324 58.5901 179.389 60.1263C180.454 61.6625 176.091 63.5469 176.091 63.5469L174.575 61.0889Z" fill="#FBBEBE"/>
<path d="M175.8 49.2142C175.787 49.4551 175.741 49.7504 175.606 49.7941C175.956 49.7858 176.301 50.0432 176.648 49.9663C176.906 49.909 177.15 49.6583 177.305 49.2881C177.321 49.2328 177.352 49.1828 177.393 49.1434C177.43 49.1221 177.47 49.1434 177.506 49.1649C178.184 49.5699 178.816 50.0471 179.392 50.5882C179.584 50.7671 179.797 50.9608 180.007 50.8674C180.017 50.1891 179.88 49.5166 179.605 48.8963C179.383 48.399 179.007 47.9868 178.531 47.7216C178.136 47.5288 177.707 47.417 177.268 47.3929C177.079 47.3891 176.893 47.3428 176.724 47.2575C176.538 47.1481 175.943 46.4376 175.81 46.955C175.745 47.2048 175.828 47.7369 175.83 48.0132C175.833 48.4141 175.823 48.8153 175.8 49.2142Z" fill="#3F3D56"/>
<g opacity="0.1">
<path d="M187.663 54.9476C187.485 54.8395 187.342 54.683 187.251 54.4965C186.091 52.5979 185.035 50.6382 184.086 48.6259C183.839 48.158 183.663 47.656 183.564 47.1365C183.484 46.5829 183.571 46.0208 183.6 45.4623C183.644 44.6312 183.558 43.7985 183.347 42.9936C183.233 42.4466 182.978 41.9389 182.607 41.5209C182.207 41.1536 181.714 40.9015 181.182 40.7912C179.977 40.4853 178.713 40.5575 177.469 40.5254C176.823 40.5087 176.133 40.4468 175.628 40.0434C175.432 39.8852 175.288 39.6726 175.213 39.4324C175.138 39.1922 175.136 38.9352 175.207 38.6938C175.174 38.7245 175.139 38.7525 175.102 38.7774C174.62 39.197 174.798 40.0523 175.3 40.453C175.805 40.8564 176.495 40.9184 177.141 40.935C178.385 40.9671 179.649 40.895 180.855 41.2009C181.387 41.3111 181.879 41.5633 182.279 41.9306C182.65 42.3485 182.905 42.8562 183.019 43.4032C183.231 44.2081 183.316 45.0409 183.273 45.8719C183.243 46.4305 183.156 46.9925 183.236 47.5461C183.336 48.0657 183.512 48.5676 183.758 49.0355C184.707 51.0479 185.763 53.0076 186.923 54.9061C187.015 55.0927 187.158 55.2492 187.335 55.3573C187.631 55.5001 187.979 55.3553 188.274 55.2117C188.25 55.1294 188.227 55.0464 188.206 54.9632C188.029 55.0261 187.836 55.0206 187.663 54.9476Z" fill="black"/>
<path d="M175.048 38.8131C175.068 38.801 175.085 38.7892 175.102 38.7774C175.105 38.7746 175.108 38.7713 175.111 38.7686L175.048 38.8131Z" fill="black"/>
<path d="M175.43 38.3678C175.413 38.3796 175.396 38.3914 175.376 38.4035L175.439 38.359C175.436 38.3617 175.433 38.365 175.43 38.3678C175.819 38.1021 175.592 37.8897 175.745 37.391C175.959 36.6119 176.297 35.872 176.745 35.1995C176.637 35.3182 176.536 35.4429 176.442 35.5728C175.98 36.2542 175.634 37.0069 175.417 37.8007C175.369 38.0189 175.342 38.2412 175.337 38.4646C175.365 38.4297 175.396 38.3974 175.43 38.3678Z" fill="black"/>
<path d="M191.716 48.3909C191.514 48.4569 191.307 48.5052 191.097 48.5353C190.797 48.6381 190.551 48.8557 190.412 49.1403C190.516 49.0509 190.638 48.9844 190.769 48.9449C190.979 48.9149 191.187 48.8666 191.389 48.8005C191.47 48.757 191.542 48.6978 191.6 48.6263C191.658 48.5549 191.702 48.4726 191.728 48.3843C191.724 48.3864 191.72 48.3889 191.716 48.3909Z" fill="black"/>
<path d="M188.312 53.0231C188.317 53.1651 188.326 53.3069 188.34 53.4484C188.53 53.3997 188.7 53.2913 188.825 53.1391C188.889 53.0609 188.943 52.9759 188.988 52.8857C188.895 52.9625 188.785 53.0152 188.667 53.0392C188.55 53.0631 188.428 53.0576 188.312 53.0231Z" fill="black"/>
</g>
<path opacity="0.1" d="M173.669 60.6012C173.669 60.6012 174.657 60.2011 175.238 60.29Z" fill="black"/>
<path opacity="0.1" d="M176.518 65.1035C176.518 65.1035 177.02 65.8819 179.556 66.2096C182.093 66.5373 176.518 65.1035 176.518 65.1035Z" fill="black"/>
<path opacity="0.1" d="M175.606 68.012C175.606 68.012 177.888 70.0193 181.547 69.2819C185.206 68.5445 175.606 68.012 175.606 68.012Z" fill="black"/>
<path d="M165.369 114.907L202.936 109.084" stroke="#3F3D56" stroke-miterlimit="10"/>
<path d="M34.0562 51.6774C34.0562 56.5859 37.281 60.8273 41.9571 62.8376L35.2699 46.6308C34.4741 48.1942 34.0583 49.9232 34.0562 51.6774ZM57.5389 51.0516C57.5389 49.5191 56.9166 48.4578 56.3828 47.6317C55.6722 46.6103 55.0064 45.7453 55.0064 44.7239C55.0064 43.584 55.9835 42.5229 57.3602 42.5229C57.4224 42.5229 57.4813 42.5298 57.5421 42.5328C54.8515 40.3972 51.5101 39.2483 48.0751 39.2776C43.1775 39.2776 38.8687 41.5003 36.362 44.8669C36.6909 44.8756 37.0011 44.8815 37.2642 44.8815C38.7305 44.8815 41.0003 44.7241 41.0003 44.7241C41.756 44.6847 41.8451 45.6665 41.0904 45.7455C41.0904 45.7455 40.3307 45.8246 39.4857 45.8638L44.5908 59.2953L47.659 51.1566L45.4745 45.8635C44.7196 45.8244 44.0044 45.7453 44.0044 45.7453C43.249 45.7061 43.3376 44.6845 44.093 44.7239C44.093 44.7239 46.4081 44.8813 47.7857 44.8813C49.2517 44.8813 51.5218 44.7239 51.5218 44.7239C52.278 44.6845 52.3669 45.6663 51.6117 45.7453C51.6117 45.7453 50.8506 45.8244 50.0072 45.8635L55.0733 59.1934L56.4714 55.0602C57.0777 53.3451 57.5389 52.1132 57.5389 51.0516Z" fill="#FF635F"/>
<path d="M48.321 52.762L44.1149 63.5728C46.9493 64.3082 49.9326 64.2399 52.7304 63.3753C52.6917 63.3217 52.6583 63.2645 52.6307 63.2045L48.321 52.762ZM60.3761 45.728C60.4398 46.1501 60.4714 46.5763 60.4705 47.0031C60.4705 48.2614 60.2048 49.676 59.4046 51.4447L55.1224 62.3959C59.2901 60.2461 62.0935 56.2522 62.0935 51.6773C62.0899 49.5725 61.4948 47.511 60.3761 45.728Z" fill="#FF635F"/>
</g>
<defs>
<clipPath id="clip0_27_191">
<rect width="209.225" height="115" fill="white"/>
</clipPath>
</defs>
</svg>
