<svg width="88" height="115" viewBox="0 0 88 115" fill="none" xmlns="http://www.w3.org/2000/svg">
<path d="M43.6102 39.7932L45.1631 30.0877L34.6811 25.8173L33.1282 40.5697L43.6102 39.7932Z" fill="#A0616A"/>
<path d="M40.9614 33.2077C46.8648 33.2077 51.6505 28.422 51.6505 22.5186C51.6505 16.6151 46.8648 11.8295 40.9614 11.8295C35.0579 11.8295 30.2722 16.6151 30.2722 22.5186C30.2722 28.422 35.0579 33.2077 40.9614 33.2077Z" fill="#A0616A"/>
<path d="M40.1083 8.14781C40.4176 8.32836 40.8319 8.05519 40.931 7.71105C41.0302 7.36692 40.9147 7.00153 40.8001 6.66221C40.6079 6.09281 40.4156 5.52341 40.2234 4.95401C39.8143 3.74251 39.3802 2.48868 38.4944 1.56657C37.1573 0.174799 35.0324 -0.179262 33.1195 0.0772426C30.6631 0.406643 28.2394 1.7368 27.0972 3.93638C25.955 6.13596 26.4413 9.20516 28.5051 10.5775C25.5637 13.9489 24.5383 17.7062 24.7002 22.1774C24.8621 26.6487 29.7347 30.7637 32.9123 33.9135C33.6219 33.4834 34.267 31.4675 33.8768 30.7352C33.4866 30.0028 34.0457 29.1544 33.5624 28.4798C33.0791 27.8053 32.6748 28.8794 33.1634 28.2087C33.4717 27.7854 32.2684 26.8117 32.7267 26.5584C34.9432 25.3332 35.6805 22.5703 37.0726 20.4546C38.7518 17.9026 41.6258 16.1744 44.6671 15.8876C46.3425 15.7297 48.1121 16.0158 49.4854 16.9884C50.8587 17.9611 51.7477 19.6992 51.4293 21.3516C52.254 20.5142 52.6645 19.287 52.5097 18.1219C52.3548 16.9569 51.638 15.8795 50.6232 15.2866C51.2402 13.246 50.7116 10.8988 49.2794 9.31975C47.8472 7.7407 42.0374 8.00964 39.9465 8.42522" fill="#2F2E41"/>
<path d="M39.7835 15.9496C37.0142 16.2485 35.0147 18.6474 33.3262 20.8628C32.353 22.1396 31.3336 23.5497 31.3581 25.155C31.3828 26.778 32.4679 28.17 32.9865 29.7081C33.8341 32.2222 33.008 35.2133 30.9902 36.9359C32.984 37.3143 35.1394 35.8193 35.4836 33.8193C35.8843 31.491 34.1194 29.2439 34.3284 26.8907C34.5125 24.8174 36.1463 23.2219 37.5353 21.6717C38.9242 20.1216 40.2287 18.0646 39.5897 16.0837" fill="#2F2E41"/>
<path d="M40.3135 113.852C40.3135 113.852 17.1542 116.149 15.4316 113.469C13.709 110.789 38.9338 108.11 38.9338 108.11L40.3135 113.852Z" fill="#A0616A"/>
<path d="M25.5471 70.9136L25.0686 73.4538C26.3718 75.3772 26.4965 77.4106 25.7385 79.5265L52.1517 79.7179C51.8678 76.856 51.557 73.7906 52.6445 70.978L25.5471 70.9136Z" fill="#A0616A"/>
<path d="M68.8105 89.7989L59.2311 82.1355C57.9583 81.1172 57.1343 79.6031 56.9702 77.9813L55.494 63.3824L64.288 60.451L66.408 74.9062L71.6927 86.9168L68.8105 89.7989Z" fill="#A0616A"/>
<path d="M32.1504 38.8541L44.9742 38.2799L58.5636 44.7528L53.013 71.2007L24.8773 73.3061L21.0493 44.0219L32.1504 38.8541Z" fill="#FF635F"/>
<path d="M52.6445 77.2943C54.5712 79.8342 55.3804 85.9494 56.1997 92.0321C56.1997 92.0321 20.5994 91.8407 20.408 91.8407C20.2166 91.8407 25.8485 79.0169 25.8485 79.0169L52.6445 77.2943Z" fill="#2F2E41"/>
<path d="M53.8072 90.4097L56.1997 92.0321C56.1997 92.0321 90.0775 89.7353 87.2065 100.454C84.3355 111.172 75.3397 112.895 75.3397 112.895L38.9738 115L38.591 109.067C38.591 109.067 3.56479 116.914 0.310998 100.836C-2.9428 84.7589 20.408 91.8407 20.408 91.8407L53.8072 90.4097Z" fill="#2F2E41"/>
<path d="M39.5125 103.133C39.5125 103.133 40.3135 98.9224 46.0555 100.645C51.7975 102.368 55.0513 104.664 55.0513 104.664L41.2705 108.11L39.5125 103.133Z" fill="#A0616A"/>
<path d="M53.8743 44.309C53.8743 44.309 60.3819 42.0122 62.8701 49.4768C65.3583 56.9414 64.7841 63.0662 64.7841 63.0662L55.2141 66.1286L53.8743 44.309Z" fill="#FF635F"/>
<path d="M9.25027 90.964L7.16245 87.2854L11.6732 76.0562L13.7936 61.5995L22.5876 64.5309L21.0935 79.3062C20.9409 80.8158 20.1738 82.2252 18.989 83.1731L9.25027 90.964Z" fill="#A0616A"/>
<path d="M24.2073 44.309C24.2073 44.309 17.6997 42.0122 15.2115 49.4768C12.7233 56.9414 13.2975 63.0662 13.2975 63.0662L22.8675 66.1286L24.2073 44.309Z" fill="#FF635F"/>
<path d="M71.5788 91.489C74.1158 91.489 76.1724 88.447 76.1724 84.6943C76.1724 80.9417 74.1158 77.8997 71.5788 77.8997C69.0418 77.8997 66.9852 80.9417 66.9852 84.6943C66.9852 88.447 69.0418 91.489 71.5788 91.489Z" fill="#A0616A"/>
<path d="M7.07708 92.6375C9.61405 92.6375 11.6707 89.5954 11.6707 85.8428C11.6707 82.0902 9.61405 79.0481 7.07708 79.0481C4.54011 79.0481 2.48349 82.0902 2.48349 85.8428C2.48349 89.5954 4.54011 92.6375 7.07708 92.6375Z" fill="#A0616A"/>
<path d="M24.6187 97.1998L41.2705 101.985L44.5243 107.727L38.3017 109.067" fill="#2F2E41"/>
</svg>
